<svg height="512pt" viewBox="0 0 512 512" width="512pt" xmlns="http://www.w3.org/2000/svg"><path d="m512 256c0 141.386719-114.613281 256-256 256s-256-114.613281-256-256 114.613281-256 256-256 256 114.613281 256 256zm0 0" fill="#65b2ff"/><path d="m512 256c0 26.050781-3.890625 51.191406-11.128906 74.871094-32.011719 104.847656-129.542969 181.128906-244.871094 181.128906-104.558594 0-194.488281-62.699219-234.230469-152.550781-14-31.628907-21.769531-66.628907-21.769531-103.449219 0-46.21875 12.25-89.570312 33.679688-127 44.121093 77.070312 127.160156 129 222.320312 129s178.210938-51.929688 222.320312-129c21.429688 37.429688 33.679688 80.78125 33.679688 127zm0 0" fill="#0f9be8"/><path d="m30.742188 377.703125c7.15625 13.21875 15.429687 25.738281 24.71875 37.425781 46.898437 59.019532 119.300781 96.871094 200.539062 96.871094s153.640625-37.851562 200.539062-96.871094c9.289063-11.6875 17.5625-24.207031 24.71875-37.425781zm0 0" fill="#0066e8"/><path d="m109.589844 444.851562v21.179688c11.921875 8.320312 24.582031 15.660156 37.871094 21.878906 23.789062 11.160156 49.570312 18.761719 76.660156 22.121094 1.46875.1875 2.957031.359375 4.4375.507812h.019531c7.222656.78125 14.523437 1.25 21.902344 1.402344 1.828125.039063 3.660156.058594 5.5.058594 1.839843 0 3.667969-.019531 5.5-.058594 7.398437-.152344 14.71875-.621094 21.949219-1.402344 1.480468-.148437 2.980468-.320312 4.449218-.519531 27.089844-3.359375 52.871094-10.960937 76.660156-22.128906 13.289063-6.210937 25.949219-13.550781 37.871094-21.878906v-21.160157c0-35.589843-14.101562-68.78125-37.871094-93.222656-4.21875-4.347656-8.757812-8.417968-13.570312-12.179687-4.347656-3.398438-8.929688-6.527344-13.730469-9.390625-6.910156-4.128906-14.277343-7.667969-22.019531-10.546875l-6.21875-2.300781-3.28125-1.222657-14.140625-5.238281-5.257813-1.949219h-60.640624l-5.25 1.949219-14.148438 5.238281-3.28125 1.222657-6.21875 2.300781c-7.742188 2.878906-15.101562 6.417969-22.019531 10.546875-4.792969 2.863281-9.382813 5.992187-13.730469 9.390625-4.8125 3.761719-9.339844 7.832031-13.570312 12.179687-23.761719 24.441406-37.871094 57.632813-37.871094 93.222656zm0 0" fill="#ffe955"/><path d="m255.980469 308.800781v203.199219c1.839843 0 3.667969-.019531 5.5-.058594 7.398437-.152344 14.71875-.621094 21.949219-1.402344 1.480468-.148437 2.980468-.320312 4.449218-.519531 42.222656-5.238281 81.261719-20.769531 114.53125-44.007812v-21.160157c0-55.902343-34.789062-105.890624-87.191406-125.339843l-6.21875-2.300781-3.28125-1.222657-14.140625-5.238281-5.257813-1.949219zm0 0" fill="#ffd112"/><path d="m326.199219 353.621094c-15.1875 22.550781-40.960938 37.378906-70.199219 37.378906h-.03125c-.546875 0-1.109375-.011719-1.660156-.019531-.679688-.011719-1.367188-.03125-2.046875-.070313-.332031-.011718-.660157-.019531-.992188-.050781-.238281 0-.488281-.019531-.738281-.039063-2.710938-.171874-5.402344-.46875-8.042969-.898437-.410156-.0625-.828125-.132813-1.238281-.210937-.441406-.070313-.871094-.152344-1.300781-.242188-.910157-.167969-1.820313-.359375-2.710938-.558594-.386719-.089844-.769531-.179687-1.148437-.269531-.429688-.101563-.851563-.210937-1.269532-.320313-2.539062-.648437-5.03125-1.421874-7.46875-2.300781-.402343-.140625-.8125-.289062-1.210937-.449219-.378906-.140624-.761719-.28125-1.140625-.429687-.980469-.390625-1.960938-.800781-2.921875-1.21875-.5-.222656-.988281-.441406-1.488281-.671875-1.53125-.710938-3.039063-1.460938-4.53125-2.261719-.347656-.1875-.699219-.378906-1.046875-.566406-1.691407-.941406-3.339844-1.933594-4.960938-2.992187-.402343-.25-.800781-.507813-1.191406-.78125-.46875-.308594-.929687-.617188-1.378906-.949219-.410157-.277344-.808594-.570313-1.210938-.859375-1.257812-.917969-2.5-1.871094-3.699219-2.859375-.398437-.308594-.78125-.640625-1.171874-.96875-.660157-.550781-1.308594-1.121094-1.949219-1.703125-.359375-.320313-.71875-.648438-1.070313-.980469-.847656-.777344-1.679687-1.589844-2.488281-2.40625-.359375-.371094-.71875-.742187-1.082031-1.121094-.398438-.402343-.777344-.8125-1.148438-1.222656-.480468-.519531-.949218-1.046875-1.410156-1.578125-.230469-.25-.449219-.511719-.671875-.78125-.847656-.988281-1.679687-2-2.457031-3.027344-.222656-.269531-.429688-.542968-.632813-.820312-.796875-1.050782-1.566406-2.109375-2.308593-3.199219-.128907-.191406-.257813-.371094-.378907-.5625 4.410157-13.960937 6.328125-20.050781 10.75-34.007813.070313-.03125.148438-.0625.230469-.089843l6.21875-2.300781 3.28125-1.222657 14.148438-5.238281 5.25-1.949219h60.640624l5.257813 1.949219 14.140625 5.238281 3.28125 1.222657 6.21875 2.300781c.082031.027343.152344.058593.230469.089843 4.410156 13.957032 6.339843 20.046876 10.75 34.019532zm0 0" fill="#ffa87a"/><path d="m255.96875 308.800781v82.199219c-.546875 0-1.109375-.011719-1.660156-.019531-.679688-.011719-1.367188-.03125-2.046875-.070313-.332031-.011718-.660157-.019531-.992188-.050781-.238281 0-.488281-.019531-.738281-.039063-2.710938-.171874-5.402344-.46875-8.042969-.898437-.410156-.0625-.828125-.132813-1.238281-.210937-.441406-.070313-.871094-.152344-1.300781-.242188-.910157-.167969-1.820313-.359375-2.710938-.558594-.386719-.089844-.769531-.179687-1.148437-.269531-.429688-.101563-.851563-.210937-1.269532-.320313-2.539062-.648437-5.03125-1.421874-7.46875-2.300781-.402343-.140625-.8125-.289062-1.210937-.449219-.378906-.140624-.761719-.28125-1.140625-.429687-.980469-.390625-1.960938-.800781-2.921875-1.21875-.5-.222656-.988281-.441406-1.488281-.671875-1.53125-.710938-3.039063-1.460938-4.53125-2.261719-.347656-.1875-.699219-.378906-1.046875-.566406-1.691407-.941406-3.339844-1.933594-4.960938-2.992187-.402343-.25-.800781-.507813-1.191406-.78125-.46875-.308594-.929687-.617188-1.378906-.949219-.410157-.277344-.808594-.570313-1.210938-.859375-1.257812-.917969-2.5-1.871094-3.699219-2.859375-.398437-.308594-.78125-.640625-1.171874-.96875-.660157-.550781-1.308594-1.121094-1.949219-1.703125-.359375-.320313-.71875-.648438-1.070313-.980469-.847656-.777344-1.679687-1.589844-2.488281-2.40625-.359375-.371094-.71875-.742187-1.082031-1.121094-.398438-.402343-.777344-.8125-1.148438-1.222656-.480468-.519531-.949218-1.046875-1.410156-1.578125-.230469-.25-.449219-.511719-.671875-.78125-.847656-.988281-1.679687-2-2.457031-3.027344-.222656-.269531-.429688-.542968-.632813-.820312-.796875-1.050782-1.566406-2.109375-2.308593-3.199219-.128907-.183594-.257813-.363281-.378907-.550781v-.011719c4.410157-13.960937 6.328125-20.050781 10.75-34.007813.070313-.03125.148438-.0625.230469-.089843l6.21875-2.300781 3.28125-1.222657 14.148438-5.238281 5.25-1.949219zm0 0" fill="#ffc0a4"/><g fill="#e3835a"><path d="m358.652344 181.953125c12.628906 0 22.863281 10.238281 22.863281 22.863281 0 23-18.644531 41.644532-41.644531 41.644532v-64.558594zm0 0"/><path d="m153.316406 181.953125c-12.625 0-22.863281 10.238281-22.863281 22.863281 0 23 18.644531 41.644532 41.644531 41.644532v-64.558594zm0 0"/><path d="m221.347656 264.351562v49.285157c0 19.125 15.507813 34.640625 34.640625 34.640625 19.125 0 34.636719-15.515625 34.636719-34.640625v-49.285157zm0 0"/></g><path d="m221.347656 264.351562v49.285157c0 19.125 15.507813 34.640625 34.640625 34.640625v-83.925782zm0 0" fill="#ffa87a"/><path d="m345.351562 186.25v33.691406c0 49.347656-40.023437 89.367188-89.363281 89.367188-.007812 0-.007812 0-.019531 0-49.359375-.007813-89.359375-40.027344-89.359375-89.367188v-33.691406c0-5.078125.429687-10.058594 1.261719-14.898438 5.828125-34.8125 31.777344-62.792968 65.5-71.582031 7.207031-1.890625 14.777344-2.890625 22.597656-2.890625h.019531c7.792969 0 15.382813 1 22.589844 2.871094 33.710937 8.808594 59.691406 36.789062 65.523437 71.601562.828126 4.839844 1.25 9.820313 1.25 14.898438zm0 0" fill="#ffa87a"/><path d="m166.613281 186.246094v33.695312c0 49.335938 40 89.363282 89.355469 89.371094v-212.429688c-7.8125 0-15.390625 1-22.601562 2.886719-33.710938 8.785157-59.664063 36.765625-65.5 71.582031-.828126 4.839844-1.253907 9.820313-1.253907 14.894532zm0 0" fill="#ffc0a4"/><path d="m295.023438 208.738281c0 6.074219-4.925782 11-11.003907 11s-11.003906-4.925781-11.003906-11c0-6.078125 4.925781-11.003906 11.003906-11.003906s11.003907 4.925781 11.003907 11.003906zm0 0" fill="#323b5a"/><path d="m238.953125 208.738281c0 6.074219-4.925781 11-11.003906 11-6.074219 0-11-4.925781-11-11 0-6.078125 4.925781-11.003906 11-11.003906 6.078125 0 11.003906 4.925781 11.003906 11.003906zm0 0" fill="#323b5a"/><path d="m229.667969 253.53125c-7.777344 0-11.917969 9.332031-6.570313 14.980469 3.351563 3.535156 7.269532 6.53125 11.601563 8.84375 6.34375 3.394531 13.585937 5.3125 21.285156 5.3125s14.945313-1.917969 21.285156-5.3125c4.335938-2.3125 8.25-5.308594 11.601563-8.84375 5.347656-5.648438 1.207031-14.980469-6.566406-14.980469zm0 0" fill="#323b5a"/><path d="m255.984375 238.867188c-3.65625 0-6.621094-2.964844-6.621094-6.621094v-33.261719c0-3.65625 2.964844-6.621094 6.621094-6.621094s6.621094 2.964844 6.621094 6.621094v33.261719c0 3.65625-2.964844 6.621094-6.621094 6.621094zm0 0" fill="#e3835a"/><path d="m234.699219 277.351562c6.34375 3.398438 13.585937 5.316407 21.285156 5.316407s14.945313-1.917969 21.285156-5.316407c-5.292969-5.734374-12.871093-9.328124-21.285156-9.328124s-15.988281 3.59375-21.285156 9.328124zm0 0" fill="#e32644"/><path d="m345.351562 186.25v9.179688h-178.742187v-9.179688c0-3.769531.242187-7.480469.699219-11.121094.160156-1.269531.351562-2.527344.5625-3.777344.648437-3.882812 1.550781-7.671874 2.679687-11.351562 9.019531-29.449219 32.847657-52.421875 62.820313-60.230469 7.207031-1.890625 14.777344-2.890625 22.597656-2.890625h.019531c7.792969 0 15.382813 1 22.589844 2.871094 29.960937 7.828125 53.8125 30.800781 62.84375 60.25 1.128906 3.679688 2.027344 7.46875 2.679687 11.351562.207032 1.25.398438 2.507813.558594 3.777344.460938 3.640625.691406 7.351563.691406 11.121094zm0 0" fill="#fff"/><path d="m344.660156 175.128906h-177.351562c.160156-1.269531.351562-2.527344.5625-3.777344.648437-3.882812 1.550781-7.671874 2.679687-11.351562h170.871094c1.128906 3.679688 2.027344 7.46875 2.679687 11.351562.207032 1.25.398438 2.507813.558594 3.777344zm0 0" fill="#65b2ff"/><path d="m364.539062 351.628906v136.261719c13.289063-6.210937 25.949219-13.550781 37.871094-21.878906v-21.160157c0-35.589843-14.101562-68.78125-37.871094-93.222656zm0 0" fill="#ffa87a"/><path d="m109.589844 444.851562v21.179688c11.921875 8.320312 24.582031 15.660156 37.871094 21.878906v-136.28125c-23.761719 24.441406-37.871094 57.632813-37.871094 93.222656zm0 0" fill="#ffc0a4"/><path d="m364.953125 211.726562-75.875-19.847656c-30.144531-7.882812-56.878906-25.429687-76.109375-49.945312-14.988281 26.46875-35.828125 49.167968-60.921875 66.367187l-5 3.425781v-57.632812c0-23.550781 19.089844-42.640625 42.636719-42.640625h10.160156v-18.648437c0-12.59375 10.210938-22.804688 22.804688-22.804688h27.449218c63.433594 0 114.855469 51.425781 114.855469 114.859375zm0 0" fill="#323b5a"/><path d="m177.378906 448.878906c0 8.042969 3.261719 15.320313 8.53125 20.589844 5.269532 5.269531 12.550782 8.53125 20.589844 8.53125h99c16.078125 0 29.121094-13.039062 29.121094-29.121094 0-8.039062-3.261719-15.320312-8.53125-20.589844-5.269532-5.269531-12.550782-8.527343-20.589844-8.527343h-99c-16.078125 0-29.121094 13.039062-29.121094 29.117187zm0 0" fill="#fff"/><path d="m255.980469 419.761719v58.238281h49.519531c16.078125 0 29.121094-13.039062 29.121094-29.121094 0-8.039062-3.261719-15.320312-8.53125-20.589844-5.269532-5.269531-12.550782-8.527343-20.589844-8.527343zm0 0" fill="#d0f6ff"/></svg>