<?xml version="1.0" encoding="UTF-8" standalone="no"?>
<svg
   xmlns:dc="http://purl.org/dc/elements/1.1/"
   xmlns:cc="http://creativecommons.org/ns#"
   xmlns:rdf="http://www.w3.org/1999/02/22-rdf-syntax-ns#"
   xmlns:svg="http://www.w3.org/2000/svg"
   xmlns="http://www.w3.org/2000/svg"
   xmlns:xlink="http://www.w3.org/1999/xlink"
   xml:space="preserve"
   style="enable-background:new 0 0 115.3 115.3;"
   viewBox="0 0 115.3 115.3"
   height="512px"
   width="512px"
   y="0px"
   x="0px"
   id="Capa_1"
   version="1.1"><metadata
   id="metadata17"><rdf:RDF><cc:Work
       rdf:about=""><dc:format>image/svg+xml</dc:format><dc:type
         rdf:resource="http://purl.org/dc/dcmitype/StillImage" /><dc:title></dc:title></cc:Work></rdf:RDF></metadata><defs
   id="defs15"><linearGradient
     id="linearGradient828"><stop
       id="stop824"
       offset="0"
       style="stop-color:#e56166;stop-opacity:1;" /><stop
       id="stop826"
       offset="1"
       style="stop-color:#e56166;stop-opacity:0;" /></linearGradient><linearGradient
     gradientUnits="userSpaceOnUse"
     y2="57.649665"
     x2="115.299"
     y1="57.649665"
     x1="0"
     id="linearGradient830"
     xlink:href="#linearGradient828" /></defs><g
   style="fill:#e56166;fill-opacity:1"
   id="g10"><g
     style="fill:#e56166;fill-opacity:1"
     id="g8">
	<path
   style="fill:#e56166;fill-opacity:1"
   id="path2"
   fill="#173947"
   data-old_color="#000000"
   class="active-path"
   data-original="#000000"
   d="M47.9,14.306L26,30.706H6c-3.3,0-6,2.7-6,6v41.8c0,3.301,2.7,6,6,6h20l21.9,16.4c4,3,9.6,0.2,9.6-4.8v-77   C57.5,14.106,51.8,11.306,47.9,14.306z" />
	<path
   style="fill:#e56166;fill-opacity:1"
   id="path4"
   fill="#173947"
   data-old_color="#000000"
   class="active-path"
   data-original="#000000"
   d="M77.3,24.106c-2.7-2.7-7.2-2.7-9.899,0c-2.7,2.7-2.7,7.2,0,9.9c13,13,13,34.101,0,47.101c-2.7,2.7-2.7,7.2,0,9.899   c1.399,1.4,3.199,2,4.899,2s3.601-0.699,4.9-2.1C95.8,72.606,95.8,42.606,77.3,24.106z" />
	<path
   style="fill:#e56166;fill-opacity:1"
   id="path6"
   fill="#173947"
   data-old_color="#000000"
   class="active-path"
   data-original="#000000"
   d="M85.1,8.406c-2.699,2.7-2.699,7.2,0,9.9c10.5,10.5,16.301,24.4,16.301,39.3s-5.801,28.8-16.301,39.3   c-2.699,2.7-2.699,7.2,0,9.9c1.4,1.399,3.2,2.1,4.9,2.1c1.8,0,3.6-0.7,4.9-2c13.1-13.1,20.399-30.6,20.399-49.2   c0-18.6-7.2-36-20.399-49.2C92.3,5.706,87.9,5.706,85.1,8.406z" />
</g></g> </svg>