<svg xmlns="http://www.w3.org/2000/svg" viewBox="0 0 1657.29 2264.21"><title>downloading</title><g id="Layer_2" data-name="Layer 2"><g id="Layer_1-2" data-name="Layer 1"><path d="M967.63,1829.92c25.39,1.47,51,2.93,76.13-1.29,74.85-12.59,136.52-81,141.35-156.7.92-14.37-.1-29.28-6.34-42.26-11.19-23.29-36.41-35.8-59.86-46.64-23-10.64-48.72-21.5-72.95-14-11,3.38-20.42,10.25-30.11,16.39a263.19,263.19,0,0,1-174.47,38.13c-21.93-3-47.89-7.45-63.08,8.63-15,15.85-9.38,41.55-1.08,61.71,10.77,26.17,17.05,45.49,5.1,72-8.49,18.82-14.57,38.17,7.92,50.56,21.89,12.06,61.4,6.77,85.95,8.19Z" style="fill:#4eb8cb;"/><path d="M671.25,858.32c5.77,1.58,11.8-.17,17.68,1.87,3.69,1.28,6.88-2.85,6.53-7.79-.73-10.41-1.54-20.81-2.62-31.19-2.2-21.21-1.71-42.29,3.95-62.92A53.24,53.24,0,0,1,706,739.45c1.64-2.09,4.06-4.07,4.59-6.45,2.19-9.68,10.28-14,17.6-17.47,7.59-3.65,16.2-3.45,25.14-.86,6.38,1.85,12.87,3.37,15.65,8.87,2.2,4.36,5.09,9,5.72,14,.53,4.08,2.07,7.62,3.2,11.4,1.19,4,2.83,8.2-1.07,11.76-1.1,1-1.79,2.27-1.08,3.47,3.29,5.63.51,10.93-.82,16.24-1.47,5.86-2.32,11.71-1.55,17.75.38,2.93,1.19,5.91-1.14,8.57-.56.64-1,2.32-.59,2.72,6.07,6.54.87,13-.23,19.33-.3,1.76-.88,3.21.82,4.32s2.18,2.48,1.26,4.19c-4.51,8.35-.7,16.81-.42,25.21.38,2.74,3.05,5.49-.13,8.24a5.09,5.09,0,0,0-1.24,5.56c1.63,5.29.81,10.44.14,15.76-.61,4.91-.87,10.4,1.5,14.7,3.87,7,4.87,14.88,5,22,.1,7.66,1.48,14.74,3.06,22,2.17,10,1.68,20.87,10.15,28.6a29.64,29.64,0,0,1,9,17.12c.61,3.39,3.59,4.72,4.78,7.33,3.94,8.64,18.38,4.49,19.66,16.26,0,.14.58.31.89.31,5.83,0,10.68,4.24,16.17,4.34,10.2.19,20,4.23,30.36,2.46a6.37,6.37,0,0,1,3.92.44c7.63,4.32,14.75-.27,18-4.83,5.57-7.89,13.63-9.28,21.06-12.82,6-2.85,11.46-6.45,15.52-12,3.89-5.29,7.09-11.93,12.33-15.19,11.29-7,16.18-18.15,19.9-29.29a74,74,0,0,1,11.72-22.68c1.22-1.57,3.1-2.8,2.74-5-1.83-11.27.41-22.09,3.43-32.84.74-2.65,1.1-5.28-.48-7.72-1.29-2-.69-3.8.14-5.66,3.32-1.44,3.42-3.43,1-5.84,0-.69,0-1.37,0-2.06a3.66,3.66,0,0,0,1.79-3.35c-1-7.83.11-15.2,4.37-22a7.35,7.35,0,0,0,0-7.65c-1.5-2.75-1.12-5.65-1.34-8.62-.66-8.69,3.57-16.67,2.82-25.37-.51-5.9-2.7-11.8-1.09-17.76,1.17-4.32.84-8.55.3-12.83-.62-5-.79-10,1.1-14.76.75-1.91,1.36-3.9.45-5.8-4.09-8.58-.29-16.9.47-25.38.88-9.83,8.87-15,13.37-22.49a3.53,3.53,0,0,1,2.51-1.46c10.24-.21,20-6.19,30.68-2.07,3.87,1.49,6.47,4.08,9.6,6.35,5,3.61,9.74,7.88,15.84,9.78,5.64,11.35,17.43,19.59,17.14,33.94a2.06,2.06,0,0,0,.94,1.62c6.78,2.52,6.48,10.32,11,14.73a13.71,13.71,0,0,1,4,9.9c-.19,5.27-.49,10.54-.54,15.82-.08,9-1.68,17.85-.83,26.84.83,8.82.88,9.14,9.25,7.95,11.85-1.69,23.63-2.36,35.2,1.4,5.34,1.73,10.41,4.41,15.83,5.74,6.22,1.53,13.37.43,16.65,8.14.48,1.13,2.8,1.7,4.38,2.1,7.46,1.88,13.87,5.33,15,13.59,1,7.35,8.55,12,7.56,19.9a3.61,3.61,0,0,1-.21,1c-2.8,6.49-1.87,13-.12,19.53.8,3,.13,5.84-.28,8.82-1.35,9.93-2,19.58-6.79,29.15-3.55,7.15-5.79,14.2-13.42,17.87-4-2.95-7.8-6-10.45-10.41-3.74-6.2-10.67-9-16.74-9.21a93.66,93.66,0,0,0-30.68,3.52c-3.5,1.05-6.65,1.88-8,5.73,10,4.47,20.07,5.66,30.24,6,6.15.18,11.11,2.46,13.6,8,2.32,5.14,6.57,8.33,10.57,11.44,5.19,4,10.71,7.56,15.12,12.58,3.4,3.87,7.94,5.2,13.39,4.83l-1-9.38a8,8,0,0,1,4.74,4.75c3.27,7.46,5.94,15.25,11.76,21.35,1.3,1.36,2.56,3.12,2.16,5.35-.89,5,1.6,8.87,4.29,12.78,2,3,4.18,6,1.87,10.06-4,7-1.8,14,.47,20.85.77,2.32,1.67,4.34.45,6.59-3.86,7.12-2.64,14.62-1.82,22.12.25,2.29.12,4.62.17,6.92.26,12.54-11.4,21.4-10.55,34.13a1.07,1.07,0,0,1-.51.82c-5.89,2.83-6.44,8.49-8.06,13.9-.72,2.4-2.52,5.71-5.76,6.37-2.67.55-3.41,2.41-4.86,4.26-9.31,11.92-16.11,25.66-27.53,36.11-10.1,9.24-19.9,18.34-34.49,19.24a13.91,13.91,0,0,0-5.62,1.8c-11.81,6.18-23.23,13.84-37.7,10.91-.46-.09-1,.71-1.64.91-13.58,4.58-27.18,9-41.85,7.63-2.62-.24-5.23-.38-7.72,1.15-2,1.21-4.55,2.27-6.67,1.37-11.92-5.06-25.31,1-37.07-5a2.66,2.66,0,0,0-1.86.2c-8.09,3.16-16.23,5.17-24.78,1.59a4,4,0,0,0-2.87.38c-6,2.92-12.88,2.54-19.05,3-9.36.63-18.76,3.58-28.52.53-5.94-1.85-8.66,1.72-8.86,8.21-.43,13.69,2.39,27.16,2.44,40.82,0,2.25,1.07,4.49,1.65,6.73-5.68,6.23-7.89,13.63-7.64,22,.22,7.1-1.27,13.31-6.13,19.29-4.1,5.05-7.94,10.37-12.14,15.44-6.2,7.48-11.75,15.07-23.23,11.34a4.81,4.81,0,0,0-2.9.47c-9.29,3.72-16.94,4-26.4-2.74-9.95-7.08-21.8-12-32.44-18.56-2-1.21-3.64-3.62-6-3.22-5.48.92-8.9-2.25-12.52-5.31a5.8,5.8,0,0,1-.29-2c3-13.79-1.15-27.65.35-41.41,1.41-12.91-.84-25.93,1-38.66.91-6.22-1.54-7.06-5.88-7.3-5.25-.28-10.59.82-15.73-1.1l-1.38-1.46c.52-3.59.42-7.43,1.73-10.71,1.4-3.52.43-5.69-1.91-7.93-4-3.82-6.64-7.41-.89-12.35a5.75,5.75,0,0,0,0-8.16,76.9,76.9,0,0,0-10.21-7.84c-1.61-1.09-4.16-2.11-5.52-.31-3.92,5.2-8.35,2.76-12.54,1.14-4.81-1.86-11.5-3.7-14.38-1.74-4.94,3.36-8.93.31-13.15,1.21-3.64.77-6.34-2.12-10.23-2a137.39,137.39,0,0,1-29-2.24c-8-1.54-15.85-1.22-23.58-.52-11.41,1-22.86,2-34.23,1.75s-22.61,2.35-33.93.11c-2.71-.54-5.2.71-7.66,1.82-2.06.93-3.92,2.16-6.56,1.33-8.58-2.7-17.69,4.18-26.23-1.28-.36-.23-1.38.15-1.85.53-6.44,5.29-13.87,2.81-21,2.76-3.65,0-6.53-2.4-10.18-2.93-6.86-1-12.91,2.23-19.37,2.49a106.67,106.67,0,0,1-40.78-6.32c-6.7-2.42-8.83-4.86-7.12-11.74a41.35,41.35,0,0,0,.45-18.53,34.45,34.45,0,0,1-.61-12.65c1.43-8.59.37-17,.59-25.44.16-6.08-2.44-12.95,1.7-18.91,1.28-1.85-.17-3.91-1-5.61-1.74-3.4-1.21-6.6-1-10.32.45-9.09,2.67-18.14,1.25-27.35-.55-3.58-1.34-7.56.25-10.86,2-4.22.78-7.6-.84-11.35-1.3-3-3.75-6.69-1.61-9.42,2.66-3.4.36-7.64,1.51-9.34,2.66-3.92,1.41-7.64,2-11.4,1.12-6.7-1.47-13.51-.47-19.75,1.8-11.35.41-22.55.7-33.79.24-9.11,1.91-18.73-3.69-27.19a3.34,3.34,0,0,1-.36-1.94c.66-10-3.74-19.13-5.24-28.76-1.32-8.47-7.33-17.27,2.3-24.73.35-.27.13-1.28.17-1.94,4.51,1.35,8.81,2,13.24-.85,3.4-2.2,7.42-1.38,11.44-1.38,15.45,0,30.91.66,46.28,1.37,14.73.68,29.65-2.19,44.23,1.76,6.91-3,13.4,3.24,20.28.92-4.7,5.82-9.23,11.8-17.76,12.17-1.89.08-3.78,1.16-5.61,1.91-9,3.74-18.31,5-27.93,2.59-5.15-1.31-9.74-1.07-13.32,3.79-1.72,2.33-3.76,4.12-7.6,2.29-6.84-3.26-11.18-.85-10.84,6.4.29,6.21-1.52,12.24-.21,18.59,1.17,5.68,2.83,10.29,8.42,13.9,1.41.91,1.81,1.74,1.44,3.12-.46,1.7-1,3.54,1.65,3.45,3.8-.12,5.81,3,8.71,4.43,4.41,2.23,9.09,6.78,13.13,6.26,8.19-1,16.59,1.15,24.67-2.1,3.24-1.31,7.85-2.76,9.88,2.81.93,2.57,3,2.35,4.85,1.08,6-4,14.33.7,19.74-5.42.27-.31,1.35-.14,1.92.11,7.81,3.32,14.08-.07,20.33-4.33a59.11,59.11,0,0,1,9.73-5c12.05-5.25,24.54-9.7,33.18-20.53,1.61-2,4.3-3.15,6.25-4.79,5.49-4.62,11.51-9.21,15.3-15.1C659.14,877.52,667.58,869.4,671.25,858.32Zm1.94,235.94c2.34-1,3.08-2.85,2.87-5.23l3.35-5.63c3.35-1.07,3.1-4.63,4.76-6.8,3.19-4.15-.9-5.45-2.44-7.8l1.85-1.91c2.26-.65,3-1.9,1.58-4a20,20,0,0,0,.52-8.12c2.95-10.19-1.87-19.87-2.09-29.86,0-1.94-2.47-2.9-4.13-4l-.37-2.26c.08-4-2.17-6.3-5.62-7.74-5.89-8.06-10.13-17-18-24C636.43,970,614.6,962,589.35,962.65l.18.15c-4.43-3.85-9.27-2.24-13.09.26-10.37,6.79-22.17,10.66-32.95,16.77-13,7.4-23.53,15.67-30.11,29a6.59,6.59,0,0,1-2,2.13c-3,2.24-3.19,5.27-3.45,8.77-.47,6.29-.48,13.25-3.3,18.55s-2.38,10.28-2.28,15.38c.1,4.81,3.1,9.54-.26,14.4-.83,1.21.19,2.61,1.61,3,4,1.2,4.32,3.52,2.47,6.82-.72,1.28.12,2.52.55,3.77,2.73,7.78,5.13,15.68,10.66,22.15s8.41,15.11,17.75,17.45c4,8.77,11.78,9.83,20.08,9.94.42,0,.82,1,1.24,1.5,6.41,6.18,15.1,4.63,22.75,6.58.73.19,1.93-1.46,2.91-2.26l9.51-.55c4.92.57,10,3.11,14.42-1.48,4.07-2.77,9.34-1.31,13.48-3.83,15.34-2.13,26.08-11.71,36.18-22.34A1.74,1.74,0,0,0,657,1107a8.56,8.56,0,0,0,4.48-3.88c6.32.54,7.32-6.08,11.44-8.5Zm241.45-11c.15-4,.69-9.28-2.66-11.2-6.1-3.49-10.17-9.07-15.8-12.91-2.21-1.51-3.33-1.14-5,.55-1.88,2-4.1,3.83-3.76,6.72.79,6.78-2.26,12.8-3.36,19.2-.67,3.93-4.07,6.64-4.14,11-.3,19.15-5.2,37.81-5.23,57.18a187.23,187.23,0,0,0,3.37,35.08c1,5.22,3.53,9.89,5.2,14.82,3.2,9.43,18.36,11.55,26.15,4.78s11.16-15.72,11.9-25.53c1.11-14.68-.6-29.14-2.8-43.79C915.82,1120.74,913.88,1102,914.65,1083.27Zm-462.9-43c.67,13,6.09,23.58,17,30.88,6.17,4.14,11,1.75,14.59-5.36s5.77-14.56,8.15-22.09c2.69-8.5,4.59-17.24,7.7-25.62,4.11-11.08,9.55-21.7,11.19-33.63.32-2.32,1.28-4.56.07-6.75-3.51-6.39-7-12.82-10.79-19-2.22-3.58-6-5.82-10.18-4.78-3.87,1-7.2,3.32-8.53,7.66-6.76,22.14-17,42.88-25.76,64.21C453.29,1030.34,451,1034.93,451.74,1040.3Zm301.58,85.94c-.18,2.11-.7,4.14-.45,6.07.7,5.54,3.33,9.53,8.53,12.44,5.36,3,9.2,0,12.68-2.39a53.54,53.54,0,0,0,11.2-11c9.24-11.65,14.89-25.35,21.09-38.7.69-1.49,1.94-3.26,1.62-4.58-1.78-7.2,1.94-13.86,4.43-19.28,4.13-9-.83-15.82-1.89-23.42-.68-4.92-3.58-5.35-8.1-2.66a16.31,16.31,0,0,0-4.54,3.78c-5.08,6.54-10.47,12.81-15.29,19.59-9,12.65-16.26,26.32-24.29,39.54C754.55,1111.8,751.48,1118.6,753.32,1126.24ZM970,1045.57a9.9,9.9,0,0,0,2,6.56c4.85,6.85,9.66,13.74,14.49,20.6,8,11.32,20,17.81,30.75,25.82.64.48,2.35.58,2.76.13,2-2.27,2.3-1.16,3.83.84,5.08,6.6,5.31,6.42,13.66,2.62.3-.14.63-.23.93-.37,5.69-2.6,6.95-4.5,4.81-9.64-4.13-9.92-8.77-19.64-13.13-29.47-3.72-8.4-10.14-13.57-18.88-16a9.5,9.5,0,0,1-6.08-4.46c-5.08-8-9.51-9.42-18.51-7.09-2.87.74-6,.65-8.66,1.86-2.28,1.06-5.19-1.41-6.43.92S970.47,1043,970,1045.57Zm235,74.4-.5-.63c-.21.17-.56.32-.58.51s.29.41.46.62Z" style="fill:#f3bb1c;"/><path d="M946.7,229.09c3-14,14.45-19.79,25.61-25.52a63.66,63.66,0,0,1,24.87-6.41c7.53-.51,14.09-4.39,21.59-5.28,5.6-.66,6.58-4.84,4.26-10.19-4.54-10.46-5.57-21.54-4.27-32.68.52-4.47,0-8.89.23-13.32,1.57-25.44,15.63-42.84,34.73-57.35a25.57,25.57,0,0,1,13.63-5.48,114,114,0,0,0,28-6.23c18.38-6.36,37.74-7,56.8-9.33,17.14-2.13,34.27-4.42,51.08-8.41,9.46-2.24,19.2-.89,28.67-3.18,20-4.82,40.36-7.22,60.58-10.63,21.55-3.63,43.24-6.54,64.73-10.5,15.63-2.88,31-7.15,46.55-10.43a351.56,351.56,0,0,1,70.15-7.42,192.27,192.27,0,0,0,39.11-4.26c4.73-1,9.63-3.1,14,1.38a2.69,2.69,0,0,0,3.69.2c6.58-6,13.81-4.13,21.14-2,5.09,1.51,10.15-.73,15.62.11,6.78,1,13.32,3.7,20.35,3.63,5.17-.05,8.93,4.08,13.4,6.08a56.89,56.89,0,0,1,28.11,26.87c2.14,4.36,4.6,9.31,5.88,14.42,2.28,9.13,1.45,19,7.29,27.36,1.76,2.54,2.27,6.71,1.07,10.58-1.34,4.34-4.08,9.65,3.44,11.58,1,7.7,8.85,13.44,6,22.36a11.61,11.61,0,0,0,.62,8.79c4.25,8.25,4.44,17,2.47,25.8-1.74,7.77-3.19,15.54-3.19,23.53,0,2.34,0,4.77-1.76,6.57-2.21,2.22-2.16,4.54-1.06,7.29a10.87,10.87,0,0,1,.22,7.86c-3.87,9.61-5.16,19.89-13.05,28.39-5.42,5.83-11.86,11.63-15.6,19.21-.64,1.29-2.56,2-3.93,2.87a191.17,191.17,0,0,1-26.89,15.21c-9.54,4.28-19.82,6.55-29.63,10.23-16.91,6.35-34.49,10.74-51.56,16.79-12.6,4.47-24.95,10.05-38.85,11.39-7.51.73-16.71,1.2-22.42,8.56-.13-2.92-1.11-6.39-4.46-4.13-5.17,3.49-9.48,1.29-14.15-.21-2.49-.81-5.42-2.78-7.46-.43-3.37,3.87-9.12,4.09-11.95,8.58-1.91,3-5.79,5.43-8.34,4.59-7.33-2.42-12.12,3.44-18.2,4.18-8.5,1-15.87,8.4-25.28,4.5-.82-.34-2.45.84-3.51,1.58-9,6.31-20.09,3.1-29.71,6.64-1.55.57-3.15-.68-4.45-1.8-5.32-4.6-10.79-4.08-16.6-.82A49.54,49.54,0,0,1,1295,344c-7.07,2.26-14.85,3.72-20.72-1.3-6.9-5.89-14.85-12.29-16.58-21.52-1.45-7.74-3.93-15.31-4.52-23.29-.44-5.89-3.18-11.56-1.82-17.71.56-2.54-.93-4.19-2.56-6.06-3-3.52-5.53-7.63-5.5-12.47,0-4.23-2.52-5.49-5.77-7-5.11-2.37-11.15-3.75-15.44-1.44-6.12,3.31-13.64,6.34-16.92,12.81-5.5,10.83-10,22.22-10.06,34.81,0,8.86-1.21,17.62-.45,26.62.83,9.7,1.85,19.3,7,27.41,3.51,5.55,4.26,11,4.25,17-3.21,3.2-7.45,2.06-11.26,2.68-11.7,1.92-23.78,1.9-35,6.09-5.79,2.16-11.36,3-17.24,1.26a12.38,12.38,0,0,0-8.76.62c-5,2.37-10,1.66-14.58.53-14.29-3.52-28.74-6.17-42-13.66-7.09-4-12.72-8.49-16-15.37a180.79,180.79,0,0,1-14.93-45.81c-1.23-6.89-1.59-7.06-8.22-4.78a222.32,222.32,0,0,1-51.05,10.81c-7.25.7-13.58-3.08-20.58-2.8.61-2.9-1.21-6.19,2.34-8.69,2-1.4,2.51-4.37,3-7.1,1.94-10.4,2.15-21.56,11.45-29.13,1.38-1.12,1.1-3,1.52-4.58,3.53-13.51-5.54-24.89-18.64-29.46C959.72,230.24,952.78,232.18,946.7,229.09Zm498.39-61.14.18,0a59.59,59.59,0,0,1-.45-6c.1-4.7,1.59-5.77,5.31-3.5a63.19,63.19,0,0,1,13.58,11.45c7.81,8.5,9.73,22.78,24.11,24.92.45.07.66,1.2,1.18,1.54,10.37,6.67,19.59,15.37,34,12.51,12.19-2.42,24.47-4.13,34.29-12.35,6.6-5.54,11.17-13,16.57-19.74,8.13-10.06,7.55-15.79-2.47-24.24-4.33-3.65-6.6-3.55-7.75,1.27-3.13,13.09-13.49,18.13-24.32,22.46-5.3,2.12-12,2.59-16.31-.79-6.09-4.78-11.22-10.6-18.27-14.45-2.42-1.32-4.28-4.75-7.35-6.19-2.18-1-4.26-2.38-4.12-5.1.26-4.82-2.85-6-6.62-7.17-5.5-1.73-6.15-5-1.93-9.05,1.36-1.29,3.8-1.36,4.33-3.7,2-8.63,4.32-17.34,5.28-26,.73-6.57.8-14.66-5.31-20.29a5.3,5.3,0,0,1-2-4.39c.33-3-1-4.72-3.34-6.62-4.28-3.55-5.63-11.33-13.75-9-5.26-5.46-12.2-5.17-18.55-4.1-8.46,1.43-16.81,1.44-25.24,6.24-12.8,7.29-19.15,16.64-19.84,30.75-.45,9.2,2.1,18.37.57,27.48a14,14,0,0,0,.66,7.31c1.64,5.28,3.09,10.6,5.48,15.61-4.85,5-.06,9.28,1.74,13.23a33.18,33.18,0,0,1,3.1,11.2c.89,10.21,8.45,17,13.52,25,1.07,1.68,4,2.23,6.1,3.21,2.72,1.26,4.93.06,5.5-2.43,1.51-6.63,5.24-12.91,3.19-20.2C1445.31,174,1445.4,170.9,1445.09,167.94Zm-134.21,29.32c1.07-8.94.62-18.25-7.59-25.36-1.59-1.38-1.77-3.49-1.94-5.51-.25-3-1.68-5.24-4.77-5.49-6.52-.53-6.45-4.45-5.1-9.18,3.14-11-.28-21.65-2.77-32.1-1.23-5.18-4.87-10-8.21-14.39-2.31-3-5.74-5-9.78-6.39-7.06-2.39-13.15-.32-20,.71-10,1.48-14.33,9.11-20,14.42-5.9,5.51-8.48,14.6-12.42,22.17-1.22,2.34-3,5.2-1.35,7.5,3.54,4.81,2,10.26,2.31,15.26.72,11.58,5.63,22.52,4.74,34.25a17.46,17.46,0,0,0,4.35,12.83c1.73,2.08,2.13,4.06,2.43,6.87,1.27,11.84,5.15,22.09,16,29.65,4.77,3.33,7.89,6.16,13.7,4.23,1.31-.44,3.14,1,4.72,1,4.77-.06,9.26.76,14.39-1s9.1-5.09,13.78-7.1c9.49-4.07,14-11.52,16.24-20.8A60.2,60.2,0,0,0,1310.88,197.27Zm-213.14,33.44c3.72,2.51,6.42-5.91,8.64.49,3.31,9.56,10.82,15.55,17.22,22.67,5.86,6.52,11.94,11,21,10.4a48.24,48.24,0,0,1,7,.34c10.39.78,20.3-.57,29.48-5.94,4-2.34,7.95-4.45,10.45-8.76,9.45-16.24,10.89-34.36,11.45-52.35.28-8.95-4.58-17.89-1.39-27.2a4.12,4.12,0,0,0-.26-2c-1.87-8.45-2.86-16.92-1.3-25.56.2-1.12-.36-3.68-1.48-3-5.45,3.41-3.87-1.56-4.75-3.63-1-2.26-2.35-4.06-5-4.29-6.44-.54-10.44-8.2-17.78-6.08-.77-5.89-3.79-2.4-4.91-.73-2,3-6.9,4.67-4.91,9.88,4.95,12.9,3.06,26.67,3.94,40,.52,7.89.49,14.65,6.78,20.06,1.65,1.42,2.49,3.54,1.38,5.35-2.32,3.76-1.67,7.9-1.38,11.68.4,5.12-1.16,9.79-1.58,14.67-.62,7.17-6.93,7.46-11,7.94-5.26.62-11.42,3.58-16.49-2.3-4-4.69-4.49-10.69-7.3-15.62s-4-10.44-5.18-15.91c-.26-1.18-1.27-3.06.74-3,5.78.23,3.76-4.38,3.28-6.24-1.44-5.62-1-11.24-1.14-16.85-.3-9.95-5.36-18.37-8.7-27.3-1.34-3.58-4.68-6.49-8.41-8.25-3.44-1.62-7.17-1.48-8.26,2.53-1.71,6.33-6,12.24-5.18,18.9,1.4,11.45-2,22.31-2.83,33.47-.49,7-1.59,14.14,1.5,20.58S1103.39,226,1097.74,230.71Zm262.47-35.59c-4.94,3-5.81.26-7.34-4.52-1.41-4.41-1.43-9-3.34-13.41s0-6.77,5.18-6.8c6.44,0,10.26-2.69,13.39-8.3,2.86-5.12,7.22-9.43,11-14s2.76-8.35-3.12-8.83c-8.67-.71-17.09-.16-24.17,6.35-5.06,4.66-6.73,3.79-7.86-3.13-.32-1.93-1.09-4.81-.16-5.74,3.64-3.62.38-6-1-8.66-1.18-2.38-2.64-4.63-3.76-7-3.55-7.63-2.51-13.51,4-18.47,6-4.6,11.58-9.85,18.19-13.74,4.53-2.67,4.27-3.07-.07-6.58-8-6.49-26.38-7.31-37.3,1.38-15.31,12.2-17.07,31.11-13.1,49.13,1.83,8.3,3.08,16.76,4.74,25,2.3,11.5,5.86,22.84,7,34.56,1,10.37,11.53,16.12,12.27,26.54.05.75,2,1.72,3.21,2,4.08.87,7.6,3.23,12.43,2.39a39.55,39.55,0,0,1,11.47-.17c12.26,1.72,24.9-2.91,31.27-13,2.13-3.39,4.11-6.72,7.66-9,2.81-1.82,2.51-3.8-.17-6.32s-4.79-4.15-8.53-3.9c-8.51.58-17.33-.74-25.07,4.18C1364.84,196.39,1362.85,196.88,1360.21,195.12ZM1332.16,276c.07,9.08.68,9.59,9.31,9.72,2.13,0,3.78-.75,5.65-1.39,6.22-2.14,12.43-4.63,18.86-5.83,23.47-4.36,46.64-9.56,69.21-17.6,11.38-4.05,19.73-10.4,24.44-21.47,1-2.4,3.07-5,.85-7.37s-6.24-4.62-8.94-2.79c-5.58,3.79-12,3.1-17.94,5-10.62,3.45-21.41,6.43-32.24,9.14-9.94,2.48-20.26,3.62-30,6.66-13.19,4.11-26.86,7.65-36.1,19.66C1333.59,271.87,1330.14,272.37,1332.16,276Z" style="fill:#e8686a;"/><path d="M1214.3,1556.52c-2,1-5.21,2-2.22,4.74,2.62,2.42,4.34,4.77,4.39,8.41,0,2.11,1.57,3.36,3.26,4.67,5.6,4.35,9.92,9.6,10.43,17.13a6.4,6.4,0,0,0,.88,2.84c4.49,7.25,5.76,15.54,6.8,23.68.53,4.12.49,7.84,4.16,10.52a3,3,0,0,1,1,3.61c-2.63,5.79-.14,11.06,1.43,16.44,1.63,5.62,2.59,11.3,1.26,17.13-.54,2.38,0,4.5.82,6.77,3.52,10.07,4,20.16-.16,30.25a5.89,5.89,0,0,0-.13,3.85c1.41,4,4,8.14-2.37,10.48-.54.2-1.06,1.88-.81,2.59,3.24,9.09-1.67,17.36-2.28,26-.34,4.74-2.43,8.07-4.3,12.13-5.31,11.48-8.62,17.55-17.9,25.05-3.69,3-7.05,6.2-6.49,11.59-.82.49-2.07.77-2.41,1.49-5,10.69-17.84,12.9-24.11,22.25-.45.67-2.52.46-3.8.31-3.89-.44-6,2.36-8.5,4.44-1.92,1.58-1.53,5.43-6.17,4.74-1.83-.27-4.22,4.58-6.67,6.74-5.18,4.58-11,8.49-17.89,9.56-6.34,1-12.05,3.23-17.79,5.85s-12.56,1.1-18.24,4.51c-2.8,1.68-6.26,4.13-9,3.69-10.68-1.72-19.94,4-30.09,5-4.88.49-9.66-.34-14.62.5-11.68,2-23.61,2.48-35.46,3.32-3.75.27-7-3-11.32-1.34s-8.93,1.57-13.52,1.93c-13.86,1.08-27.6,3.15-41.62,3.33-4,.05-6.26-2.8-10.1-2.32a228.19,228.19,0,0,1-25.46,1.56c-7.18.08-14.68,1.09-20.94-4.19-1.12-.95-3.47-1.69-4.62-1.15-6,2.78-12-2.42-17.54-.15-5.78,2.38-11,.45-16.45,0-14.28-1.19-25.36-10.55-38.31-15.17-.28-.1-.72-.43-.7-.61.9-7.57-6.36-6.77-10-9.46-2.38-1.75-5.14-2.83-6.8-5.54-1.43-2.34-11.67-10.3-15.16-12.13,3-6.23-1.14-10.21-5.26-14.3,13.58-2.34,27,.86,39.47-2.51,15.66-4.22,32.08.64,47.5-5.64,4.55-1.85,10.47-.13,15.74-.47,10.85-.69,21.17-4.07,31.67-6.55a44.46,44.46,0,0,1,17.69-.64c11.7,2.22,20.88-2.45,30.38-7.24,1.34-.68,2.09-2.52,3.9-2.83,2.29-.39,4.55-1.25,5.22,2.41a83.06,83.06,0,0,0,2.79,9.55c4.58,14.71,14.62,23.29,29.49,26.83,19.3,4.59,33.91-7.66,32.1-27.24-.26-2.86-.94-5.68-1.41-8.48,3.49-1.62,5.57.4,6.78,2.65,3.7,6.83,10.76,9.59,16.23,14.27,2.85,2.44,5-.19,7.39,0a46.53,46.53,0,0,0,35.58-12.68c.85-.78,2.58-.53,3.66-1.18,6.35-3.79,9-10.18,7.89-17.74-1.39-9.36-1.25-19.15-9-26.27,2.74-3.09,6-3.81,8.56-3.24,7.66,1.7,14.1-1.12,20.56-4.34,6.69-3.33,13.16-6.75,17.75-13.21,5.05-7.1,4.85-13.86.5-20.82-4.13-6.6-8.13-13.49-17.11-14.45a8.15,8.15,0,0,1-2.8-1c-4.44-2.34-4.53-5.34,0-8,4.23-2.47,9-3.58,13.35-6.21a52.09,52.09,0,0,0,12.12-10.09c9-3.87,11.94-10.19,8.91-19.16a5.17,5.17,0,0,0,.5-4.31c4.36-4.42-4-4.67-2.84-8.56.44-1.48-2.51-2.36-4.57-1.65a7.67,7.67,0,0,0-6.26-1.05c-3.38-3.18-8.23-3.91-11.69-6.75-5.78-4.74-11.7-4.05-17.94-1.64l-4.23,0c-1.28-2.59-2.5-.92-3.73,0a6.66,6.66,0,0,0-6.15,1.58c-2.07-1.22-4.09-1.75-5.89.46-3.7-.49-7.22-.21-10.11,2.53-4.47.37-9.21-.68-13.15,2.5l-.56-.06-.34.44c-7.59,2.6-7.59,2.6-9.52-3.82a5.19,5.19,0,0,0,1-4.19c1.75-1.72,4.28-2.82,4.59-5.71l.59-1.78c4.71-2.75,7.24-6.5,5.82-12.22a21.56,21.56,0,0,1-.54-4.88,18.54,18.54,0,0,0-15.43-18.48c-9.28-1.63-17.52,1.89-25.61,5.46-4.35,1.92-9.18,4-9.92,9.84a3.07,3.07,0,0,0-1.48,2.69c-1.88,2.43-5,3.86-5.7,7.25-2.41,5.1-9.9,6.2-10.18,13-4.82,6.28-10.59,11.83-14.49,18.8a8.42,8.42,0,0,1-5.27,4.07c-9.18,3-18.23,6.36-27.44,9.24a17.58,17.58,0,0,1-8.85.73c-4.47-1.06-8.88-.14-12.65,1-6.52,2-13,2-19.59,2.46-1.63.11-3.45-.2-4.87.42-12.74,5.55-26.76,2.82-39.94,6.63-15.55,4.5-32.18,4.57-47.41,11.2-6.26,2.72-13,.25-19.12-2.53-4.68-2.14-2-7.22-3.6-10.72-.91-2-.58-4.54-.69-6.84s-.35-5-2.57-6.17c-4.36-2.34-7-6.75-11.91-8.59-5.41-2-6-2.26-6.41,3.87-.92,12.66,2,24.88,4.56,37.17,1.1,5.17,4.51,7.06,8.48,8.67,2.71,1.1,4.93,1.39,7.35-2.09,1.31-1.88,1.39,5.56,5.54,4.34,1-.28,2-.24,2.94-.53,3.58-1.07,7.21-.54,10.84-.67,24.17-.88,48.62.15,71.6-9.7,1.69-.72,3.93-.51,5.86-.27,3.21.41,6.37.19,9.66,1.54,2.89,1.19,4.3-3.91,7.53-4.48,2.6-.45,5.23-1.63,7.8-.5,2.82,1.24,5.09.22,7.57-.87a43.78,43.78,0,0,1,20.46-3.54c5.92.36,11-1.69,16.29-3.57,5.7-2,10.31-6.46,16.61-7.23a3.7,3.7,0,0,0,3.53-4c0-4.44,4.61-5.94,6.78-4.82,4.51,2.33,6.14-.51,8.28-2.8,8.69-9.33,17.51-18.55,24.67-29.17,3.56-3.44,7.24-6.58,9.58-11.28,2.78-5.59,9-7.41,14.23-10.08a3.19,3.19,0,0,1,2.71.47c1.18.87,1.08,2.32.75,3.66-.07.27-10,13.62-10.24,14a28,28,0,0,0-1.95,3.46c-2.65,6.11-5.63,12.11-7.72,18.4-1.51,4.53-3.67,9.66,1.44,13.76.82.66,1.23,1.91.31,2.5-7.37,4.76,2.94,7.32,1.55,11.68-.4,1.25,10.76.36,12.53-2.43,2.07-3.28,2.93-7.89,8.51-4.19.6.4,2.75-1.45,4.14-2.34,4.69-3,9.1-6.48,15.2-6.39,3.81.05,5.31-3.7,7.76-5.85,3,4.27,6.51.93,9.89.79,14.66-.64,29.6-3.35,43.67,4.91a52.72,52.72,0,0,1-20.49,13.14c-1.85.62-3.44,2-5.19,2.93-5.15,2.79-9.91,5.46-16.36,6.09-12.52,1.23-21.61,9.11-27.74,20.08-2.82,5-1.71,7.1,3.9,8.41a14.46,14.46,0,0,0,6.83-.36c5.87-1.36,11.68-.55,17.67.28,7.94,1.1,15.14,4,22.57,6.49,3.74,1.25,6.92,3.34,6.87,7.5s-3.92,6.18-7.16,7.49c-2.62,1.06-6,1-8.85.62a280.52,280.52,0,0,0-46.45-2.21c-2.64.08-5.91-.85-7.77.38-3.67,2.43-8.2,2.61-11.63,5.57-5.85,5-5.54,10.47,1.52,13.63,3.27,1.46,6.37,3.27,10.1,4,4.12.81,9.45.44,11.05,6.26.17.63,1.66,1.18,2.59,1.29,11.68,1.35,11.36,11.3,13.88,19.22,1,3.06-1.41,4-3.29,5.33-5.93,4.16-13.22,4.15-19.76,6.42-1.88.65-3.68-.34-5.19-2.08-5-5.8-11.15-10.32-17.58-14.46-1.13-.73-25.16-11.51-26.28-11.63-6.27-.67-10.35,4.7-7.56,11.28,4.49,10.59,5.71,21.65,6.57,32.87.23,3,.88,6.23-2.68,7.73-3,1.25-5.66,2.44-9.31.4-2.92-1.63-4.6-6.24-9.26-4.58-1.89.67-1.88-1-2.12-2.31-1-5.56-4-10.66-5-16-1.13-6.26-7.92-8.53-8.34-14.8-.1-1.53-2.36-2.13-4.11-2.22-2-.1-4-.12-6-.29-9.42-.79-9.42-.8-12.11,7.77-3.54.39-2.13-3.76-4.2-4.61-2.6-1.07-4.12,1.61-6.37,2a116.62,116.62,0,0,1-25.62,1.93,140.9,140.9,0,0,0-32.51,2.84c-12.14,2.52-24.81,2.52-36.79,6.45-2.46.81-5.52,0-7.35,2.47-1.27,1.7-2.41,2.14-3.78.25-2.78-3.85-6.57-2.92-10-1.65a76.21,76.21,0,0,1-31.2,4.95,23.18,23.18,0,0,0-12.54,2.7c-4.08,2.24-7.65,4.79-11.88.68-14.4,1.33-24.79-9-37.32-13.15-6-2-10.7-7-13.77-13.54-3-6.38-8.37-11.58-12.16-17.65a230.42,230.42,0,0,1-12-21.54,61.73,61.73,0,0,1-6.28-24.73,330.94,330.94,0,0,0-4.09-45.83c3.3-4.86-.65-9.36-.69-14a83.74,83.74,0,0,0-1.74-14.82c-1-5.11-.32-10.36-1.06-15.65-1.09-7.76.49-15.84-.62-23.81a7,7,0,0,1,2.39-6.3c2.89-2.12,2.76-3.43-.55-4.57-2-.7-1.85-2.28-1.82-4,.06-4-.74-8.06-.09-11.92,2.14-12.62-.95-24.92-1.39-37.35-.61-17-.44-34.09,2.28-51.05a125.88,125.88,0,0,0,1.34-24.76,36,36,0,0,1,1-10.68q2.82-10.89,5.92-21.71c.8-2.78,1.29-5.48,4.16-7.57,4-3-.37-8.82,3.44-12.6,3-2.94,6.54-5.89,6.33-10.87-.07-1.66.1-3.33.15-5,2.11-.25,3.57-1.48,5-3,2.52-2.6,4.28-5.73,7.24-8.13,9.91-8,22-5,33-7.35a3.24,3.24,0,0,1,3.54,1.33c2.45,4.13,5.8,3.44,9.56,2.3,5.36-1.63,9.83-.76,14,3.84a34.16,34.16,0,0,1,8,13.58c3,10.53,8.09,21,2.61,32.25,5.68,8.4-2,18.27,3.23,27.24,1.84,3.12,4,9.47.75,13.26-3.68,4.32.88,7.93-.77,12.32-2.68,7.12,1,15.14.21,22.56-.84,7.65-2.75,15.33-2,23,.31,3.33-2.17,7,.08,9.55,3.7,4.24,1.19,8.11.3,12.09-.33,1.49-1.61,2.53-1.21,4.5,1.88,9.12.54,18.39.73,27.58.19,9.59-.44,19.19-.54,28.78-.1,10.48.72,21-1.42,31.39-.35,1.69-.68,4,1.93,5.78,4.62-4.26,11.31-2.84,16.76-5.38,6.28-2.93,11.83-6.66,19-8.59,7.86-2.12,14.91-7.82,23.74-8.24a9.86,9.86,0,0,0,3.77-1.21c11-5.53,22.23-9.93,34.93-8.52,1.23.14,2.57-.53,3.83-.91,9.74-3,19.93-4.14,29.27-8.95,4.5-2.32,10.68-.88,15.42-4,7.13,3.76,13.53-.26,20.36-1.4,6.09-1,11.08-4.51,16.85-5.64a256.2,256.2,0,0,1,36.23-4.55,38.26,38.26,0,0,0,16-4.33,14,14,0,0,1,7.56-1.66c12.29.55,24.39-1.65,36.58-2.43,3.27-.21,6.87-2.51,8.85-2,4.17,1,6.89,1,9.39-2.53.67-1,1.78-.44,2.72-.11,9,3.19,18.49,1.49,27.1-.34,6.54-1.38,13,1.53,19.11-1.5,8.92,3.78,18.4,2.9,27.68,3,7.61.06,15.46,1.69,22.83-.68C1199.28,1555.43,1206.69,1555.47,1214.3,1556.52Zm11.13,158.83c-.88.06-1.21.51-.85,1.27a1.32,1.32,0,0,0,.73.59c.73.24,1.36-.09,1.3-.84C1226.58,1716,1225.84,1715.68,1225.43,1715.34Z" style="fill:#f3bb1c;"/><path d="M946.7,229.09c6.08,3.09,13,1.15,19.3,3.35,13.09,4.57,22.17,16,18.64,29.46-.41,1.58-.14,3.46-1.52,4.58-9.3,7.56-9.51,18.73-11.45,29.13-.51,2.73-1,5.7-3,7.1-3.55,2.5-1.73,5.78-2.34,8.69-1.11,2.42-2.56,4.65-2.89,7.4-1.53,13-.38,26-.93,39-.29,6.9,1.45,13.8-.24,20.67-1.92,7.84.05,16-1.75,23.81-2,8.58,6.34,15.4,3.73,24-.34,1.11.77,1.76,1.71,2.11,4.4,1.61,5.21,5.9,6.65,9.44a104.52,104.52,0,0,0,12.09,22.22c1.11,1.53,3.11,2.57,3.1,4.88,0,7.8,5.41,13.81,7.25,21.18,1.14,4.56-.43,9,1.62,13.4,6.29,13.48,4.41,27.67,2.57,41.77a3.39,3.39,0,0,1-2.2,3c-4.88,1.78-6.39,6.32-8.65,10.31-3.06,5.39-5.25,11.87-9.68,15.76-8.3,7.29-13,16.63-18,25.9-3.19,5.95-4.69,12.37-1,19,1.81,3.3,1.32,7.14,1.35,10.8,0,2.31-.54,5.13.55,6.84,3.47,5.44,3.17,11.64,4.73,17.28,2.72,9.8,8.36,18.93,12,28.73.87,2.36,2.24,4.44,2.89,7.11,2.2,9.08,0,18.14.39,27.19.13,3.09,2.27,6.36.17,9.62-5.5,8.53-7.25,18.51-10.54,27.89-.63,1.79-2,3.22-1.34,5.56,1.43,4.9-.36,9.7-1.13,14.53-2,12.77-9.49,24.81-5.22,38.44-2.57,8.65.91,15.46,6.47,21.74,2.57,2.9,4,6.1,1.34,9.89-2.27,3.25-1.53,6.42,1.2,8.94,3.19,2.95,4.59,6.76,3.61,10.58-1.48,5.75,1,8.83,5.51,11.26,0,.69,0,1.37,0,2.07-.52,1.91-1.85,3.69-1,5.83-.83,1.87-1.43,3.68-.14,5.66,1.58,2.44,1.23,5.07.48,7.72-3,10.75-5.26,21.57-3.43,32.84.36,2.24-1.52,3.47-2.74,5a74,74,0,0,0-11.72,22.68c-3.72,11.14-8.61,22.26-19.9,29.29-5.24,3.26-8.44,9.9-12.33,15.19-4.05,5.51-9.52,9.11-15.52,12-7.43,3.53-15.49,4.92-21.06,12.82-3.22,4.56-10.34,9.15-18,4.83a6.37,6.37,0,0,0-3.92-.44c-10.32,1.77-20.16-2.27-30.36-2.46-5.5-.1-10.34-4.39-16.17-4.34-.31,0-.87-.17-.89-.31-1.27-11.77-15.71-7.62-19.66-16.26-1.19-2.61-4.17-3.94-4.78-7.33a29.64,29.64,0,0,0-9-17.12c-8.47-7.73-8-18.63-10.15-28.6-1.58-7.26-3-14.33-3.06-22-.1-7.15-1.1-15-5-22-2.37-4.3-2.12-9.79-1.5-14.7.66-5.32,1.48-10.47-.14-15.76a5.09,5.09,0,0,1,1.24-5.56c3.18-2.76.51-5.5.13-8.24,1.1-1.22,3.27-2.62,3.12-3.67-.89-6.1,1.83-11.46,2.67-17.12A144.87,144.87,0,0,1,789.1,806.1c1.84-4.32,4.64-8.37,4.73-13.39a19.17,19.17,0,0,1,3.51-10.24c7.14-10.43,10.94-22.45,16-33.76,5.72-12.72,5.8-27.1,7.44-40.9.25-2.13-1-4.54-1.85-6.68-5.37-12.95-12.74-25-17.13-38.39-4-12.08-8.73-23.68-7-37.3.89-7.21.4-15,1.37-22.4.63-4.83.52-10.26,6.86-12,1.86-.51,2.12-2.35,2.25-4.05a31.29,31.29,0,0,1,10-20.77c.7-.67,1.77-1.63,1.69-2.35-.85-7.78,6-10.47,10.06-14.69a23.08,23.08,0,0,0,6.9-15.9c.56-12.57-.16-25.11-.22-37.67,0-8.79-4-16.75-5-25.4-.41-3.54-4.46-7.24-7.72-9.71-3.8-2.88-5.39-6.46-6.67-10.67-.66-2.17-1.17-4.4-2.73-6.34-6.58-8.19-7.48-17.93-5-27.44,1.48-5.75-1.67-12.49,4-17.54,1.15-1-1.16-4.74-1.35-7.45-.56-7.65,3.16-14.31,5.38-21,2.73-8.18,5.15-16.48,7.47-24.75,4.55-16.2,13.78-29.61,23.42-43,5.2-7.2,9.26-15.17,16.26-21,7.43-6.23,12.8-14.53,20.58-20.54,7.63-5.9,16-10.62,23.55-16.74,5-4.1,11.9-5.46,18.23-7.26C931.76,234.59,939.5,232.64,946.7,229.09ZM911,870.7c5.22-6.8,4.41-15.27,6.18-23.15-7.62,5.88-9.94,14.19-10.84,23.19-6.47,10.56-8.82,22.65-12.7,34.17-.78,2.32-3.35,5.13-.25,7,2.35,1.43,5.19.05,7.12-2.06,1.54-1.69,3.5-3.35,4.22-5.39C908.57,893.56,911.6,882.45,911,870.7ZM892.86,402.49c3.06-2.61,3.13-6.47,3.75-9.93,1.16-6.44,3.43-12.84,1.61-19.54,5.52-7.24,3.87-16.71,7.64-24.5.74-1.52,1.36-3.54-.4-4.43-2.52-1.27-3.67,1.14-4.27,2.87-3.65,10.65-7.21,21.33-10.55,32.08-1.57,5-2.57,10.26-3.82,15.4-.42,1.74-.19,3.29,1.43,4.37-.86,4.9-7.23,8.42-3.59,14.48a1.87,1.87,0,0,1-.33,1.79c-7.86,4.4-6.1,12.76-7.45,19.46s-2,14.06-.14,21.36a13.8,13.8,0,0,0,9.09-10.6C888.71,431.15,893.89,417.3,892.86,402.49Zm-3.29,273.76a49,49,0,0,0,0-6c-.44-3.52-2-6.48-5.78-7.24-4.18-.85-4.59,2.9-5.87,5.45a24.13,24.13,0,0,0-1.66,3.62C866.69,703,853.44,732.55,842.8,763c-4,11.53-7.14,23.34-10.39,35s-3.34,24.57-4.71,36.92c-.63,5.71.21,11.31,4.61,15.26,1.64,1.47,9.22-6.57,10.88-11.86,4.34-13.75,9.23-27.38,12.58-41.38,3.23-13.52,9-26.16,12.64-39.51.88-3.19.06-6.52,1.56-9.26,4.18-7.67,6-16,7.59-24.44.3-1.59.26-3.13,1.09-4.71C885.64,705.68,888,691,889.57,676.25ZM905.18,750c-1.56,5.31-1.82,10.57-3.86,15.46-9.93,23.9-19.45,48-29.83,71.69-6.78,15.49-11.42,31.13-9.79,48.2.46,4.85-.51,12.07,5.26,12.41s7.4-6.75,8.18-12c1-6.55,4.67-12.49,4.1-19.34,8-8.62,8.55-20.52,12.69-30.74a326.31,326.31,0,0,0,18.13-61A32.41,32.41,0,0,0,905.18,750Zm20.5-349.67a6.5,6.5,0,0,0-5.49,6c-.34,3.81-2.44,6.85-3.79,10.16-5.45,13.38-11.2,26.61-13.58,41a24.93,24.93,0,0,0-.59,6.86c.15,1.3.27,2.74,1.87,3.13a3.85,3.85,0,0,0,3.6-1.15c4.13-3.89,5.14-9.32,6.15-14.38a415.16,415.16,0,0,1,11.89-44.89C926.45,404.91,927.59,402.77,925.69,400.36Z" style="fill:#4eb8cb;"/><path d="M1057.71,1443.51c-1.56-.29-3.07-.35-4.23,1-13.79-4.16-27.85-3.07-41.9-2.09-1-4-4.49-4.63-7.73-5.2s-6.89-1.12-9.28-3.31c-6.7-6.15-15-10.47-20.48-18-1.32-1.81-2.12-3.82-4.11-5.41-9.08-7.24-17.63-15-21.58-26.52-.74-2.16-2.25-4.05-3.36-6.09-3.93-7.26-7.79-14.47-9-22.89a35.48,35.48,0,0,0-7-16.31c-3.28-4.32-4.33-9.37-4.82-14.89-.74-8.36,2.48-16.5.72-24.8,2.56,0,4.94.63,7.71.22,9.09-1.36,19.19-4.49,27.27-1.89,10.35,3.33,19.8-.31,29.61.75,4.88.53,11.53-3.66,15.15-.86,6.64,5.13,9.87-2.12,14.77-2a6.07,6.07,0,0,1,2.82.78c2.74,1.65,5,.29,7.48-.75,3.35-1.4,6.84-2.45,10.27-3.64,0,1.42.56,2.6,2,2.22,1.26-.32,1.49-1.81,1.63-3.06l4.33-1.17c8.21,5.21,16.77,5.4,25.27.54l4.87-.7c0,.66-.24,1.85-.09,1.9,2.93.93,7-1,8.39,3.86.21.75,1.44-.29,2-1.13,1.68-2.45,4.86-1.88,7.07-3.29a1.39,1.39,0,0,0,2,.22c3.14-2.55,8.28.5,10.77-3.85a.82.82,0,0,0,1.19-.67l6-1.46c1.27,3.35,3.07,5,6.5,2.24,2-1.61,4.24-3,6.37-4.52-.12,2-.78,6.17,2.37,4.06,7.15-4.78,13.61-2.23,20.41-.32,3.34.94,3.33,1,3.44-4,2.06.24,3.57-.85,5-2.11a27.68,27.68,0,0,0,2.55,3.62c1.51,1.57,2.55.74,3.19-1l3.23,1.56-.17,1.83v-1.83l3.21-2.21c1.1.62,2.56,1,3.23,1.9,3,4.14,4.8,2.59,6.38-1.05,4.91,3.41,10.38,1.87,14.53-.36,4.79-2.58,10-2.94,13.19-.55,4.22,3.13,7.77,1.77,11.06.63a114.55,114.55,0,0,1,17.32-4.28c6.8-1.24,12.17-4.61,14.62-11.82,1.25-3.68,1.82-8.41,7.07-9.26,7.26-12.86,20.28-22.76,20.21-39.44,0-1.45,1.38-3,2.32-4.33,1.33-1.94,2.89-3.89,2.67-6.3-.59-6.57,2.13-12.36,4.09-18.29,1.37-4.15,3-8.6,2.32-12.61-1.51-8.46.55-16.51,1.26-24.7.35-4,.52-7.9.66-11.87.44-12.23.45-24.45.62-36.68.34-24.76,4.3-49.37,3.6-74.23-.09-3.31-1-6.46-.79-9.82a329.38,329.38,0,0,0-.66-54.28,19.59,19.59,0,0,1,9.67,1.2c8.5,2.86,17.56,3.51,26.36,3.17,13.72-.53,27.4-.79,41.11,0,13.53.76,26.8,3.82,40.33,4.68,3,.19,5.65-1.05,8.78-.58,12.14,1.82,24.39,1,36.58.09,5.67-.44,13.34-.32,16.57,1.06.1,12.58,1.12,25.09-1.37,37.7-1.38,7,.13,14.45.11,21.7,0,8.87-2.51,17.66-2.37,26.39.2,12.47-2,24.78-.9,37.35a108.73,108.73,0,0,1-1.8,30.57c-2.95,14.7-3,29.47-3.48,44.26a46.81,46.81,0,0,1-1.67,12.71c-3.39,11-1,22.51-2.87,33.6-2.62,15.44-5.66,30.69-11.66,45.44-5.6,13.76-9.06,28.41-13.14,42.76-3.63,12.79-10.51,23.58-19.52,33.11a72.54,72.54,0,0,0-12.94,18.57c-2.93,6-6.77,12-13.51,15.93-9.33,5.44-17,13.73-26.42,19-15.81,8.92-31.54,18.09-48.13,25.59-5.08,2.3-10.27,4.26-15,7.58a20.65,20.65,0,0,1-13.16,3.77c-.66-.05-1.46-.43-2-.18-10.1,5-22.07-.58-32,5.85a12.09,12.09,0,0,1-8.65,1.56c-5-1-9.93.28-14.85,1.15-5.29-1.3-10.53-.59-15.75.49-2.75-2.73-5.44-1.75-8.13.12-4.84-.06-9.68,1-14.54-.26a5.38,5.38,0,0,0-5.28,1.86l-4.34-.13c-1.94-2.76-4.76-3.29-7.87-3.08-2.8-1.68-5.45-1.26-8,.57-12.34-1.89-23.75,1.87-35.14,5.74l-2.7.3-2.53-3.62c-3.59,4.52-9.33,1.51-13.55,3.85a5.58,5.58,0,0,0-5.85-.68c-2.21-1.47-4.35-2.37-7.09-.9a54.5,54.5,0,0,1-7.12,2.68c-4-5.58-8-2.88-12,0A37.31,37.31,0,0,0,1057.71,1443.51Zm303.21-201.89c1.85,2.59,4.39,4.49,5.22,8.09,3.24,14.21,6.06,28.41,5.22,43.11-.13,2.34-1,4.21-3.11,4.29-1.65.07-2.66-2-2.68-3.7-.15-10-7.68-13.07-15.12-16.15-2.75-1.14-5.91-1.4-8.51-2.77-8.07-4.23-14.7-1.27-21.06,3.64-1,.81-1.82,2-2.88,2.75-9.37,6.93-10.83,19.76-3.39,28.85,6.78,8.28,14.8,13.62,26,14.15,9.14.43,11.15,4.39,6.14,12.18-5.67,8.81-13.65,15.59-22.57,21.17a5.5,5.5,0,0,1-3.75.69c-10.49-1-19.72-5.23-28.24-11.16a10.41,10.41,0,0,1-4.2-6.62c-1-5.68-4.35-10.43-5.49-16a12.66,12.66,0,0,0-6-8.24c-3.15,3.06-2.37,6.75-2.78,9.86-2.37,18.24,7.54,37.24,24.39,43.54a88.68,88.68,0,0,0,13.23,4.06c5.91,1.19,13.08,2.1,18.23-.19,12.55-5.59,23.14-14.13,30.49-26.41,4.54-7.6,8.1-15.25,9-24.07.28-2.7,2.24-3.62,4.57-4.59,6.56-2.74,11.42-8.05,11.95-14.77,1.16-14.85,6.79-30.21-2.87-44.44a3.68,3.68,0,0,1-.72-2.76c2.22-5.78-2-9.25-4.57-13.29C1372.77,1235.53,1367.92,1235.15,1360.92,1241.62Z" style="fill:#f3bb1c;"/><path d="M1206,371.82c0-6-.74-11.43-4.25-17-5.14-8.11-6.16-17.71-7-27.41-.77-9,.42-17.75.45-26.62,0-12.59,4.56-24,10.06-34.81,3.28-6.47,10.81-9.49,16.92-12.81,4.29-2.32,10.33-.93,15.44,1.44,3.24,1.5,5.79,2.76,5.77,7,0,4.84,2.45,9,5.5,12.47,1.62,1.88,3.12,3.52,2.56,6.06-1.36,6.15,1.39,11.82,1.82,17.71.59,8,3.07,15.56,4.52,23.29,1.73,9.24,9.68,15.63,16.58,21.52,5.88,5,13.66,3.55,20.72,1.3a49.54,49.54,0,0,0,9.18-3.76c5.81-3.26,11.29-3.78,16.6.82,1.3,1.12,2.9,2.38,4.45,1.8,9.62-3.54,20.73-.33,29.71-6.64,1.06-.75,2.69-1.92,3.51-1.58,9.42,3.9,16.78-3.45,25.28-4.5,6.09-.75,10.87-6.61,18.2-4.18,2.54.84,6.43-1.56,8.34-4.59,2.83-4.49,8.58-4.7,11.95-8.58,2-2.35,5-.38,7.46.43,4.66,1.51,9,3.7,14.15.21,3.35-2.26,4.33,1.21,4.46,4.13-2.86,4.77,2.91,4.89,4.08,7.51,1.4,3.13-4.17,5.88-.45,9.05,3.16,2.69,2.46,6.64,3.54,10,2.39,7.54-.71,15.73,3,23.07a1.92,1.92,0,0,1-.37,1.8c-7.06,3.34-2.51,8.13-.52,11.09,4.59,6.8,2,15.44,6.79,22.15,1.81,2.55-1.22,6-.59,9.6,2.36,13.56,2,27.53,6.53,40.8,1.57,4.61-.51,9.51-.12,14.46.43,5.47,1,11.12,1.26,16.69a41.93,41.93,0,0,1-1.22,11.6c-2.52,11.28-2.78,22.66,2.86,33.37-1.75,5.37-.51,10.58.86,15.78l1.51,4.24c-.74,1.3-1.52,2.6-.51,4.12l1.57,8.19c-1.48,3.08-2.32,6.2-.7,9.51-.29,2.3-.06,4.46,1.69,6.2-3.09,10-.25,19.76,1,29.59a3.77,3.77,0,0,0,.92,4.38c-.64,3.26-4.33,6-1.59,9.83a5.63,5.63,0,0,0,1.44,4.15c-.13,5.25.49,10.49-.66,15.75-.54,2.48-.94,5.36.31,7.86,3.64,7.27-.58,14.67.46,22.14.83,6-.36,12.28,2.74,18a5.43,5.43,0,0,0,1.3,4.48c-5.48,6.87-3.82,15.35-5.17,23.15-.43,2.49,1,4.31,2.67,5.93.14,3.58-2.28,7.26.4,10.75-1.46,2.47-3.16,4.91-1,7.86-.79,1.64-.15,2.93,1,4.07-2.14,13.82-5.28,27.56-3.21,41.71-10-.58-19.7,6.46-29.85,1-.23-.13-.65.05-1,.13-11.33,2.77-22.82.57-34.1.18-11.56-.4-23,0-34.51.25-16.72.37-33.64,3-49.84-3.61-4.63-1.89-8.45.28-12.24,2.1-3.26,1.57-6.1,4-9.31,5.71-4.06,2.17-8.3,4.18-12.78.8,2.61-8.83.8-17.88,1.18-26.81.5-11.59.41-23.25-.16-34.84-.58-11.77,3.1-23.62-.77-35.31a5.68,5.68,0,0,1-.41-2.94c2.05-8-.78-15.62-2.12-23.33-1.42-8.14-4.79-16.41-4.1-24.34a259.08,259.08,0,0,0-.14-44.22c-.28-3.38-1.11-7.37.59-9.7,3.07-4.18,2.65-7.7,1-12-1.35-3.5-.63-7.35-.1-10.89,1.29-8.57,2.32-17.09,1.18-25.75-.43-3.28-1-6.56-1.15-9.85-.48-8.09,1.65-16.61-4.25-23.77a3.28,3.28,0,0,1-.37-2.71c2.15-6-3.14-14.68,6.28-18.21.19-.07.29-.6.29-.92.13-9.9,3.78-19.65,1.11-29.68-3.34-12.56-6.12-25.54-4.34-38.31,1.17-8.37-1-16.31.08-24.45.46-3.58-1.89-4.61-4.8-2.07a15.35,15.35,0,0,1-9.87,4.1c-14.18.57-28.38,1.73-42.33-2.27-7.9-2.27-14.24-6.61-17.55-14.19C1212.07,376.57,1209.11,374.24,1206,371.82Z" style="fill:#f3bb1c;"/><path d="M924.87,1299c1.77,8.3-1.46,16.44-.71,24.8.49,5.51,1.53,10.56,4.82,14.89a35.48,35.48,0,0,1,7,16.31c1.26,8.42,5.12,15.63,9,22.89,1.11,2,2.62,3.93,3.36,6.09,4,11.51,12.5,19.29,21.58,26.52,2,1.58,2.78,3.59,4.11,5.41,5.49,7.52,13.78,11.84,20.48,18,2.39,2.19,6,2.72,9.28,3.31s6.7,1.18,7.72,5.17c1.51,5.35,6.18,5,10.14,5.06,6.41.12,12,1.41,17.54,5.19,2.94,2,6.31,4.83,10.49,5q-.08.83.75.82c.23,1.77,0,4.72,2.81,3.35,3.79-1.84,6.79.5,10.15.74,7.23,5.13,14,11.49,24.09,9.18,1.12-.26,2.64.42,3.76,1,8.63,4.79,17.34,9.47,25.78,14.57,10.38,6.27,20.43,12.95,32.34,16.36a70.35,70.35,0,0,1,18,8.29c5,3.16,10.91,4.94,16,7.65,9.65,5.18,20.81,8.54,27.87,17.84,4.34,5.73,7.88,11.72,3.06,19-7.63-1-15-1.07-22.59,1.36-7.37,2.37-15.22.74-22.83.68-9.28-.07-18.76.81-27.68-3-6.08,3-12.57.12-19.11,1.5-8.61,1.82-18.06,3.52-27.1.34-.94-.33-2-.85-2.72.11-2.5,3.57-5.21,3.55-9.39,2.53-2-.48-5.57,1.82-8.85,2-12.19.78-24.29,3-36.58,2.43a14,14,0,0,0-7.56,1.66,38.26,38.26,0,0,1-16,4.33,256.2,256.2,0,0,0-36.23,4.55c-5.77,1.13-10.76,4.62-16.85,5.64-6.82,1.14-13.23,5.16-20.36,1.4-4.74,3.11-10.91,1.68-15.42,4-9.34,4.8-19.53,6-29.27,8.95-1.26.39-2.6,1-3.83.91-12.7-1.41-23.94,3-34.93,8.52a9.86,9.86,0,0,1-3.77,1.21c-8.84.42-15.88,6.12-23.74,8.24-7.15,1.93-12.7,5.66-19,8.59-5.45,2.54-12.14,1.12-16.76,5.38-2.61-1.78-2.28-4.09-1.93-5.78,2.14-10.41,1.32-20.91,1.42-31.39.09-9.6.73-19.2.54-28.78-.19-9.2,1.16-18.46-.73-27.58-.41-2,.87-3,1.21-4.5.9-4,3.41-7.85-.3-12.09-2.24-2.57.23-6.23-.08-9.55-.71-7.64,1.19-15.31,2-23,.82-7.42-2.88-15.44-.21-22.56,1.65-4.39-2.91-8,.77-12.32,3.23-3.79,1.09-10.14-.75-13.26-5.28-9,2.45-18.84-3.23-27.24,5.47-11.25.34-21.73-2.61-32.25a34.16,34.16,0,0,0-8-13.58c-4.15-4.6-8.62-5.48-14-3.84-3.77,1.15-7.11,1.83-9.56-2.3a3.24,3.24,0,0,0-3.54-1.33c-11,2.36-23.12-.66-33,7.35-3,2.39-4.72,5.52-7.24,8.13-1.44,1.49-2.9,2.72-5,3-1.4-2.89,4.08-6-.28-8.86-.84-.56-.62-1.82.24-2.55C716,1358,718.6,1350,722,1342.72c2.66-5.67,6.51-8.3,12.45-7.37,2.95.46,4.81.43,6.33-2.58s4.18-3.54,7.54-3.53c6.24,0,12.59-1.83,18.71.18,5.7,1.88,8.08-.46,9-5.64,3.61,3.07,7,6.24,12.52,5.32,2.36-.4,4,2,6,3.22,10.63,6.57,22.49,11.48,32.44,18.56,9.45,6.73,17.11,6.46,26.4,2.74a4.81,4.81,0,0,1,2.9-.47c11.48,3.73,17-3.86,23.23-11.34,4.2-5.07,8-10.38,12.14-15.44,4.86-6,6.34-12.19,6.13-19.29-.26-8.33,2-15.73,7.64-22,4.3-.17,7.85,2,10.66,4.64C919.16,1292.66,921.43,1296.4,924.87,1299Z" style="fill:#2c8799;"/><path d="M784.75,1821.53c3.49,1.83,13.73,9.79,15.16,12.13,1.66,2.71,4.42,3.79,6.8,5.54,3.66,2.7,10.93,1.89,10,9.46,0,.18.42.51.7.61,12.95,4.62,24,14,38.31,15.17,5.45.46,10.67,2.39,16.45,0,5.49-2.26,11.51,2.93,17.54.15,1.15-.53,3.49.21,4.62,1.15,6.26,5.28,13.76,4.27,20.94,4.19a228.19,228.19,0,0,0,25.46-1.56c3.83-.48,6.12,2.38,10.1,2.32,14-.19,27.76-2.25,41.62-3.33,4.59-.36,9.32-.33,13.52-1.93s7.57,1.6,11.32,1.34c11.85-.84,23.78-1.36,35.46-3.32,5-.83,9.74,0,14.62-.5,10.15-1,19.41-6.68,30.09-5,2.75.44,6.21-2,9-3.69,5.68-3.41,12.5-1.88,18.24-4.51s11.45-4.88,17.79-5.85c6.91-1.07,12.7-5,17.89-9.56,2.45-2.16,4.84-7,6.67-6.74,4.65.69,4.25-3.16,6.17-4.74,2.54-2.08,4.61-4.88,8.5-4.44,1.28.15,3.36.35,3.8-.31,6.27-9.34,19.1-11.56,24.11-22.25.34-.72,1.59-1,2.41-1.49,1.7,3.28,2.48,5.85-.14,9.79-4.76,7.13-9.31,14.39-14.31,21.39-2.8,3.92-4.19,8.91-5.93,13.53-4.06,10.81-13.49,18-18.84,27.93a14.54,14.54,0,0,1-6.24,6.22c-10.57,4.65-15.93,13.25-19.08,23.67-6.08,20.09-14.37,39.4-21.39,59.15-4.44,12.5-8.86,25.35-15.06,37.05-5.86,11.06-10.5,22.59-15.42,34-7.23,16.69-17.29,31.82-24.81,48.29-2.59,5.67-6.28,10.1-13.47,9.23a3.19,3.19,0,0,0-3.49-1.13,184.11,184.11,0,0,1-28.15,4.52c-5.53.37-13.09-1.08-16.49,6.29a73.46,73.46,0,0,1-8-.48c-7.78-1.28-8.09-1.89-8.15-10.09,0-2.27-.18-4.87-1.26-6.76-8.91-15.55-9.25-31.81-4.82-48.67,1.23-4.69-.36-9.55.49-14.52,1.14-6.71,3.07-13.15,4.42-19.73a120.88,120.88,0,0,0,2-25.45,161.9,161.9,0,0,1,1.73-25.76c1.43-9.59,1-9.75-8.52-10.29-11.63-.66-22.55-4.88-33.85-7.25-2.23-.47-4.36-1.49-6.73-1.58-5.72-.22-8.13,1.16-9.29,6.59-2,9.28-4.68,18.38-6.81,27.63-2.2,9.58-6.89,18.57-9.38,28.11-2.86,11-10.4,19.47-14,30-3.58,10.31-9,20-12.29,30.38-2.88,9.16-9,17-10,26.87-.5,4.59-4.83,7.62-6.9,11.76-1.33,2.66-5.78,1.24-7.56-1.43-2.19-3.28-4.34-2.87-6.34-.57-3.3,3.79-9.15,1.91-12.21,5.92-1.12-3.13,1.91-9.49-5.07-8.15-8.31,1.59-16-.37-24.1-1.25-5.59-.61-12.23-.75-17.24,3.75-2.32,0-4.65.22-7,.12-8.74-.36-11.83-3.35-13.28-11a224,224,0,0,1-2.68-65.29c2.16-20.4.29-40.78,2.35-61,2.35-23.05,2.85-46.15,3.19-69.27.12-8.26-1.42-16.62-.65-24.79.72-7.56.72-14.29-3.51-21C782.09,1828.42,783.21,1824.62,784.75,1821.53Z" style="fill:#e8686a;"/><path d="M1294.53,793c4.48,3.38,8.72,1.37,12.78-.8,3.21-1.71,6-4.14,9.31-5.71,3.79-1.83,7.61-4,12.24-2.1,16.2,6.61,33.12,4,49.84,3.61,11.51-.25,23-.65,34.51-.25,11.28.39,22.78,2.59,34.1-.18.32-.08.74-.26,1-.13,10.15,5.46,19.88-1.58,29.85-1l3.43-1.25c4.11,3.25,9.72,1.28,14.06,4.21,3.45,2.33,5,4.75,1.66,7.86-5.16,4.77-4.46,10.08-1.78,15.39,5.44,10.79,5,22.5,4.75,33.87-.15,7.19-3.28,14.34-5.32,21.43-.36,1.24-1.5,2.63-.61,3.61,6.08,6.72,3.59,14.51,3.17,22.13a26.39,26.39,0,0,0,1,9.86c.5,1.51.79,4.53.36,4.69-8.35,3.13-.06,9.71-3.14,14.35s-1.33,10.94-2,16.49a7.86,7.86,0,0,0,.91,4.83c4.63,7.13-.43,12.43-3.13,18.19-.6,1.28-1.81,2.71-2.93,2.21-7.62-3.34-8.66,3.19-11.38,7.28a33.17,33.17,0,0,1-2.57,3c-3.23-1.37-10.9-1.5-16.57-1.06-12.19.95-24.44,1.74-36.58-.09-3.13-.47-5.77.77-8.78.58-13.53-.87-26.8-3.92-40.33-4.68-13.71-.77-27.39-.51-41.11,0-8.8.34-17.86-.31-26.36-3.17a19.61,19.61,0,0,0-9.67-1.2c-1.13-.71-2.21-1.49-3.39-2.11-4.3-2.25-6.69-5.95-8.89-10.19-2-4,1.28-5.28,2.44-7.74a4.16,4.16,0,0,0-.25-2.78c-3.93-10.9-4-22.74-8.08-33.61a11.56,11.56,0,0,1-.31-3.94c-.05-18.58.12-37.13,2.13-55.65.6-5.51,2.48-11.55,0-16.74-3-6.23-2.4-12.89-3.92-19.26-.85-3.56.78-6.69,3.35-9.86C1282.75,797.77,1288.24,794.93,1294.53,793Z" style="fill:#e8686a;"/><path d="M671.25,858.32C667.58,869.4,659.14,877.52,653,887c-3.79,5.9-9.81,10.49-15.3,15.1-2,1.64-4.63,2.77-6.25,4.79-8.64,10.84-21.13,15.28-33.18,20.53a59.11,59.11,0,0,0-9.73,5c-6.25,4.26-12.52,7.65-20.33,4.33-.58-.24-1.65-.41-1.92-.11-5.42,6.12-13.78,1.38-19.74,5.42-1.87,1.27-3.91,1.49-4.85-1.08-2-5.57-6.64-4.12-9.88-2.81-8.07,3.26-16.48,1.06-24.67,2.1-4,.52-8.73-4-13.13-6.26-2.9-1.47-4.91-4.55-8.71-4.43-2.68.08-2.11-1.76-1.65-3.45.37-1.37,0-2.21-1.44-3.12-5.59-3.6-7.25-8.22-8.42-13.9-1.3-6.34.5-12.37.21-18.59-.34-7.24,4-9.65,10.84-6.4,3.84,1.83,5.88,0,7.6-2.29,3.58-4.85,8.17-5.1,13.32-3.79,9.62,2.45,18.88,1.14,27.93-2.59,1.83-.76,3.71-1.83,5.61-1.91,8.53-.37,13.06-6.35,17.76-12.17,3.3-3.67,7.58-6.09,10.82-10.06,6.19-7.59,7-16.82,9.36-25.53,1.14-4.2,2.91-8.8.42-13.48a7.36,7.36,0,0,1,1-7.63c3.64-4.26,0-11.28,6-14.5,1.06-.56.78-3.5-1-4.21-3.65-1.44-3.57-4.51-3.7-7.43-.29-6.36-1.43-12.31-4.59-18.07-2.74-5-.52-11.4,1.46-15.23,4.85-9.38,9.29-19.93,22.13-22.43,7.75-1.51,15.39-3.75,23.24-5,4.76-.74,9.42-1.44,11.75,4.38.35.88,1.09,2.14,1.81,2.26,8.88,1.49,10.67,11.26,17.73,15,4.21,2.21,6.2,7.7,7.21,11.15,1.64,5.57,4.9,10.83,5,16.93.11,5,1,9.65,4.93,13.5a8.59,8.59,0,0,1,2.1,6.48c-1.13,7.51,1.06,14.51,2.37,21.68,1.51,8.23-.68,16.41-.71,24.63,0,4,2,8.81-2.76,12.87C669.16,848.95,670.51,854.35,671.25,858.32Z" style="fill:#e8686a;"/><path d="M.19,695.33a64.46,64.46,0,0,1,4.2-28.19c6.24-16.07,17.64-26.82,33.45-33.47,7.49-3.15,15.29-5.27,22.5-9.61,9-5.41,23.33,2.62,25.87,13.41a52.27,52.27,0,0,1,1.47,13.88c-.35,8.77-3.61,16-12.52,19.62-15.42,6.3-17.34,20.31-19.13,34.29A11.44,11.44,0,0,0,57.24,712c7,13.6,14.32,27,26.23,37.14,13.86,11.8,34,2.76,39.58-9.39,2-4.37-.88-6.79-3.62-9.34-2.44-2.27-4.9-3.3-7.93-1A28.55,28.55,0,0,1,93,735.66c-14.73-.26-23.7-11.22-20.46-25.76.79-3.55,1.73-7.37,3.74-10.29,10.29-14.93,19.18-31,34.83-41.6,7.45-5,15.48-8.16,24.19-8.32,12.85-.23,21.34,7.81,15.66,21.33-4.26,10.13-2.44,16.25,3.92,23.57,6,6.93,12.71,13.27,16,22.49,5.63,15.56,7.81,30.53-1.38,45.51-2.6,4.23-4.62,8.74-7.95,12.59-3.72,4.3-8.94,6.78-12.71,10.37-4,3.79-7.77,6.67-12.75,8.4-5.39,1.87-9.37,6.17-14.72,8.27-16.75,6.59-33,4.27-47.81-4.34-22.84-13.3-43.13-30-58.36-52C3.78,729.34-.73,715.42.19,695.33Z" style="fill:#e8686a;"/><path d="M398.45,856.88c-3.66,7.77-.27,14.25,4.34,20,2.65,3.32,3.39,6.85,2.12,10.17-6.09,15.95-1.63,32.25-2.12,48.36-.43,14.23,1.14,28.57.63,42.61a328.21,328.21,0,0,0,.43,38.53c1.72,20.89-1.78,41.49-.67,62.25.56,10.6-2.21,21-3,31.59-.66,8.5-1.84,17-1.58,25.53.14,4.62.75,9.3-.38,13.92-.79,3.22-1,6.69-2.31,9.65-2.06,4.57-5.89,0-8.86,1.09a144.88,144.88,0,0,1-15.17,4.77c-6.75,1.59-13.59,2.51-20.21-.91-4.26-2.2-6-4.32-6.44-10.31-.48-7.3-2.45-14.76-2-22.28.58-9.2-.55-18.33,0-27.58.77-13.1,1.58-26.26-.41-39.48-1-6.31,1.32-13,.84-19.63-.9-12.41-.3-24.85-1-37.31-.89-16.39,1.21-33,2.28-49.44.73-11.26,2.06-22.48,3.07-33.71.8-8.92,1.67-17.79,3.14-26.61.45-2.68,1.24-5.73-.38-7.76-4.69-5.9-2.82-13.22-4.87-19.67-1.16-3.66-.43-7.25,4.26-8.6,4.42-1.27,6.75-5.2,9.78-8.22,4-2.3,7.77-.11,11.4.77C380.32,856.83,389.45,855.83,398.45,856.88Z" style="fill:#e8686a;"/><path d="M287.76,358.68c.81-7.28-4.11-12.15-6.4-17.65-3.8-9.09-6.8-18.64-13.2-26.66-4-5.07-1.55-11.61,2.75-16.75,7-8.36,17.1-8.12,26.12-10.94,2.19-.69,4,.46,5.18,2.17,5,7.26,10.29,14.28,13.93,22.44,4.83,10.84,10.79,21.15,15.43,32.12,3.28,7.75,4.75,7.73,11.06,1.93.49-.45.85-1.08,1.4-1.4,17.29-10.11,34.24-20.86,52.83-28.59a66.82,66.82,0,0,0,7.26-3.21c7.65-4.29,13.87-2.81,19.29,3.77,5.12,6.22,8.63,13.39,12.05,20.54s.3,15.25-8.65,20.92C413.13,366,399.55,374.91,384.45,381c-8.13,3.29-14.53,9.27-21.39,14.46-3.3,2.5-2.87,5,1.31,6.51,3.7,1.37,6.63,4.48,11,4.46,1.51,0,3.07,1.15,4.52,1.95,12.55,6.9,15.53,13.45,12.38,27.41a71.25,71.25,0,0,1-2.57,8.61c-3.77,10.35-9.8,14.21-19.91,10.41-14.49-5.45-29.1-11-40.81-22a35.33,35.33,0,0,0-10.88-7c-10.28-4.05-18.86-10.74-27.84-16.84-4.68-3.18-9.28-6.41-14.91-7.9-6-1.6-10-6.36-14.36-10.33-1.67-1.52-2.69-3.87-4.85-4.91-4.64-2.23-5.32-6.21-5.45-10.77-.2-7.39,3.77-13.35,6.91-19.38,2.47-4.76,7.8-3,11.77-1.62C275.2,356.25,281,358.28,287.76,358.68Z" style="fill:#e8686a;"/><path d="M287,744.6l-2.26-5.47c.93-2.23.06-3.64-2.06-4.47-9.95-17.38-11.21-36.27-9.72-55.64,0-.33-.06-.74.1-1,6.54-9.32,8.75-21.54,19.26-28.21,9.13-5.79,17.56-12.3,28.53-15.25,12.45-3.35,23.86-1.36,34.79,3.51,9.75,4.35,14,21.89,8.87,31.59-1.55,2.93-3.11,5.87-4.83,8.7-4.8,7.86-14.37,9.91-22.42,4.88-7.49-4.67-17.13-.73-18.17,7.89-3.39,28.16,6.93,50.73,29.43,67.45,7.1,5.28,15,6.16,23.67.36,5.71-3.84,12.35-6.1,16-12.51.65-1.15,1.75-2.08,2.22-3.28.77-2,.62-4-1.22-5.41a3.15,3.15,0,0,0-5,1.15c-2.06,4.13-5.19,5.23-9.6,5.23s-16.09-4.76-18.74-8.49c-4.59-6.46-5.42-13.53-2.13-20.6a45,45,0,0,1,7.76-11.5c8.79-9.46,18.18-18.37,27-27.85,6.57-7.09,14.56-7.63,22.81-5.34,5.81,1.61,8.65,7.63,12.07,12.06,2.78,3.6,2.44,9.71.11,13.38s-2.7,8.17-6.25,11.08S415,712,418.39,714.5c8.25,6,15,13.24,14.47,24.58a17.11,17.11,0,0,1-.06,3c-5.11,22.17-16.58,38.94-38,48.9-14.48,6.72-29.31,8.3-44.36,6.09a71,71,0,0,1-25.88-9.79,90.06,90.06,0,0,1-26-24c.92-2.36.47-4-2.29-4.53a26.73,26.73,0,0,1-7.33-9.79A3.27,3.27,0,0,0,287,744.6Z" style="fill:#2c8799;"/><path d="M552.65,409.69c4.94,2.93,8.9,4.24,13.84,2.54,5.41-1.86,11.24-1.35,16.83-.9,9.65.77,16.34,14.09,11.37,22.55-1.22,2.09-1.69,4.27-2.59,6.38-1.18,2.75-3.24,4.64-6.2,3.76-4.27-1.26-7.9.36-11.56,1.78-9.58,3.71-19.87,2.91-29.61,3.19-12.47.37-25,2.15-37.6.5-14.22-1.86-28.43.45-42.66.68-4.85.08-10.23,1.33-12.68-5-2.65-6.88-.79-15.84,3.13-20.26,7.15-8.08,16.71-10.11,26.5-11.85,4.54-.81,5.69-2.49,2.72-5.48-12.88-13-20.8-29.51-31.65-43.92-3.65-4.84-2.83-13.95,1.87-17.77a62.6,62.6,0,0,1,9.09-6.09c6.12-3.39,6.18-2.47,12.25,2,5.13,3.81,8.1,8.67,10.82,13.92,6,11.52,15.85,20.37,21.72,31.94.45.88,1.22,1.58,1.71,2.44,5.13,9,5.32,9.14,12.05,1.79,5.77-6.3,11.2-12.93,16.48-19.65,15.11-19.23,32.81-36.14,48.73-54.64,3.25-3.78,7.82-4.72,12.68-4.63,8.14.15,14.5,4.44,20.68,9,2.78,2,3.84,13.06,1.45,16.66-1.47,2.21-2.35,5-4.18,6.67-14,12.9-25.08,28.55-40.92,39.77C567.8,391.52,560.92,401.11,552.65,409.69Z" style="fill:#2c8799;"/><path d="M286.56,617.81c1.06,9.53-4.19,16.47-9,22.83a411,411,0,0,1-31.66,37.09c-14.17,14.58-33.64,18.34-52.46-.82-5.56-5.66-11.18-11.3-16.57-17.16s-10.72-12.25-18.45-16.15c-10.2-5.15-17.53-14.11-24.72-22.77-6-7.2-12.11-14.1-19.57-19.8a41.21,41.21,0,0,1-6.4-6.27c-3.92-4.66-5.45-10.32-3.11-15.86a38,38,0,0,1,18.43-20c14-7.1,25-2.12,35.6,6.92,7.09,6,14,12.1,18.65,20.33,2.92,5.19,8.47,7.42,12.83,10.89a170.24,170.24,0,0,1,14.72,13.36c7.44,7.46,16.62,7.07,23.76-.78,5.12-5.63,10.08-11.5,14.7-17.44,9.6-12.33,30.39-7.73,38.12,5.15A37.67,37.67,0,0,1,286.56,617.81Z" style="fill:#e8686a;"/><path d="M535.07,1276.24c1-1.24,1.66-3.47,3.63-2.7,9,3.5,18.08-.83,27.18.55,3.81.58,8.54.51,12.17-2.54a3.38,3.38,0,0,1,2.81-.67c5.11,2.11,10.33-.46,15.07.1,13.25,1.56,24.92-2.7,36.79-7a4.45,4.45,0,0,1,2.85-.24c8.53,3.41,17,.64,25.47-.16l.65,4.17c-1.45,2.55-.52,5.17-.28,7.79,1.79,19.86.65,39.27-9.38,57.17-10.73,19.16-26.61,31.31-48.82,33.12-11.2.91-22.64-1.1-33.2-4.81-14.1-4.95-21.11-17.19-26.84-30.17-1.69-3.83-3.58-7.67-5.46-11.37-4.06-8-6-17-3.84-26.49C535.09,1287.58,536.2,1281.92,535.07,1276.24Z" style="fill:#f3bb1c;"/><path d="M331.8,1274.78c7.61-9.74,17.94-6.66,27.35-4.91,4,.75,9.17,1.52,12,5.77-.11,5.73,5.07,8.22,7.7,12.23,8.27,12.57,10.41,27.23,14,41.24,3.39,13.33,8.47,26.21,10.53,39.88,7.49,7.43,5.33,18.8,11.27,27.19,3,4.2,3.51,10.34,5.88,15.44,2,4.28.13,9.19-1.1,13.68-.62,2.26-2.61,2.83-4.81,2.46-5.87-1-11.93-1.11-17.1-4.81a28.59,28.59,0,0,0-7.9-4.16c-8.58-2.68-12.48-9.06-15.24-17-2.88-8.34-3.2-17.6-9.44-24.84-3.18-3.69,1.73-5.13,4.14-7.65-7.58-3.22-9.73-10.55-9.92-16.52-.26-7.84-3.3-15.15-2.74-23.09.25-3.53-2.42-7.27-4-11.62-7.18,4.85-9.75,12.12-12.89,18.81-1.26,2.68-2.39,5.32-3.91,7.92-6.23,10.63-11.12,21.79-11.35,34.45,0,2.67-.24,5.31-1.72,7.69-3.1,5-5,4.32-10.8,3-12.87-3-17-15-25.29-22.64-3.83-3.5-1.93-9.06.56-11.81,7.62-8.46,8.47-19.8,13.82-29.18,9.27-16.25,15.72-34.15,28.91-48A18.51,18.51,0,0,0,331.8,1274.78Z" style="fill:#e8686a;"/><path d="M497.1,529a76.24,76.24,0,0,1-3.66,29c-1.77,5.35-5.8,9.44-7.64,14.87-1,3-4.26,6.3-8.76,3.92-2.19-1.16-3.53,0-5.33,1.09-5.36,3.27-11.84,3.29-17.33,2.21-12.59-2.48-24.93-6.36-34.81-15.38a88.75,88.75,0,0,1-15.69-19.19c-3.82-6.23-2.09-13.78-1.45-20.55,1.17-12.32,4.11-24.39,13.06-33.83,9.63-10.15,20.91-14.65,35.52-15.49,15.34-.88,24.51,6.07,33.9,15.76,9.77,10.09,12.66,22.16,12.19,35.56C497.09,527.71,497.11,528.38,497.1,529Zm-27,3.65c0-7.53-5.7-16.47-12-18.93-4.17-1.62-14.39,2.57-16.48,6.75-3.12,6.27-1.82,13.38,3.41,16.74a61.5,61.5,0,0,0,10.55,5.53C463.81,546.05,470.09,541.57,470.07,532.69Z" style="fill:#2c8799;"/><path d="M319.68,546c-16.32-.58-29.8-5.82-37.09-21.75-2.89-6.32-7.41-11.73-9.64-18.51-6.14-18.7-4.39-36.5,5-53.69,1.89-3.45,4.44-6.38,5.44-10.52,1.57-6.52,12.65-9.27,19.45-8.58,14.56,1.48,19.92,10.51,15.86,24.59a40.92,40.92,0,0,1-7.62,13.9c-6.61,8.43-6.95,17.46-3.57,27,1.75,4.93,4.8,9,10.45,9.47,6.19.54,10-3.52,12.29-8.46,1.95-4.13,2.38-9,4.25-13.14,3.69-8.26,7.8-16.13,18.59-17.13,9.91-.92,15.9,3.42,16.78,13.25.79,8.76,3.15,17.1.77,26.42-3.93,15.38-16.6,32.2-36.31,35.16C329.43,544.75,324.55,545.76,319.68,546Z" style="fill:#e8686a;"/><path d="M265.86,534.85c1.08,10.54-4.5,18.89-10.58,26C235,584.52,209.43,583.78,190,563.08c-14.1-15-19.94-33.21-16.45-53.88a29.41,29.41,0,0,1,13-20.4c7.19-4.8,14.45-10,23.09-11.19,19.7-2.8,34.87,4.32,46.94,20.67C265,509.69,264.62,522.27,265.86,534.85Zm-44,.7c6.2-.2,10.15-3.73,9.88-8.81s-7.26-9.73-14.32-9.44c-4.89.2-7.67,2.89-7.59,7.33C209.94,530.41,215.82,535.75,221.86,535.55Z" style="fill:#e8686a;"/><path d="M805.35,2083.33c5-4.5,11.65-4.36,17.24-3.75,8.05.89,15.79,2.85,24.1,1.25,7-1.34,3.95,5,5.07,8.15-2.61,6.59-2.38,13.85-2.6,20.5-.58,17.27-5.06,33.92-6.67,51-.69,7.27-2.27,14.75-3.13,22.16-3.34,4.48-9,1.28-12.89,3.8a68.84,68.84,0,0,1-26.68,10c-6.25,1-8.53,7.29-14.3,8-1.58-9.7.6-19.36,2.5-28.52,5-24,7-48.49,12-72.46C801.43,2096.7,803.55,2090,805.35,2083.33Z" style="fill:#f3bb1c;"/><path d="M1009.26,2094.31c3.4-7.37,11-5.92,16.49-6.29a184.11,184.11,0,0,0,28.15-4.52,3.19,3.19,0,0,1,3.49,1.13c-.24,12.19-4.2,23.81-5.16,36-1.4,17.75-5.76,35-11.29,52-.93,2.84-1.63,5.68-2.33,8.55-7.92,2.7-15.67,6.45-23.82,7.84-10,1.7-18,5.81-24.42,13.32-4.4-9.27-1.64-18.7.65-27.54,6.42-24.85,11.34-50.07,18.84-74.65C1010.36,2098.37,1009.49,2096.24,1009.26,2094.31Z" style="fill:#f3bb1c;"/><path d="M785.48,2204.47c5.77-.75,8.05-7.06,14.3-8a68.84,68.84,0,0,0,26.68-10c3.92-2.53,9.55.67,12.89-3.8,7.61-.41,15.21-1.42,22.86-.4,4.11.55,7.84-.06,11.08-3.12,1.38-1.3,3.51-1.79,5.31-2.63,3.69-1.73,5.52-.86,5.73,3.52.42,8.81-.85,15.88-8,23.06-6.2,6.2-13.26,7.77-20.28,10-11.62,3.62-22.83,8.25-34.23,12.41-7.9,2.88-7.36,3.23-5,11.37,1.48,5,2.34,10.13,4.46,15.06a8.72,8.72,0,0,1-2.31,10.08c-3.11,2.62-6.77,3.1-10.18.82-5.49-3.66-12-3.78-18-5-4.23-.83-6.28-1.69-7.43-5.72a66.78,66.78,0,0,0-4.79-12.87C771.41,2225.63,776.08,2214.63,785.48,2204.47Z" style="fill:#2c8799;"/><path d="M670.18,661.66c-8,0-12.29-4.39-14.52-11.53-3.05-9.77,0-18.87,3.75-26.9,3.31-7.14,9.36-13.6,15.95-18.6,17.89-13.57,36.21-26.54,55.79-37.65,4.41-2.5,9-2.5,13.56-1.66,4.42.82,5.65,3.31,3.77,7.63-.86,2-1.59,3.86-.59,5.62,3.76,6.62-.34,11.61-3.54,16.47-13.18,20-29.2,37.67-46.73,54-3.47,3.23-6.52,6.67-11.79,6.25-1-.08-2.21-.27-2.61.83C680.64,663.08,673.77,659.18,670.18,661.66Z" style="fill:#4eb8cb;"/><path d="M990.35,2202.26c6.47-7.51,14.44-11.62,24.42-13.32,8.15-1.39,15.9-5.14,23.82-7.84,9.14-1.25,18.38-2.11,26.16-7.92,3.1-2.32,6.87-3.49,10.28-1.64,3.71,2,2.61,5.91,2.77,9.66.54,13-5.79,19.1-17.38,24-12.9,5.44-25.73,11.58-37.7,19.24-4,2.53-4.22,4.27-1.9,7.71,2,3,3.52,6.39,5.63,9.34s.22,5.85-.1,8.63c-.55,4.85-4.31,2.35-7,2.52-2.29.14-4.53,1.27-6.81,1.34-5.39.17-11.87-4.71-13.73-10.29s-4.56-10.13-10.59-12.1c-4.28-1.39-5.83-4.66-6.12-9.18-.33-5.08,2-9.63,1.88-14.7C983.9,2204.37,989.44,2205.59,990.35,2202.26Z" style="fill:#2c8799;"/><path d="M1303.64,1556.74c-6.38-.72-13.17.25-17.61-6.52-1.55-2.36-2.15-4.43-.83-6.25,3-4.09,3.5-8.49,2.92-13.21-.42-3.38,2.26-4.92,4.23-6.24,7.67-5.13,14.69-11.07,23.18-15.21,11.56-5.64,22.32-13,33.27-19.79a26.94,26.94,0,0,1,21.94-3.27c4.05,1.05,7.27,4.28,4.14,7.95s-1.82,7.52-2.61,11c-3.77,16.33-17.4,22.33-29.28,30.32-7,4.72-15,7.74-21.55,13.4C1316.45,1553.23,1310.77,1556.87,1303.64,1556.74Z" style="fill:#e8686a;"/><path d="M1403.09,1621.49c5.39,1.36,10.73,1.32,15.64,3.91,8,4.24,9.3,7,4.37,14.3a52.58,52.58,0,0,1-26.35,20.76c-14,5-28.74,5.57-43.25,7.53a76.06,76.06,0,0,1-12.87,1c-10.52-.39-13.56-6.46-10.88-13.56,3.88-10.29,10.95-18.11,18.5-25.64a7.63,7.63,0,0,1,6.3-2.44c11.74,1.17,22.9-2.95,34.37-4.24C1393.68,1622.6,1398.78,1624.08,1403.09,1621.49Z" style="fill:#e8686a;"/><path d="M736.36,457.42c-5.41,2.77-6.92,8-5.25,13.36,2,6.37-1.3,10.88-4.41,15.1-8,10.92-16.34,21.68-25.22,31.92-6.43,7.41-12.83,15.07-21.95,19.68-6,3-14.29,4-16.61.65-3.79-5.48-6.9-11.55-4-18.6,3.52-8.69,8.74-16.41,14.65-23.59,5.5-6.68,11.78-12.71,17.32-19.36,3.4-4.07,8.63-4.58,12.57-7.76,7.14-5.78,14.54-11.37,23.12-15.15C731,451.73,733.93,452.29,736.36,457.42Z" style="fill:#4eb8cb;"/><path d="M1388.71,1760.26c-1,3.58-2.32,7.51-6.09,9.47-5.34,2.78-8.47,8.5-14.47,10.32-7,2.14-10.72-4.15-16-6.35-9.6-4-19.18-8.07-29.07-11.35-7-2.32-10.49-6.67-10.92-13.33-.07-1.07-.09-2.2.82-2.62,7.18-3.32,11.63-10.61,19.52-13,6.94-2.13,13.39.11,18.5,3.47,7.42,4.89,16,7.63,22.92,13.41,2.08,1.74,5.59,1.72,8.4,2.65A8.59,8.59,0,0,1,1388.71,1760.26Z" style="fill:#e8686a;"/><path d="M333.22,161.75c2.64,4.64,3.15,9.75,7.39,13.16,2.15,1.73,2,5.45,2,8.51.1,11.28.09,22.55-1.47,33.75-.59,4.25-1.4,8.33.64,12.67,1.35,2.89,1,6.57-.06,9.77s-10,7.73-13.65,6.89c-.43-.1-1.07-.86-1-1.21,1.42-8.65-6.56-3.95-9.87-7.37,2.9-3.23,3.35-6.74-.26-10.68-3.76-4.1-4.27-9.36-3.29-14.94,1.95-11.12,3-22.42,5.38-33.42C320.7,171.22,323.82,163.76,333.22,161.75Z" style="fill:#e8686a;"/><path d="M189,217.59c7.68.3,12.88,5.23,17,10.68a359.75,359.75,0,0,1,20.76,30.35,42.55,42.55,0,0,1,5.81,17.83c.46,4.52-1.24,6.63-6.06,7-6.76.52-11.88-1.1-16.69-6.4-13.18-14.53-21.22-31.94-29-49.52C177.77,220.67,180.57,217.61,189,217.59Z" style="fill:#e8686a;"/><path d="M232.8,185.19c.87-13.54,1.33-13.45,13.87-8.66,7.41,2.83,10.27,9.21,13.86,14.8a51.06,51.06,0,0,1,6.28,15.52c1.92,7.89,5.62,15.35,8.72,22.94,2.78,6.81.21,13.94-5.65,15.22-4.5,1-15.87-4.7-17.52-9.16-5.51-14.91-11-29.83-18.6-43.84A10.83,10.83,0,0,1,232.8,185.19Z" style="fill:#e8686a;"/><path d="M754,1213.27c-4-3.82-6.64-7.41-.89-12.35a5.75,5.75,0,0,0,0-8.16,76.93,76.93,0,0,0-10.21-7.84c-1.61-1.09-4.16-2.11-5.52-.31-3.92,5.2-8.35,2.76-12.54,1.14-4.81-1.86-11.5-3.7-14.38-1.74-4.94,3.36-8.93.31-13.15,1.21-3.64.77-6.34-2.12-10.23-2a137.39,137.39,0,0,1-29-2.24c-8-1.54-15.85-1.22-23.58-.52-11.41,1-22.86,2-34.23,1.75s-22.61,2.35-33.93.11c-2.71-.54-5.2.71-7.66,1.83-2.06.93-3.92,2.16-6.56,1.33-8.58-2.7-17.69,4.18-26.23-1.28-.37-.23-1.38.15-1.85.53-6.44,5.29-13.87,2.81-21,2.76-3.65,0-6.53-2.4-10.18-2.93-6.86-1-12.91,2.23-19.37,2.49a106.66,106.66,0,0,1-40.78-6.32c-6.7-2.42-8.83-4.86-7.12-11.74a41.35,41.35,0,0,0,.45-18.53,34.44,34.44,0,0,1-.61-12.65c1.43-8.59.37-17,.59-25.44.16-6.08-2.44-13,1.7-18.91,1.28-1.85-.17-3.91-1-5.61-1.74-3.4-1.21-6.6-1-10.32.45-9.09,2.67-18.14,1.25-27.35-.55-3.58-1.34-7.56.25-10.86,2-4.22.78-7.6-.84-11.35-1.3-3-3.75-6.69-1.61-9.42,2.66-3.4.36-7.64,1.51-9.34,2.66-3.92,1.41-7.64,2-11.4,1.12-6.7-1.47-13.51-.47-19.75,1.8-11.35.41-22.55.7-33.79.24-9.11,1.91-18.73-3.69-27.19a3.34,3.34,0,0,1-.36-1.94c.66-10-3.74-19.13-5.24-28.76-1.32-8.47-7.33-17.27,2.3-24.73.35-.27.13-1.28.17-1.94-7.32-4.36-15.2-4-23.18-2.76-3.66,7.77-.27,14.25,4.34,20,2.65,3.32,3.39,6.85,2.12,10.17-6.09,15.95-1.63,32.25-2.12,48.36-.43,14.23,1.14,28.57.63,42.61a328.21,328.21,0,0,0,.43,38.53c1.72,20.89-1.78,41.49-.67,62.25.56,10.6-2.21,21-3,31.59-.66,8.5-1.84,17-1.58,25.53.14,4.62.75,9.3-.38,13.92-.79,3.22-1,6.69-2.31,9.65-2.06,4.57-5.89,0-8.86,1.09a145,145,0,0,1-15.17,4.77c-6.75,1.59-13.59,2.51-20.21-.91-4.26-2.2-6-4.32-6.44-10.31-.48-7.3-2.45-14.76-2-22.28.58-9.2-.55-18.33,0-27.58.77-13.1,1.58-26.26-.41-39.48-1-6.31,1.32-13,.84-19.63-.9-12.41-.3-24.85-1-37.31-.89-16.39,1.21-33,2.28-49.44.73-11.26,2.06-22.48,3.07-33.71.8-8.92,1.67-17.79,3.14-26.61.45-2.67,1.24-5.73-.38-7.76-4.69-5.9-2.82-13.22-4.87-19.67-1.16-3.66-.43-7.25,4.27-8.6,4.42-1.27,6.75-5.2,9.78-8.22A82.15,82.15,0,0,0,334.62,850c-7-.09-14.28.88-20.81-.92-14.65-4-29.19-1-43.41.35-15.86,1.48-31.18,7.66-47,11-11.45,2.4-23.3,4.59-31.79,14.05-.63.7-1.76.92-2.59,1.46-8.11,5.33-13.43,12.12-14.14,22.45-.45,6.6-1.32,13.06.47,19.54,1.26,4.57,0,8.81-4.73,9.18-5.75.46-9.13,4.3-12.57,7.37-9.84,8.79-19.73,18-16,33.56.51,2.13-.67,4.62-.56,6.91.34,7.69-1.54,15.91,3.76,22.59,2.15,2.71,3.12,5.71,4.38,8.7,3.29,7.79,2.68,10-4.15,14.64-2.12,1.44-5,1.56-6.29,4.47-4.12,9-9.31,17.74-6.58,28.35a13.77,13.77,0,0,1-.8,8.73,10.72,10.72,0,0,0,3.27,12.66c3.08,2.34,4,5,4.56,8.1,1.61,9,7.64,15,14.13,20.53,5.56,4.76,5.51,4.56,2.65,11.41-6.41,15.36-9.39,31-2.51,47.06,3.51,8.18,6.86,16.2,16.83,19.7,5.21,1.83,8.83,7.62,9.26,14,.5,7.27.56,14.23,2.84,21.64,2,6.66,4.11,13.12,7.75,18.88,5,8,12.3,14.66,21.19,17,9.17,2.43,18.34,6.1,27.63,6.89,11.57,1,20.32,11,32.45,8.78.21,0,.53.37.77.6,3.14,3,6.73,2.28,10.32,1.22,2-.59,3.78-.18,5.79.26,14.17,3.12,28.19,8.43,43,3.62,7.61-9.74,17.94-6.67,27.35-4.91,4,.75,9.18,1.52,12,5.77,14.45,3.37,29.05,1.39,43.59,1.16,4.89-.08,9.77-2.1,14.6.41,1.74.91,3.17.06,4.46-1.11,9.18-8.42,21.06-4.62,31.59-6.91a3,3,0,0,1,2.61,1c2.57,5.83,7.63,3.77,12,4,3.88.17,7.77-.92,11.53,1.62,2.11,1.42,5.2.76,7.68-.11,1.86-.65,3.44-1.74,5.62-1.17,10,2.64,20.2.36,30.24,1.7,1-1.24,1.66-3.47,3.63-2.7,9,3.5,18.08-.83,27.18.55,3.81.58,8.54.51,12.17-2.54a3.37,3.37,0,0,1,2.81-.67c5.11,2.1,10.33-.46,15.07.1,13.25,1.56,24.92-2.7,36.79-7a4.45,4.45,0,0,1,2.85-.24c8.53,3.41,17,.64,25.47-.15h0l.65,4.17c5.72,2.34,11.24,5.66,17.53.91,2.22-1.68,5.12-.81,7.34,1.16,1.22,1.09,2.4,2.49,4.22,2.33,13-1.15,25.78-3.36,36.6-11.36a40.09,40.09,0,0,1,9.23-5.17c4.51-1.82,9.7-5.33,11.55-9.47,2.07-4.63,5.06-8.45,7.39-12.76l-1.38-1.47c.52-3.58.42-7.42,1.73-10.7C757.28,1217.67,756.31,1215.51,754,1213.27ZM423.4,1020c-.21,1.47-2.6,4.75-4.84,3.83-4.72-1.94-2.74-6.35-2-10.44C419.48,1015.37,424,1015.74,423.4,1020Z" style="fill:#2c8799;"/><path d="M1475,552.9c-1-1.52-.23-2.82.51-4.12C1478,550.47,1477.48,551.81,1475,552.9Z" style="fill:#fdefee;"/><path d="M516.16,618c-3.07,12.05-4.11,24.63-10.48,36-4,7.12-2.77,16.22-6.21,23.95-3,6.63-5.16,13.58-7.78,20.36a16.14,16.14,0,0,1-6.08,7.69c-1.59,4.7-5.85,4.14-9.13,3.8-5.86-.63-11.07-3.44-15.75-7-.18-.13.32-1.14.5-1.73-.21-4.06-3.31-3.9-6.1-4.18-2.63.08-4.86-.58-6-3.21l-.34-.49c-2-.82-2.4-2.51-2.3-4.43-4-1.08-5.64-4.53-7.43-7.77-2.16-.5-3.32-1.73-3-4l-.75-2.27c-1.91-.41-3.53-1.17-4-3.32l-.3-.3c-2.9-.86-5.19-2.34-5.84-5.55,0,0-.26-.41-.27-.41a5.22,5.22,0,0,1-3.31-4c-2-.82-3.24-2.54-4.5-4.2a7.21,7.21,0,0,1-5.38-5.87l-4.42-4.38a4,4,0,0,1-3.64-3.61l-.39-.32c-3-.62-5.23-2.17-6.08-5.29l-.88-2a4.68,4.68,0,0,1-1.71-4.91,1.13,1.13,0,0,1-.91-.5c-2.75,1-4.28-.9-5.88-2.54-5.51-5.64-11-11.34-16.54-16.93a8.87,8.87,0,0,1-3-6.92c.25-9.28,3.52-17,10.89-22.83l.32-.31c5.91-10.91,12.33-11.13,22.66-.77l5.33,3.89c4.64.13,6.55,3.22,7.71,7.11l5.09,5.73c9.11,2.62,15.65,8.49,20.63,16.32,4.17,2,8.57,3.43,12,6.79,3.06,2.94,5.47,1.81,6.19-2.2,1.18-6.63,5.28-12.21,6.67-18.64,2.15-9.9,14.9-14,24-10a160.59,160.59,0,0,1,17.52,9.41C517.43,604.12,519.06,606.63,516.16,618Z" style="fill:#2c8799;"/><path d="M914.65,1083.27c-.77,18.76,1.17,37.46,3.92,55.85,2.19,14.65,3.91,29.11,2.8,43.79-.74,9.81-4.06,18.72-11.9,25.53s-22.95,4.65-26.15-4.78c-1.67-4.93-4.23-9.6-5.2-14.82a187.23,187.23,0,0,1-3.37-35.08c0-19.37,4.93-38,5.23-57.18.07-4.31,3.47-7,4.14-11,1.09-6.4,4.15-12.42,3.36-19.2-.34-2.89,1.88-4.76,3.76-6.72,1.63-1.7,2.74-2.06,5-.55,5.64,3.84,9.71,9.43,15.8,12.91C915.34,1074,914.79,1079.23,914.65,1083.27ZM900,1196.4a3.54,3.54,0,0,0,2.73-3.44c0-2.63-2.27-2.76-4.11-3-1.61-.2-2.26,1-2,2.41C896.95,1194.32,897.55,1196.17,900,1196.4Z" style="fill:#4eb8cb;"/><path d="M451.74,1040.3c-.71-5.37,1.54-10,3.41-14.49,8.77-21.33,19-42.08,25.76-64.21,1.32-4.34,4.66-6.7,8.53-7.66,4.22-1,8,1.2,10.18,4.78,3.84,6.18,7.28,12.62,10.79,19,1.2,2.19.25,4.43-.07,6.75-1.64,11.94-7.08,22.56-11.19,33.63-3.11,8.37-5,17.11-7.7,25.62-2.38,7.54-4.54,15-8.15,22.09s-8.43,9.5-14.59,5.36C457.83,1063.88,452.42,1053.28,451.74,1040.3Z" style="fill:#2c8799;"/><path d="M753.32,1126.24c-1.84-7.63,1.23-14.43,5-20.64,8-13.22,15.3-26.88,24.29-39.54,4.82-6.78,10.21-13,15.29-19.59a16.31,16.31,0,0,1,4.54-3.78c4.52-2.7,7.42-2.26,8.1,2.66,1.05,7.6,6,14.42,1.89,23.42-2.49,5.43-6.21,12.08-4.43,19.28.33,1.32-.93,3.09-1.62,4.58-6.2,13.35-11.85,27-21.09,38.7a53.54,53.54,0,0,1-11.2,11c-3.48,2.39-7.32,5.38-12.68,2.39-5.21-2.91-7.83-6.9-8.53-12.44C752.62,1130.37,753.14,1128.35,753.32,1126.24Z" style="fill:#4eb8cb;"/><path d="M970,1045.57c.46-2.58.36-5.45,1.53-7.65s4.14.14,6.43-.92c2.61-1.21,5.8-1.12,8.66-1.86,9-2.33,13.43-.93,18.51,7.09a9.5,9.5,0,0,0,6.08,4.46c8.74,2.41,15.16,7.58,18.88,16,4.36,9.83,9,19.55,13.13,29.47,2.14,5.13.88,7-4.81,9.64-.3.14-.63.23-.93.37-8.35,3.8-8.59,4-13.66-2.62-1.54-2-1.79-3.12-3.83-.84-.4.45-2.12.35-2.76-.13-10.75-8-22.78-14.5-30.75-25.82-4.83-6.87-9.64-13.75-14.49-20.6A9.9,9.9,0,0,1,970,1045.57Z" style="fill:#4eb8cb;"/><path d="M1177.26,956.29a184.45,184.45,0,0,1,16,23l1,9.37c-5.44.37-10-1-13.39-4.83-4.41-5-9.93-8.54-15.12-12.58-4-3.11-8.26-6.31-10.57-11.44-2.49-5.53-7.46-7.81-13.6-8-10.16-.3-20.22-1.48-30.24-6,1.39-3.85,4.54-4.68,8-5.73a93.66,93.66,0,0,1,30.68-3.52c6.07.24,13,3,16.74,9.21C1169.46,950.28,1173.26,953.34,1177.26,956.29Z" style="fill:#4eb8cb;"/><path d="M1205,1120l-.62.51c-.17-.21-.48-.43-.46-.62s.37-.34.58-.51Z" style="fill:#fff;"/><path d="M1445.09,167.94c.31,3,.23,6,1,8.86,2,7.29-1.68,13.57-3.19,20.2-.57,2.49-2.78,3.69-5.5,2.43-2.11-1-5-1.52-6.1-3.21-5.07-8-12.64-14.76-13.52-25a33.18,33.18,0,0,0-3.1-11.2c-1.8-3.94-6.59-8.18-1.74-13.23-2.39-5-3.83-10.33-5.48-15.61a14,14,0,0,1-.66-7.31c1.53-9.11-1-18.29-.57-27.48.69-14.11,7-23.46,19.84-30.75,8.43-4.8,16.78-4.81,25.24-6.24,6.35-1.07,13.29-1.37,18.55,4.1,8.13-2.31,9.48,5.48,13.75,9,2.29,1.9,3.67,3.63,3.34,6.62a5.3,5.3,0,0,0,2,4.39c6.11,5.63,6,13.71,5.31,20.29-1,8.64-3.31,17.35-5.28,26-.53,2.33-3,2.41-4.33,3.7-4.23,4-3.57,7.32,1.93,9.05,3.77,1.19,6.88,2.35,6.62,7.17-.14,2.71,1.94,4.08,4.12,5.1,3.07,1.44,4.93,4.87,7.35,6.19,7.06,3.85,12.18,9.68,18.27,14.45,4.3,3.37,11,2.9,16.31.79,10.83-4.33,21.19-9.37,24.32-22.46,1.15-4.82,3.42-4.92,7.75-1.27,10,8.45,10.6,14.18,2.47,24.24-5.41,6.69-10,14.2-16.57,19.74-9.81,8.23-22.09,9.93-34.29,12.35-14.37,2.86-23.6-5.84-34-12.51-.52-.33-.72-1.47-1.18-1.54-14.38-2.15-16.31-16.43-24.11-24.92a63.19,63.19,0,0,0-13.58-11.45c-3.72-2.27-5.21-1.2-5.31,3.5a59.59,59.59,0,0,0,.45,6Zm18.55-66.71c-1.61-6.74-7.19-11.12-11.13-16.52-.21-.29-1.13-.13-1.71-.09-12.37.78-17.42,7-14.9,19,1,4.56,2,8.66.23,13.5-1.19,3.2.68,7.2,3.36,9.87,2.9,2.9,5.53.31,8-1,2.15-1.15,4.46-1.17,6.76-1.43a4.62,4.62,0,0,0,4.22-3.64C1460.24,114.51,1461.86,108.1,1463.64,101.24Z" style="fill:#fdefee;"/><path d="M1310.88,197.27a60.2,60.2,0,0,1-1.35,21.61c-2.27,9.28-6.76,16.73-16.24,20.8-4.68,2-8.58,5.33-13.78,7.1s-9.62.92-14.39,1c-1.58,0-3.41-1.44-4.72-1-5.81,1.93-8.93-.9-13.7-4.23-10.81-7.57-14.7-17.81-16-29.65-.3-2.82-.7-4.79-2.43-6.87a17.46,17.46,0,0,1-4.35-12.83c.89-11.73-4-22.67-4.74-34.25-.31-5,1.24-10.45-2.31-15.26-1.7-2.31.13-5.16,1.35-7.5,3.94-7.57,6.52-16.66,12.42-22.17,5.69-5.32,10-12.94,20-14.42,6.88-1,13-3.1,20-.71,4,1.36,7.46,3.35,9.78,6.39,3.34,4.38,7,9.21,8.21,14.39,2.49,10.45,5.91,21.07,2.77,32.1-1.35,4.73-1.42,8.66,5.1,9.18,3.09.25,4.52,2.52,4.77,5.49.17,2,.35,4.13,1.94,5.51C1311.5,179,1312,188.33,1310.88,197.27Zm-42.06-16.55c-9.84.08-13.4,3.71-13.58,13.72a21.33,21.33,0,0,0,1.19,8.75c1,2.45,1.58,5.13.3,7.7-2.11,4.21.51,6.11,3.69,7.65,7,3.39,18.3-1.91,20.75-9.52,1.84-5.72,2.56-11.09.77-17.26C1279.53,183.47,1277.21,180.65,1268.82,180.72Zm-10.22-57.55c-1.73,1.18-4.07,1.42-5.93,4-2.2,3-2.23,6.89-4.74,9.56-5.11,5.45,2.27,10.31.77,15.62-.06.22,1,1,1.52,1.08,3.63.22,9.13-.14,9.94-2.26,1.68-4.42,8.54-6.6,5.9-12.65-1.58-3.6-3.73-6.85-3.28-11.18C1263,125.57,1261.52,123.55,1258.6,123.17Zm-11.52-12.07-.61-1.68c-.56.27-1.31.39-1.63.83-.7,1-.29,1.76.86,1.82C1246.14,112.1,1246.61,111.45,1247.08,111.1Z" style="fill:#fdefee;"/><path d="M1097.74,230.71c5.65-4.67,6.72-9.6,3.63-16s-2-13.62-1.5-20.58c.79-11.16,4.23-22,2.83-33.47-.81-6.66,3.47-12.57,5.18-18.9,1.08-4,4.82-4.15,8.26-2.53,3.73,1.76,7.07,4.67,8.41,8.25,3.34,8.93,8.39,17.35,8.7,27.3.17,5.61-.3,11.23,1.14,16.85.47,1.86,2.5,6.47-3.28,6.24-2-.08-1,1.8-.74,3,1.22,5.46,2.28,10.83,5.18,15.91s3.25,10.92,7.3,15.62c5.07,5.88,11.24,2.92,16.49,2.3,4.05-.48,10.36-.77,11-7.94.42-4.88,2-9.55,1.58-14.67-.29-3.78-.95-7.92,1.38-11.68,1.12-1.8.27-3.93-1.38-5.35-6.29-5.41-6.25-12.17-6.78-20.06-.88-13.3,1-27.07-3.94-40-2-5.21,2.88-6.87,4.91-9.88,1.13-1.68,4.14-5.16,4.91.73,7.34-2.12,11.34,5.54,17.78,6.08,2.67.23,4.06,2,5,4.29.88,2.07-.69,7,4.75,3.63,1.13-.71,1.69,1.86,1.48,3-1.57,8.64-.57,17.12,1.3,25.56a4.12,4.12,0,0,1,.26,2c-3.2,9.32,1.67,18.26,1.39,27.2-.56,18-2,36.11-11.45,52.35-2.51,4.31-6.45,6.42-10.45,8.76-9.17,5.37-19.09,6.73-29.48,5.94a48.24,48.24,0,0,0-7-.34c-9.1.64-15.19-3.88-21-10.4-6.4-7.12-13.91-13.11-17.22-22.67C1104.16,224.8,1101.46,233.21,1097.74,230.71Z" style="fill:#fdefee;"/><path d="M1360.21,195.12c2.64,1.76,4.63,1.27,6.8-.11,7.74-4.93,16.56-3.61,25.07-4.18,3.74-.25,6,1.49,8.53,3.9s3,4.5.17,6.32c-3.55,2.29-5.53,5.62-7.66,9-6.37,10.12-19,14.75-31.27,13a39.55,39.55,0,0,0-11.47.17c-4.83.84-8.35-1.52-12.43-2.39-1.2-.26-3.16-1.23-3.21-2-.73-10.42-11.29-16.17-12.27-26.54-1.1-11.72-4.66-23.06-7-34.56-1.66-8.28-2.91-16.74-4.74-25-4-18-2.22-36.93,13.1-49.13,10.91-8.69,29.27-7.87,37.3-1.38,4.35,3.51,4.6,3.92.07,6.58-6.61,3.89-12.15,9.14-18.19,13.74-6.5,5-7.53,10.84-4,18.47,1.12,2.41,2.58,4.66,3.76,7,1.34,2.71,4.61,5,1,8.66-.94.93-.16,3.81.16,5.74,1.13,6.91,2.8,7.78,7.86,3.13,7.08-6.51,15.5-7.06,24.17-6.35,5.88.48,6.94,4.17,3.12,8.83s-8.13,8.9-11,14c-3.14,5.62-7,8.26-13.39,8.3-5.2,0-7.12,2.38-5.18,6.8s1.94,9,3.34,13.41C1354.4,195.38,1355.27,198.11,1360.21,195.12Zm-31.93,1.74c.31.46.54,1.17,1,1.31s1.5-.13,1.56-.39a1.47,1.47,0,0,0-1.37-1.83C1329.09,195.9,1328.66,196.53,1328.28,196.86Z" style="fill:#fdefee;"/><path d="M1332.16,276c-2-3.59,1.43-4.09,3.1-6.26,9.23-12,22.9-15.55,36.1-19.66,9.75-3,20.07-4.18,30-6.66,10.84-2.71,21.62-5.69,32.24-9.14,5.89-1.92,12.36-1.23,17.94-5,2.7-1.83,6.64.36,8.94,2.79s.17,5-.85,7.37c-4.71,11.08-13.06,17.42-24.44,21.47-22.57,8-45.75,13.24-69.21,17.6-6.43,1.2-12.64,3.68-18.86,5.83-1.87.65-3.52,1.43-5.65,1.39C1332.84,285.55,1332.23,285,1332.16,276Z" style="fill:#fdefee;"/><path d="M416.59,1013.44c2.9,1.94,7.43,2.3,6.82,6.61-.21,1.47-2.6,4.75-4.84,3.83C413.84,1021.94,415.82,1017.53,416.59,1013.44Z" style="fill:#f3bb1c;"/><path d="M889.57,676.25c-1.58,14.8-3.94,29.43-10.93,42.84-.82,1.58-.78,3.12-1.09,4.71-1.6,8.43-3.41,16.78-7.59,24.44-1.5,2.75-.69,6.07-1.56,9.26-3.67,13.35-9.4,26-12.64,39.51-3.35,14-8.24,27.63-12.58,41.38-1.67,5.28-9.25,13.33-10.88,11.86-4.4-4-5.24-9.56-4.61-15.26,1.37-12.35,1.42-25.09,4.71-36.92s6.37-23.5,10.39-35c10.64-30.5,23.89-60,33.42-90.95a24.13,24.13,0,0,1,1.66-3.62c1.28-2.55,1.69-6.3,5.87-5.45,3.73.76,5.34,3.72,5.78,7.24A49,49,0,0,1,889.57,676.25Z" style="fill:#fff;"/><path d="M905.18,750a32.41,32.41,0,0,1,4.88,24.62,326.31,326.31,0,0,1-18.13,61c-4.14,10.22-4.68,22.12-12.69,30.74.57,6.85-3.15,12.79-4.1,19.34-.77,5.28-2.27,12.38-8.18,12s-4.8-7.56-5.26-12.41c-1.62-17.07,3-32.71,9.79-48.2,10.38-23.7,19.89-47.79,29.83-71.69C903.36,760.6,903.62,755.34,905.18,750Z" style="fill:#fff;"/><path d="M925.69,400.36c1.9,2.4.76,4.55.07,6.72A415.16,415.16,0,0,0,913.87,452c-1,5.06-2,10.5-6.15,14.38a3.85,3.85,0,0,1-3.6,1.15c-1.61-.39-1.73-1.83-1.87-3.13a24.93,24.93,0,0,1,.59-6.86c2.37-14.41,8.13-27.64,13.58-41,1.35-3.31,3.44-6.35,3.79-10.16A6.5,6.5,0,0,1,925.69,400.36Z" style="fill:#fdefee;"/><path d="M892.86,402.49c1,14.81-4.14,28.66-7,42.82a13.8,13.8,0,0,1-9.09,10.6c-1.86-7.3-1.23-14.57.14-21.36s-.41-15.06,7.45-19.46a1.87,1.87,0,0,0,.33-1.79c-3.64-6.06,2.73-9.58,3.58-14.48Z" style="fill:#fff;"/><path d="M892.86,402.49l-4.61-3.66c-1.61-1.08-1.84-2.63-1.42-4.37,1.25-5.14,2.25-10.36,3.82-15.4,3.34-10.75,6.91-21.43,10.55-32.08.59-1.73,1.74-4.14,4.27-2.87,1.77.89,1.14,2.9.4,4.43-3.77,7.79-2.12,17.27-7.64,24.5,1.82,6.7-.45,13.1-1.61,19.54C896,396,895.92,399.88,892.86,402.49Z" style="fill:#fdefee;"/><path d="M911,870.7c.58,11.75-2.45,22.86-6.27,33.78-.71,2-2.68,3.7-4.22,5.39-1.93,2.11-4.77,3.48-7.12,2.06-3.1-1.89-.53-4.7.25-7,3.88-11.52,6.23-23.61,12.69-34.17Z" style="fill:#fff;"/><path d="M911,870.7l-4.66,0c.91-9,3.23-17.32,10.85-23.19C915.43,855.43,916.24,863.9,911,870.7Z" style="fill:#fdefee;"/><path d="M1360.92,1241.62c7-6.47,11.85-6.09,16.54,1.22,2.59,4,6.79,7.52,4.57,13.29a3.68,3.68,0,0,0,.72,2.76c9.66,14.23,4,29.6,2.87,44.44-.53,6.71-5.38,12-11.95,14.77-2.33,1-4.29,1.89-4.57,4.59-.92,8.82-4.48,16.48-9,24.07-7.35,12.28-17.94,20.82-30.49,26.41-5.15,2.29-12.33,1.38-18.23.19a88.68,88.68,0,0,1-13.23-4.06c-16.85-6.3-26.76-25.3-24.39-43.54.4-3.11-.38-6.8,2.78-9.86a12.66,12.66,0,0,1,6,8.24c1.14,5.56,4.53,10.32,5.49,16a10.41,10.41,0,0,0,4.2,6.62c8.51,5.93,17.74,10.15,28.24,11.16a5.5,5.5,0,0,0,3.75-.69c8.91-5.59,16.9-12.37,22.57-21.17,5-7.78,3-11.75-6.14-12.18-11.22-.53-19.24-5.86-26-14.15-7.44-9.09-6-21.91,3.39-28.85,1.06-.78,1.83-1.94,2.88-2.75,6.36-4.91,13-7.87,21.06-3.64,2.6,1.37,5.76,1.63,8.51,2.77,7.43,3.08,15,6.15,15.12,16.15,0,1.7,1,3.77,2.68,3.7,2.11-.09,3-2,3.11-4.29.84-14.7-2-28.9-5.22-43.11C1365.32,1246.11,1362.78,1244.21,1360.92,1241.62Zm-10.1,65.92c-.52-13.28-.52-13.26-11.94-15.36-1.61-.3-3.15-1.05-4.77-1.27-5.21-.71-8,2.85-6.39,7.86,2,6,6.88,9.09,13.59,8.79C1344.27,1307.43,1347.23,1307.54,1350.82,1307.54Z" style="fill:#4eb8cb;"/><path d="M1168.55,1284.59h-.17q0,.92,0,1.83Z" style="fill:#fdefee;"/><path d="M595.94,491.55c-5.52-8-15-8.88-22.33-2.67-5.41,4.59-7.75,10.45-8.28,17.25-.7,9-3.61,16.67-11.21,22.3-7,5.18-12.63,4.11-15.25-4.05-2.8-8.7-3.9-17.49,3.63-24.91a9.14,9.14,0,0,0,2.32-4.3c2.27-10.06,2.17-20.38,2.33-30.58.09-6.08-3.07-7.65-8.64-5.45-10.82,4.28-20.2,11.39-25.21,21.51-10.79,21.8-12.42,44.79-1.8,67.27,5.82,12.32,14.27,22.44,28.19,20,17.78,1.13,27.32-2.83,40.71-16.24,13-13,18.81-29,19.71-47.09C600.35,499.59,598.62,495.42,595.94,491.55Z" style="fill:#2c8799;"/><path d="M914.54,1656c.14.26.42.54.39.79s-.34.47-.53.7Q913.47,1656.63,914.54,1656Z" style="fill:#fff;"/><path d="M1078.08,654.6c-2.4.15-6-1.1-9-3-10.67-6.67-21.78-12.74-31.41-20.91-6.05-5.13-10.35-12-16.19-17.46-3.91-3.66-1.79-12.43,2.73-15.46,11.66-7.81,15.7-7.57,26.95,2.23,8.54,7.44,15.46,16.44,22.64,25.09,4.63,5.58,10,10.61,13.67,17.06,1.62,2.86,4.83,5.42,3,8.86-1.74,3.2-5.64,3-9,3.24C1080.81,654.32,1080.15,654.4,1078.08,654.6Z" style="fill:#4eb8cb;"/><path d="M654.86,1104.16l-1.39,1.5c-5.59,9.22-14.94,13.48-24,18.16-2.93-.72-5.89-2.05-8.61.52l-.56.14a5,5,0,0,0-5.39-.28l-.47-.39-.48.37c-1.66-1.08-3.34-3.12-5-3.08-11.09.26-14.62-10.42-22.29-15a2.84,2.84,0,0,1-.91-3.58c2.47-5.7.46-10.39-1.59-15.94-1.77-4.81.27-11.26,2.57-16.34,2.83-6.24,6.86-11.91,9.35-18.39a7.16,7.16,0,0,1,5-4.57c1.26-.31,2.63-.16,3.6-1.33,10.55-12.83,24.34-8.91,37.34-6.4,3.26.63,7.09,3,10.53,4.91,11.93,6.53,15,17.72,16.69,29.77.34,2.36-1.05,4.27-2,6.4A249.86,249.86,0,0,1,654.86,1104.16Z" style="fill:#2c8799;"/><path d="M589.35,962.65c.42,1.26.31,2.39-.94,3.13-.09.05-.62-.34-.67-.59-.33-1.45.16-2.37,1.79-2.39Z" style="fill:#f3bb1c;"/><path d="M685.67,1054.79c2.95-10.19-1.87-19.87-2.09-29.86,0-1.94-2.47-2.9-4.13-4l-.37-2.25c.08-4-2.17-6.3-5.62-7.74-5.89-8.06-10.12-17-18-24C636.43,970,614.6,962,589.35,962.65h0c-4.38-3.66-9.15-2.07-12.92.39-10.37,6.79-22.17,10.66-32.95,16.77-13,7.4-23.53,15.67-30.11,29a6.59,6.59,0,0,1-2,2.13c-3,2.25-3.19,5.27-3.45,8.77-.47,6.29-.48,13.25-3.29,18.55s-2.38,10.28-2.28,15.38c.1,4.81,3.1,9.54-.26,14.4-.83,1.21.19,2.61,1.61,3,4,1.2,4.32,3.52,2.47,6.82-.72,1.28.12,2.52.55,3.77,2.73,7.78,5.13,15.68,10.66,22.15s8.41,15.11,17.75,17.45c4,8.77,11.78,9.83,20.08,9.94.42,0,.82,1,1.24,1.5,6.41,6.18,15.1,4.63,22.75,6.58.73.19,1.93-1.46,2.91-2.26h0l9.51-.55c4.92.57,10,3.11,14.42-1.48,4.07-2.77,9.34-1.31,13.48-3.83,15.34-2.13,26.08-11.71,36.18-22.34a1.74,1.74,0,0,0,1.29-1.91,8.44,8.44,0,0,0,4.49-3.86c6.32.54,7.32-6.08,11.44-8.5l.3-.32c2.34-1,3.08-2.85,2.87-5.23l3.35-5.63c3.35-1.07,3.1-4.63,4.76-6.8,3.19-4.15-.9-5.45-2.44-7.8l1.85-1.91c2.26-.65,3-1.9,1.58-4A20,20,0,0,0,685.67,1054.79Zm-96.27-92a2.31,2.31,0,0,1-1,3c-.09.05-.62-.34-.67-.59C587.43,963.78,587.88,962.88,589.4,962.81Zm65.46,141.35-1.39,1.5a3.53,3.53,0,0,0,1.71,3,3.53,3.53,0,0,1-1.71-3c-5.59,9.22-14.94,13.48-24,18.16.61.9,1,1.69.38,2.34.64-.65.23-1.44-.38-2.34-2.92-.72-5.89-2.05-8.61.52l-.56.14.56-.14h0l-.56.13a5,5,0,0,0-5.39-.27l-.48.17.48-.17-.47-.39-.48.38c-1.66-1.08-3.34-3.12-5-3.08-11.09.26-14.62-10.42-22.29-15a2.84,2.84,0,0,1-.91-3.58c2.47-5.7.46-10.39-1.59-15.94-1.77-4.81.27-11.26,2.57-16.34,2.83-6.24,6.86-11.91,9.35-18.39a7.16,7.16,0,0,1,5-4.57c1.26-.31,2.63-.16,3.6-1.33,10.55-12.83,24.34-8.92,37.34-6.4,3.26.63,7.09,3,10.53,4.91,11.93,6.53,15,17.72,16.69,29.77.34,2.36-1.05,4.27-2,6.4A249.9,249.9,0,0,1,654.86,1104.16Z" style="fill:#fff;"/><path d="M900,1196.4c-2.46-.24-3.06-2.08-3.39-4-.25-1.43.4-2.61,2-2.41,1.83.22,4.08.35,4.11,3A3.54,3.54,0,0,1,900,1196.4Z" style="fill:#f3bb1c;"/><path d="M1463.64,101.24c-1.78,6.87-3.4,13.28-5.13,19.66a4.62,4.62,0,0,1-4.22,3.64c-2.29.25-4.61.27-6.76,1.43-2.51,1.35-5.14,3.93-8,1-2.68-2.67-4.55-6.67-3.36-9.87,1.79-4.84.73-8.94-.23-13.5-2.51-12,2.53-18.23,14.9-19,.58,0,1.5-.2,1.71.09C1456.45,90.12,1462,94.5,1463.64,101.24Z" style="fill:#e8686a;"/><path d="M1268.82,180.72c8.38-.07,10.71,2.75,13.12,11,1.79,6.17,1.08,11.54-.77,17.26-2.45,7.61-13.73,12.91-20.75,9.52-3.18-1.54-5.8-3.43-3.69-7.65,1.29-2.57.71-5.25-.3-7.7a21.33,21.33,0,0,1-1.19-8.75C1255.42,184.43,1259,180.8,1268.82,180.72Z" style="fill:#e8686a;"/><path d="M1258.6,123.17c2.92.39,4.37,2.41,4.19,4.13-.45,4.33,1.71,7.57,3.28,11.18,2.65,6.05-4.22,8.24-5.9,12.65-.81,2.12-6.31,2.48-9.94,2.26-.55,0-1.58-.86-1.52-1.08,1.49-5.31-5.89-10.17-.77-15.62,2.51-2.67,2.54-6.53,4.74-9.56C1254.53,124.58,1256.87,124.34,1258.6,123.17Z" style="fill:#e8686a;"/><path d="M1247.07,111.1c-.46.35-.94,1-1.38,1-1.15-.06-1.56-.87-.86-1.82.32-.44,1.07-.56,1.63-.83Z" style="fill:#e8686a;"/><path d="M1328.28,196.86c.38-.32.81-1,1.15-.91a1.47,1.47,0,0,1,1.37,1.83c-.06.26-1.11.54-1.56.39S1328.59,197.32,1328.28,196.86Z" style="fill:#e8686a;"/><path d="M1350.82,1307.54c-3.59,0-6.56-.11-9.51,0-6.71.3-11.61-2.82-13.59-8.79-1.66-5,1.18-8.57,6.39-7.86,1.62.22,3.16,1,4.77,1.27C1350.3,1294.28,1350.3,1294.27,1350.82,1307.54Z" style="fill:#f3bb1c;"/></g></g></svg>