<svg xmlns="http://www.w3.org/2000/svg" viewBox="0 0 408.69 324.4"><title>Logged out_openSpace</title><g id="Layer_2" data-name="Layer 2"><g id="Layer_1-2" data-name="Layer 1"><path d="M54,271.69a52.06,52.06,0,0,0,6.73,4.18,44.08,44.08,0,0,0,9,4.13,22.28,22.28,0,0,0,17.08-2.1,41.75,41.75,0,0,0,7-5.48c11-10,21.52-20.69,33.94-28.86,3.29-2.17,6.73-4.17,9.58-6.89s5.09-6.33,5.24-10.27a12.33,12.33,0,0,0-8.15-11.6c-1.85-.66-3.86-.91-5.54-1.92-2.61-1.57-3.89-4.64-4.58-7.6s-1-6.07-2.38-8.78-4.27-5-7.26-4.44a10.21,10.21,0,0,0-4.28,2.36C94.7,206.76,79,219.11,63.55,231.75c-4,3.25-7.91,6.5-12.65,8.57-3.16,1.38-5.35,2.24-6.43,5.8C41.73,255.19,46.83,266.15,54,271.69Z" style="fill:#fffffe;"/><g id="qszi57"><path d="M0,238.09a2.26,2.26,0,0,0,.63-1.73,42.27,42.27,0,0,1,1.53-6.43,5.47,5.47,0,0,1,1.56-2,19,19,0,0,1,10.22-5.23,30.35,30.35,0,0,1,8.27-.26,26.17,26.17,0,0,1,8.35,2,26.79,26.79,0,0,1,7,4.6,50.52,50.52,0,0,1,4.67,5A15,15,0,0,1,45,241.15c.05.33-.16.73.35,1.07a12.32,12.32,0,0,0,.25-4.8C45.4,232,42.47,228,38.5,224.6c-2.19-1.89-4.57-3.5-6.87-5.22A16.71,16.71,0,0,0,26,217C24,216.46,22,216,20,215.66a18.8,18.8,0,0,0-7.1-.19c-.74.14-.84-.3-1.17-.6s-.25-.73,0-1.08a21.4,21.4,0,0,1,6.7-5.89c1.44-.79,2.68-1.94,4.09-2.8s2.8-1.83,4.26-2.58c1.68-.85,3.44-1.61,5.17-2.32a13.14,13.14,0,0,1,9.45-.48,18.15,18.15,0,0,1,9,7,26.93,26.93,0,0,1,5.15,16.58c0,1.58.32,3.18-.07,4.75s-.2,3.09-.95,4.61c-.49,1-.84,2.17-1.27,3.26a6,6,0,0,1-1.91,2.52c-.74.53-2.05.56-2,1.94,0,.06-.22.2-.31.18-1.13-.27-1.24.52-1.44,1.3a19.1,19.1,0,0,1-.69,1.91c-.89.33-1.3-.13-1.72-.93-.06.87-.08,1.74-.18,2.61-.21,1.82-.46,3.63-.7,5.45,0,.09-.11.19-.08.25.25.52.66,1.36,0,1.48a2.45,2.45,0,0,1-2.2-.73c-2.76-3.2-6.73-4-10.49-4.89-2.41-.58-5-.28-7.55-.25-2.94,0-5.51,1.23-8.24,2-4.45,1.19-8,3.94-11.85,6.29-.44.27-.3,1.54-1.43.86a3.93,3.93,0,0,1-1.91-2.72c-.23-1.07.13-2.25-.61-3.22V239.46c.47-.37.49-.73,0-1.1Z" style="fill:#183848;"/><path d="M355.23,84.07c-.94,1.5-2.16,2.83-2.61,4.61-.17.68-1,.48-1.42,1.13a26,26,0,0,1-3.28,4.79c-1.5,1.62-2.36,3.77-4,5.14-1.11.93-1.71,2.19-2.77,3.13a23.88,23.88,0,0,0-3,3.68,107.34,107.34,0,0,1-7.37,8.55c-.59.64-.47,2.08-1.9,1.86.37.78-.31,1-.68,1.5-1.19,1.61-2.6,3-3.77,4.66s-2.71,3.12-4,4.7c-2.21,2.62-4.65,5.05-7,7.55a72.8,72.8,0,0,1-6.53,5.72,16.6,16.6,0,0,0-3.33,3.36,20.82,20.82,0,0,1-2.2,2.66c-2,2.09-4,4.09-6.17,6a109.79,109.79,0,0,0-8.43,7.85c-1.16,1.3-3.05,2.16-4.25,3.43-1.47,1.57-3.34,2.49-4.87,3.91-2,1.86-4.28,3.42-6.44,5.11-1.49-.69-2.54-2-3.88-2.87a2.47,2.47,0,0,0-3.82-1.57c-.35.26-.44.85-.93.94a7.45,7.45,0,0,0-3,1.88,62.81,62.81,0,0,1-5.22,4c-.38.23-.86.16-1.22.53-1.65,1.73-3.87,2.68-5.74,4.1-1.16.89-2.78,1.56-3.45,2.56-.84,1.25-2.07,1.72-3,2.62-2,1.9-4.29,3.57-6.42,5.38-1.25,1.06-2.57,2.07-3.88,3s-2.79,2.19-4.16,3.34c-1,.87-1.85,2-2.93,2.72a3.7,3.7,0,0,0-1.44,4.29c.27.84,1.39,1.44.83,2.54a7.24,7.24,0,0,0-3.12.64,7.53,7.53,0,0,1-4.78.19,16.86,16.86,0,0,0-3-.66,4.67,4.67,0,0,1-2.86-1.4c-.33-.34-.76-.49-1.09-.79a5.38,5.38,0,0,1-2.59-.94c-.22-.21-.25-.67-.61-.67-1.41,0-2.05-1.3-3.12-1.89a22.35,22.35,0,0,1-3-1.82c-.59-.46-1.15-1.22-2.09-1.09-.51-.23-.83-.75-1.27-1-2.14-1.12-3.44-3.49-6-4,0-1.71-2.52-.7-2.77-2.54-.08-.55-1.47-1.39-2.32-2-1.45-1.1-2.41-2.73-3.91-3.83a11.18,11.18,0,0,1-2.81-2.83c-.78-1.22-1.91-2.16-2.58-3.52a6.74,6.74,0,0,0-2-2.26,5.69,5.69,0,0,1-1.82-2.23c-.7-1.62-2-2.83-2.86-4.3s-2.33-3-3.35-4.54c-1.61-2.44-2.61-5.28-4.23-7.77a3.77,3.77,0,0,1-.69-1.75,2,2,0,0,0-.88-1.58,6.77,6.77,0,0,0-.08-1.76c-.7-2.23-1.53-4.39-2-6.72-.41-1.92-.51-3.92-1.1-5.81,0-2.29-.06-4.57.14-6.87a14,14,0,0,1,.76-3.91l2.94,1.24,0,0c-.06.68.52.68.91.77a5.2,5.2,0,0,1,3.26,1.6,1.48,1.48,0,0,0,1.3.28c1.49-.2,2.31-1.29,3.43-2a38,38,0,0,0,4.28-3.51c1.26-1.09,2.3-2.46,3.66-3.47,1.73-1.27,3.57-2.41,5.4-3.51a31.36,31.36,0,0,1,3.34-2.21c.54-.23,0-.86.59-.82a1.71,1.71,0,0,0,1.87-1.22,1.77,1.77,0,0,1,.93-.74,5.7,5.7,0,0,0,2.17-1.74c.17-.23.6-.55.73-.49,1.26.63,1.69-.77,2-1.18,1.2-1.43,2.84-2.32,4.07-3.71.87-1,2.5-1.7,3.13-2.66.87-1.33,2.26-1.75,3.14-2.85,1.22-1.54,3.18-2.3,4.2-4.08.24-.42.16-1,.63-1.3s1.69-.37.77-1.61c-.39-.52-.21-1.46-1.14-1.68-.13-.29-.31-.51-.68-.4h0A4,4,0,0,0,206,91.47c-1.17-1-2.74-.82-4-1.6a.67.67,0,0,1,.35-.81c2.34-.94,3.89-2.88,5.75-4.45,1-.87,1.86-2.15,2.85-2.72,1.56-.89,2.64-2.44,4.48-3,.8-.23,1.36-1.32,2.18-1.88,1.79-1.23,3.55-2.49,5.32-3.74,2.43-1.72,5.3-2.79,7.56-4.65s5-2.53,7-4.48c.6-.57,1.07-1.47,2.17-1,.08,0,.28-.08.35-.18,1.15-1.58,2.91-2.17,4.59-2.95a13,13,0,0,0,2.24-1.64c1.71-1.31,3.59-2.32,5.35-3.52,2.19-1.48,4.57-2.64,6.72-4.17a43.38,43.38,0,0,1,4.73-2.91c1-.52,2.18-.55,3-1.45a11,11,0,0,1,4-2.26c.28-.11.66-.3.66-.64,0-.58,0-.47.53-.26.79.33,1.38-.61,1.87-1a44.88,44.88,0,0,1,7.54-4.26c1.84-.82,4-1.28,5.6-2.31s3.5-.79,4.92-2c.63-.51,1.53-.41,2.31-.73,1.67-.68,3.06-1.92,4.86-2.32.27-.06.57-.24.79-.17,1.35.44,1.95-.3,2.34-1.86.28,1.05.43,1.76,1.24.75.31-.39,1.19-.32,1.81-.46.34,1.15,0,2.62,1.54,3.21a.64.64,0,0,1-.05.33c-.7.11-.17.36-.13.63.13,1,.42,1.93.53,2.87.23,1.84.53,3.67.79,5.51.09.64.87.94.75,1.29-.49,1.36.75,2.16,1,3.3.26,1.31,1.59,2.36,2,3.78.18.62.71.46,1,.66.61.38-.78.71-.29,1.32,0,0,0,.09.06.12a9,9,0,0,1,2.45,4c.56,1.88,3,2.21,3.47,4.3a2.1,2.1,0,0,0,1.88,1.6c0,2.23,2.4,2.85,3.15,4.61a5.29,5.29,0,0,0,1.58,2c1.55,1.2,2.9,2.63,4.4,3.88,1.25,1,2.44,2.46,3.84,3,1.69.65,2.75,2.58,4.82,2.3.42,1,1.66.37,1.89.62a5.49,5.49,0,0,0,3.2,1.88c1.63.3,2.89,1.5,4.46,2C350.06,83,352.72,83.23,355.23,84.07Zm-179.5,85.14a3.1,3.1,0,0,0,1.22,3.24c1.78,1.19,3.85,1.91,5.7,3.06,1.38.86,3,1.34,3.9,2.83.31.49.85.76,1.25.29.95-1.12,2.29-1.74,3.28-2.79.31-.33.3-.93.77-1.09,1.76-.6,2.72-2.24,4.25-3.19a26.57,26.57,0,0,0,4.29-3.33c2.15-2.06,5.12-3,7.13-5.22.19-.21.58-.23.86-.38a15.82,15.82,0,0,0,2.91-1.55c1.17-1,2.49-1.78,3.71-2.69,1.73-1.3,3.78-2.21,5.36-3.65,2-1.84,4.5-3,6.52-4.8.82-.74,1.46-2,2.85-2,.15,0,.33-.41.42-.66s0-.57.4-.6a2.5,2.5,0,0,0,2-1.68c.5-1,1.65-1.79,1.26-3.18a6.88,6.88,0,0,0-1-1.85,11.67,11.67,0,0,0-3.58-6.14,2.66,2.66,0,0,0-2.27-1c-2.09.28-4.14.76-6.2,1.19a13.68,13.68,0,0,1-3.14.5,13.44,13.44,0,0,0-5.18.45c-.86.33-1.74,0-2.67.56-.75.44-2.05.35-3.09.52a51.37,51.37,0,0,0-5.14.94c-1.37.37-3,0-4.08,1.32a23.41,23.41,0,0,1-2.32,2.33c-1.94,1.79-3.92,3.54-5.93,5.26a18.61,18.61,0,0,0-1.54,1.31c-.79.84-1.86,1.29-2.69,2.17s-1.89,1.39-2.79,2.15c-1.43,1.2-2.34,2.95-4,3.89-1.09.6-1.59,2-2.68,2.45-1.74.78-2,2.74-3.45,3.74-.07,0,0,.34.06.49.19.51.4,1,.62,1.5.45,1,1.28,2.17,1.32,3C174,168.12,174.45,168.81,175.73,169.21Zm143.76-54.75c.47-.4.79-.82.3-1.42.27-.34.42-.82,1-.41.31.2.69-.06.5-.48-.64-1.42.65-2.32.9-3.5.2-.94,1.63-1.53.82-2.87a2.75,2.75,0,0,1,.5-2.09c1.08-1.23.93-1.68.06-2.38.21-.3.85-.08.71-.87a7.64,7.64,0,0,1,.17-3.91,6.65,6.65,0,0,0-.24-4.09,17.34,17.34,0,0,1-.48-4.63,19.41,19.41,0,0,0-.55-3.43c-.19-1.08-.8-2.14-.71-3.34,0-.4-.3-.94-.4-.86-1,.77-1-.41-1.49-.61,1.14-.67,1.2-1.71.45-2.8a4.44,4.44,0,0,1-1-2.53,1.29,1.29,0,0,0-.94-1.58c-1.41-.39-1.21-1.69-1.51-2.59s0-.89-.78-.7-.91.08-.54-.59.08-1-.42-.65c-1.19.74-.79-.19-1-.72s.06-1.69-1.46-1.46c-.78.12-2.5-1.11-2.32-1.7.54-1.78-1.59-1.05-1.58-2.08-1,0-1.47-.68-1.89-1.48-.27-.51-.88-1-1.35-.89a2.45,2.45,0,0,1-2.69-1c-.24-.27-.57-1.68-1.47-.3-.28.43-.72-.3-.71-.75a6.54,6.54,0,0,1,.29-1.16c.11-.54-.35-.74-.67-.9-.51-.26-.58.07-.48.5a.4.4,0,0,1-.28.16c-1.27-.25-2.4-1.13-3.82-.75-.28.07-.39-.31-.32-.62-.68.05-.74-1.15-1.24-.87-.78.44-1.13,0-1.75-.22-1.06-.34-2-1.39-3.31-.77a.51.51,0,0,1-.6-.22,3.37,3.37,0,0,0-2.85-1.15c-1.45,0-3,.42-4.4-.22-.14-.06-.76-.25-.9.3-.09.34-.18.31-.54.2s-.61-1.52-1.43-.28c-.42.65-1.12-.91-1.7-.19s-.53-.79-.87-.22c-.48.8-.91,1-2,1a4.69,4.69,0,0,0-3.06,1.06l-.06.05c-.87-.32-1.87.76-2.68-.24,0,0-.18,0-.25.05-.9.59-2,.82-2.87,1.37-1.12.7-2.53,1-3.33,2.16-.06.09-.28.18-.35.14-1.22-.68-1.87.58-2.53,1A31.26,31.26,0,0,0,255,61.71c-.47.44-1.28,0-1.61.82a6.2,6.2,0,0,1-2.34,3A4.89,4.89,0,0,0,249.81,67c-.71.92-1.35,1.9-2.14,2.75-1.06,1.14-1.82,2.49-2.83,3.68-1.45,1.71-2,4-2.66,6.13-.22.66-.92.8-1,1.63-.21,1.63-1.7,3-1,4.87-1.25,1.22-.46,3-1.19,4.35-.38.7.52,1.06.29,1.52-1.19,2.43-.39,5-.74,7.53-.08.56.66,1.43.44,1.75-.75,1.07.6,2,0,3,1.3,2,1.05,4.61,2.36,6.72a5.56,5.56,0,0,1,1.14,2.45,4.3,4.3,0,0,0,1.25,2.66,9,9,0,0,1,1,1.26c1,1.71,1.77,3.65,3.54,4.89.35.25,1,.68,1,1.3-.07,1.11.7,1.47,1.45,1.92a38.37,38.37,0,0,1,4.39,3.32c2.91,2.38,5.46,4.21,8.75,5.29.47.16,1.2.21,1.31,1,0,.34.44.38.77.46,1.15.29,2.4.25,3.36,1.23a1.72,1.72,0,0,0,1.33.56c2.15-.49,4,1.07,6.07.92,1.43-.1,2.88.2,4.33.2,1.22,0,2.45-.38,3.65.2a1,1,0,0,0,.79.07c1.63-1,3.52-.36,5.26-.83s3.37-.76,5.05-1.18a13.68,13.68,0,0,1,2.36-.8,4.62,4.62,0,0,0,3.78-1.54.44.44,0,0,1,.61-.12c.56.39,1,0,1.37-.28,1.75-1.1,2.86-2.92,4.77-3.92,1.75-.92,2.56-3.11,4.55-3.88.24-.09.18-.37.27-.55.47-.93.9-2.17,1.86-2.4,1.38-.32.54-2.21,1.95-2.25a.73.73,0,0,0-.08-.25c-.61-.72,0-1,.5-1.11a.83.83,0,0,0,.72-1,3.74,3.74,0,0,1,.81-2.37A2.56,2.56,0,0,0,319.49,114.46Z" style="fill:#e86367;"/><path d="M196.66,198.55c.94-.13,1.5.63,2.09,1.09a22.35,22.35,0,0,0,3,1.82c1.07.58,1.71,1.89,3.12,1.89.36,0,.39.46.61.67a5.38,5.38,0,0,0,2.59.94,30,30,0,0,1-2.85,6.93c-.75,1.24-1.61,2.41-2.44,3.61-.15.22-.51.4-.52.61-.09,1.81-1.54,2.92-2.45,4.15a36.08,36.08,0,0,1-3.25,4.22,12,12,0,0,0-1.75,2.62,19.46,19.46,0,0,1-3.47,4.36c-1.56,1.49-2.64,3.35-4.27,4.79-1.3,1.15-2.6,2.37-3.86,3.6-1.53,1.49-3.45,1.34-5.3,1.24-.77,0-.82-1.08-.8-1.71a17.33,17.33,0,0,1,.69-4.86,8.62,8.62,0,0,0-.14-3.47c-.46-2.61-.18-5.21-.31-7.82,0-.49.23-1.17-.34-1.34s-.89.4-1.14.83c-1.55,2.6-4,4.47-5.56,7.09a1.68,1.68,0,0,1-.75.56c-1.59.82-2.56,2.34-3.87,3.48-2,1.77-4,3.7-6.45,5a27.2,27.2,0,0,0-3.16,2.4,42.4,42.4,0,0,1-5.58,3.25c-2.44,1.25-4.91,2.44-7.37,3.66a53.3,53.3,0,0,1-6.54,2.58c-.34.12-.68.11-.92.44-.08.11-.46.14-.47.13-.37-1.11-1.72-1.15-2.21-2s.06-1.7.41-2.56c.57-1.42,2-2.41,2-4.06a2.44,2.44,0,0,0,.46-.65c.56-1.93,1.12-3.86,1.6-5.8.14-.57.49-1.21.05-1.82a35.55,35.55,0,0,0,1.33-7.43c0-.16,0-1.11-.57-.59-1.48,1.47-3.41,2-5.24,2.7-2.14.84-4.05,2.18-6.29,2.8-1.12.31-2.27.44-3.4.79a16.8,16.8,0,0,1-3.3,1,40.15,40.15,0,0,1-4.59.61,4.55,4.55,0,0,0-1.64.56c-1.47.51-3,.23-4.48.5-3.57.65-7.2.34-10.77.87-.82.12-1.65.17-2.48.25-.11-.36-.42-.42-.73-.51-1-.29-1.38-1-1.86-1.92-.6-1.13,0-1.92.14-2.86A40.11,40.11,0,0,0,97,224.23c1.14-2.73,2.84-5.17,4.23-7.77,1-1.84,2.11-3.59,3.23-5.33.78-1.22,1.92-2.2,2.65-3.48,1.51-2.65,4.13-4.27,6.06-6.5.95-1.1,2-2,3-3.1.54-.61,1.79-.32,1.87-1.6-1.59.09-2.87-1.28-4.53-.85a20.59,20.59,0,0,1-3.4-.77,7.46,7.46,0,0,0-4.36-.44,9.44,9.44,0,0,0-3.64-.53,30.64,30.64,0,0,0-3.9.11c-.95.07-1.75.72-2.75.48s-1.61-.38-1.31-1.53a.8.8,0,0,0-.41-1c-.49-.35-1.31-1.12.24-1.38.37-.06.58-.74.85-1.12,1.65-2.35,3.91-4.08,6-6s4-4,6.22-5.73a33.27,33.27,0,0,1,6.39-4.34c1.33-.61,2.54-1.83,3.89-2.62a14.07,14.07,0,0,1,3.83-1.71,10.1,10.1,0,0,0,2.94-1.56,7.4,7.4,0,0,1,2.87-1.52c2-.32,3.76-1.43,5.73-1.9,1.36-.32,2.72-.68,4.13-1a6.84,6.84,0,0,0-2.07-1c-3.47-1.48-7-2.92-10.39-4.49a6.22,6.22,0,0,0-2.49-.47,5.56,5.56,0,0,1-3.3-1.26.56.56,0,0,1-.18-.49c.54-1.21.64-2.55,1.56-3.68a7.82,7.82,0,0,1,3-2,21.53,21.53,0,0,1,3-1.11c1-.3,1.79-1.15,2.84-1.49.38-.12.77-.22,1.15-.33a43.13,43.13,0,0,0,4.26-1.38c1.74-.69,3.58-1,5.37-1.51,2.31-.68,4.66-1.26,7-1.76a18.6,18.6,0,0,1,3.3-.75c1.44-.05,2.76-.88,4.26-.87a9.42,9.42,0,0,0,1.85-.34c.59,1.89.69,3.89,1.1,5.81.5,2.33,1.33,4.49,2,6.72a6.77,6.77,0,0,1,.08,1.76,9.17,9.17,0,0,1-2.35.85,47.49,47.49,0,0,0-5.42,1.69c-1,.43-2,.93-3.06,1.41-1.32.62-2.64,1.23-3,2.91-.21,1-.19,1.64,1,2,.72.2,1.43.43,2.16.61,2.47.62,4.65,2,7.35,2.91-1.87,0-3.11,1-4.52,1.37a33.69,33.69,0,0,0-5.68,2.53,60.91,60.91,0,0,0-7.44,4.83c-1.18.8-1.57,2.55-3.29,2.62-.14,1.44-1.63,1.7-2.37,2.64a12.29,12.29,0,0,1-1.78,2c-.43.35-1.18.44-.76,1.29s.69,2.36,2,2.13a25.64,25.64,0,0,1,5.58-.26c2,.09,3.89.91,5.91.91.52,0,.85.59.56.79-1.37.94-2.13,2.54-3.53,3.41-1.76,1.1-2.5,3-3.63,4.51a27,27,0,0,0-2.62,4.18c-.63,1.32-1.89,2.29-2,3.89a5.28,5.28,0,0,1-.87,1.84c-.66,1.26-1.48,2.52-1,4.11.31,1,1.42,2.1,2.42,1.88,3.67-.79,7.45-.35,11.15-1.26,2.32-.57,4.64-1.17,7-1.68.39-.08.85.14,1.17-.22,1.36-1.49,3.44-1.3,5-2.32.79,1.17-.13,2.13-.18,3.16a14.59,14.59,0,0,1-2.44,7.33c-.52.78-1.13,1.72-.31,2.71a2.52,2.52,0,0,0,3.12.7c2-.85,3.95-1.65,5.83-2.67.52-.28.81-1,1.32-.94,1.48.19,2.51-.87,3.4-1.54,2.36-1.78,5.22-3,7-5.58.79-1.18,2.3-1.66,3.15-3,.71-1.12,1.89-2,2.63-3.25a8.23,8.23,0,0,1,0,2.81,10.44,10.44,0,0,0,.33,2.81,2.1,2.1,0,0,1-.27,2c-.81,1.17-.21,2.3.23,3.43a.52.52,0,0,0,.47.37,6.68,6.68,0,0,0,5-1.91,33.09,33.09,0,0,1,3.1-3.66,14.88,14.88,0,0,0,2.11-2.62c.78-1.17,1.63-2.36,2.46-3.43A27.32,27.32,0,0,0,196.66,198.55Z" style="fill:#f2bd1e;"/><path d="M313.73,27.16c.63-.9,1.66-.73,2.54-.88a10.16,10.16,0,0,1,2.33-.37c1.47.15,2.66-1,4.18-.6.93.23,2-.18,3-.17q3.3,0,6.6.23a24.05,24.05,0,0,1,6.06.64,64.87,64.87,0,0,1,6.28,2c2.9,1.27,6.18,1.69,8.74,3.75,1,.82,2.12,1.53,3.07,2.44.35.33.49.32.94-.07,2.19-1.89,4.5-3.65,6.75-5.48,1-.84,2-1.75,3.06-2.58a46.24,46.24,0,0,0,4.34-4.09c.54-.55,1.64-1,1.91-.67.58.67,1.51,1.38,1.17,2.57a4.12,4.12,0,0,1-1.57,2.33c-1.91,1.37-3.32,3.36-5.26,4.6-.89.57-1.33,1.74-2.55,1.87a1.41,1.41,0,0,0-.84.65c-1,1.55-2.55,2.51-3.89,3.7-.44.39-.59.53-.35,1.17a10.35,10.35,0,0,0,1.42,2.93,10.48,10.48,0,0,1,1.69,3.2,63.93,63.93,0,0,1,2,6.16,22.51,22.51,0,0,1,.2,3.5,32.3,32.3,0,0,1-.6,6,52.67,52.67,0,0,1-1.36,5.7,29.36,29.36,0,0,0-1.13,3.33.63.63,0,0,1,0,.13c-2.09-.06-.22,1.71-1.08,2.39-.47.37-.32,1.42-1.2,1.78-.46.19-.34.82-.34,1.25a2.14,2.14,0,0,1-.53,1.62l-6.83.54c.08-.76,1-.23.94-.75-.73-1-1.82-.31-2.69-.89-.31-.21-1.12.23-1.29-.68,0-.13-.44-.1-.59.11-.74,1.06-1,.67-1.07-.34a.43.43,0,0,0-.41-.46c-1.43-.07-2.62-1.22-4.13-.88l.24-.25c.22-.38.26-.62-.3-.76-1.09-.28-2.13-.75-3.23-.93a1.38,1.38,0,0,1-1-.43A15,15,0,0,0,336.25,68c-.93-.73-2.18-1-2.9-2s-1.65-1.68-2.37-2.63c-.29-.38-.57-1.12-1.3-1.15l-.06,0c.29-.41.31-.92-.22-.94-1.3-.05-1.62-1.1-2.17-1.91-.11-.16,0-.48-.36-.37-1,.3-1.08-.8-1-1,.21-.79-.35-1-.67-1.44-1-1.38-2.3-2.41-3.31-3.76-.56-.75-.32-2.19-1.54-2.27s-1-.82-1.23-1.42c-.17-.4.6-.51.32-.88-1.07-1.4-1.44-3.3-2.77-4.42a2.37,2.37,0,0,1-.91-2.09c.27-1.62-.64-2.79-1.24-4-.37-.77-.43-1.11.66-1.45-.91,0-1.58,0-.85-.85s.47-1.22-.45-1.6.93-1.25-.18-1.72a3.15,3.15,0,0,0-.63-.12c.33-.68,1.39-1.11.77-2S313.57,28.07,313.73,27.16Zm22.14,6.13c0-2.25-2.63-3.86-4.6-3.43-.34.07-.35.24-.38.57a16.46,16.46,0,0,0,1.39,8.35c.35.77.75,1.76,1.4,2.08a14.16,14.16,0,0,0,2.8,1c.75.18,1.35-.6,1.78-1.17s-.07-.89-.61-1.11A1.09,1.09,0,0,1,337,38.2a5,5,0,0,0-.17-1.2C336.79,35.59,334.76,34.69,335.87,33.29ZM321,38.17A22.71,22.71,0,0,0,321.6,41c.18.54.8.13,1.22.15.06,0,.13.11.17.18.58,1,1.61.75,2.48.77,1.09,0,1.59-.62,1.1-1.59s-.26-1.81-.69-2.72-1.07-1.9-.32-3a.35.35,0,0,0-.24-.54c-.65-.08-.63-.53-.64-1a.67.67,0,0,0-.51-.71,23.39,23.39,0,0,0-2.57-.78c-1.17-.2-1.51.23-1.32,1.46C320.52,34.76,321.11,36.24,321,38.17Zm24.89-4.48c.49-1.12-.51-1.29-.93-1.69a3.22,3.22,0,0,0-3.18-.74c-1.23.34-1.25,2.21-.37,3.54s1.57,2.71,3.64,2.52c.94-.08,2.25-.43,2.41-1.42,0-.28-.05-.73-.27-.69C345.56,35.5,346.42,34,345.85,33.69Z" style="fill:#f2bd1e;"/><path d="M36.29,253.44a16.42,16.42,0,0,1,7.06,1.38c.24.09.49.05.61.41a37.54,37.54,0,0,0,4.76,8.65A40.85,40.85,0,0,0,53,269.49c.42.44.11.68-.23,1-1.85,1.56-3.72,3.11-5.52,4.73s-3.77,3.6-5.62,5.44c-3.5,3.49-7.16,6.81-10.63,10.32a65.17,65.17,0,0,0-4.51,5.4A20.2,20.2,0,0,1,24.1,299a5.49,5.49,0,0,0-.66.69c-.34.42-.06,1.4-.88,1.31a5.23,5.23,0,0,1-2.22-.6c-2.2-1.31-3.54-3.41-5-5.39A65.42,65.42,0,0,1,10,287.51c-2.45-4.53-4.8-9.12-5.78-14.25A21.35,21.35,0,0,1,4,269a3.35,3.35,0,0,1,1.3-2.7c2.15-1.81,4.09-3.86,6.55-5.31,5.4-3.17,11-5.84,17.19-7A37.15,37.15,0,0,1,36.29,253.44Z" style="fill:#183848;"/><path d="M222.87,207c.56-1.09-.57-1.7-.83-2.54a3.7,3.7,0,0,1,1.44-4.29c1.08-.74,1.9-1.85,2.93-2.72,1.36-1.15,2.71-2.28,4.16-3.34s2.63-2,3.88-3c2.13-1.81,4.39-3.48,6.42-5.38,1-.9,2.19-1.36,3-2.62.67-1,2.29-1.67,3.45-2.56,1.87-1.43,4.09-2.38,5.74-4.1.35-.37.84-.3,1.22-.53a62.81,62.81,0,0,0,5.22-4,7.45,7.45,0,0,1,3-1.88c.48-.1.58-.68.93-.94a2.47,2.47,0,0,1,3.82,1.57c-.35.7.29,1.27.27,2,0,1.38-1,2.74-.21,4.15,0,.09-.09.35-.21.45-.33.27-.34.52-.37,1,0,.83,0,1.68-.11,2.52-.13,1.35-.76,2.64-.81,3.94a51.6,51.6,0,0,1-1,10.34c-.53,2.18-.84,4.4-2.37,6.28-1.72,2.12-3.87,3.82-5.49,6-.7,1-1.88,1.6-2.52,2.7s-1.94,1.79-2.89,2.69-2.22,1.63-2.79,2.74c-1,2-2.91,3.19-4.25,4.88a20.54,20.54,0,0,1-3.11,2.59c-1.29,1.08-2.33,2.47-4,3.09-.39.15-.31.54-.53.74-1.3,1.14-2.43,2.55-4.38,2.61-2.29-1.81-2.81-4.52-3.86-7s-1.87-5.08-3-7.55a16,16,0,0,1-1.75-5A3.87,3.87,0,0,0,222.87,207Z" style="fill:#55b8ca;"/><path d="M208.45,94.38c.92.22.75,1.16,1.14,1.68.92,1.24-.26,1.25-.77,1.61s-.38.88-.63,1.3c-1,1.78-3,2.54-4.2,4.08-.88,1.11-2.27,1.52-3.14,2.85-.63,1-2.26,1.67-3.13,2.66-1.23,1.4-2.87,2.28-4.07,3.71-.34.41-.77,1.81-2,1.18-.13-.07-.56.26-.73.49a5.7,5.7,0,0,1-2.17,1.74,1.77,1.77,0,0,0-.93.74,1.71,1.71,0,0,1-1.87,1.22c-.59,0-.06.59-.59.82a31.36,31.36,0,0,0-3.34,2.21c-1.83,1.1-3.67,2.23-5.4,3.51-1.37,1-2.41,2.39-3.66,3.47a38,38,0,0,1-4.28,3.51c-1.12.71-1.94,1.8-3.43,2a1.48,1.48,0,0,1-1.3-.28,5.2,5.2,0,0,0-3.26-1.6c-.39-.1-1-.09-.91-.77a.62.62,0,0,0,.1-.08s0-.05,0-.08l-.08.18-2.94-1.24a27.47,27.47,0,0,1-4.7-3.36c-.78-.69-2.21-1-2.39-2.33a.27.27,0,0,0-.19-.17c-2.57-.19-3.56-2.53-5.3-3.86a.93.93,0,0,0-.34-.22c-1.34-.23-2-.71-.68-1.88,0,0,0-.18,0-.27a.92.92,0,0,1,1-.72c.37,0,.68-.16.61-.65-.14-.94.44-1.41,1.15-1.88,1.12-.73,2.57-.92,3.51-1.88a8,8,0,0,1,2.88-1.82c1.71-.66,3-2,4.53-2.77.85-.43,1.18-1.92,2.58-1.28.19.09.21-.23.31-.36,2.09-2.66,5.3-3.8,7.89-5.78A19.14,19.14,0,0,1,171.09,98c1-.46,1.73-1.26,2.74-1.62a16.76,16.76,0,0,0,3-1.71c.66-.41.89-1.58,1.54-1.37.94.31,1.33-.28,1.87-.64a2,2,0,0,1,1.59-.43c.38.08.48,0,.8-.3A3.7,3.7,0,0,1,185.4,91c1.89.51,3.82-.11,5.65.48a.33.33,0,0,0,.13,0c1.23-.2,2.41-.66,3.67.1s3.11.76,4.68,1c1.83.27,3.42,1.68,5.41,1.1a.24.24,0,0,1,.13,0,12,12,0,0,0,2.7.3h0C207.87,94.34,208.13,94.41,208.45,94.38Z" style="fill:#55b8ca;"/><path d="M62.82,321.54c-2.4-.33-4.62-.44-6.82-.82-1.11-.19-2.29-.24-3.42-.46a56.16,56.16,0,0,1-8.46-2.91,30.94,30.94,0,0,1-6.74-3.5A53.24,53.24,0,0,1,31,308.42c-1-.94-.89-1.78.13-2.52,2.69-2,4.53-4.73,6.72-7.17,3.84-4.27,7.15-9,10.61-13.53a102.37,102.37,0,0,0,6.82-10.59c1.39-2.4,1.24-2.31,3.49-.68a24.08,24.08,0,0,0,7.7,3.26c2.36.68,4.91,1,6.78,2.92a5.56,5.56,0,0,1,.92,2.07c.88,2.09.54,4.41,1.21,6.55.15.48-.2,1-.3,1.52-.39,1.92-.18,3.87-.47,5.81-.32,2.16-.71,4.32-1,6.49a54.55,54.55,0,0,1-1.8,6.93c-.89,3.14-2.91,5.73-4.29,8.63-.63,1.31-1.44,2.85-3.41,2.8C63.54,320.9,63.37,321.91,62.82,321.54Z" style="fill:#183848;"/><path d="M90,277.88a24.21,24.21,0,0,1,5.39,1.84,21.26,21.26,0,0,1,6.58,4.94,35.34,35.34,0,0,1,3.78,6c.45.86,1,1.69,1.45,2.53a24.75,24.75,0,0,1,2.73,10.05,16.21,16.21,0,0,1-1,8.07,14.46,14.46,0,0,1-2.62,3.53c-2.14,2.55-5.06,4-8,5.41a38.52,38.52,0,0,1-8,2.76A41.06,41.06,0,0,1,82,324.24c-2.36,0-4.76-.35-7.11.15a.31.31,0,0,1-.42-.35c.11-.62-.12-1.28.41-1.87a17.34,17.34,0,0,0,3.71-7.22c.68-2.62,1.54-5.19,2-7.85.37-2-.14-3.94.26-5.9a27,27,0,0,0,.2-5.11,39.42,39.42,0,0,0-.45-4.28,18.48,18.48,0,0,0-2.79-7.65,28.13,28.13,0,0,0-2.09-2.79c-.41-.52-.44-1.07.11-1.19,1.57-.34,2.66-1.55,4.16-2,1.29-.42,2.44-.89,3.71-.07a1.1,1.1,0,0,0,1.06,0C86.55,278.33,88.26,277.72,90,277.88Z" style="fill:#183848;"/><path d="M108.68,264.14c3.88,0,7.29,1.44,10.69,3.15a27.57,27.57,0,0,1,4.85,2.78,16,16,0,0,1,5.83,8.44,11.35,11.35,0,0,1,.06,4.53,45.28,45.28,0,0,1-3.42,11.07,38.24,38.24,0,0,1-6.42,10,17.56,17.56,0,0,1-4.85,4.26c-.52.28-.42.86-.68,1.27-1.22-1-1-1.16-.49-2.89a18.25,18.25,0,0,0,1.1-6.75,27.33,27.33,0,0,0-3.93-12.11,20.76,20.76,0,0,0-5.38-6.64c-3.25-2.36-6.35-5.18-10.66-5.59-.31,0-.63,0-.95,0a1.57,1.57,0,0,1,.25-.46c2-1.72,4.13-3.28,6.11-5,1.28-1.12,2.76-2,4-3.22.82-.86,2-1.4,2.71-2.51C107.8,263.93,108.28,264.21,108.68,264.14Z" style="fill:#183848;"/><path d="M58.22,232.31A15.68,15.68,0,0,0,60,226.49a50.11,50.11,0,0,0,.23-7.88,26.34,26.34,0,0,0-1.35-8.7A41.81,41.81,0,0,0,55.71,203a12.39,12.39,0,0,0-4.78-4.7c-.37-.2-.93-.45-.84-1s.47-.77,1-1a19.6,19.6,0,0,1,9.29-1.12c2.25.32,4.55.49,6.8.7a26.93,26.93,0,0,1,8.49,2.18,11.58,11.58,0,0,1,4.21,2.66,5.75,5.75,0,0,1,1,4,38.45,38.45,0,0,1-.43,6.62c-.24,1.19-.5,2.37-.75,3.56-.32.89-.53,1.81-1.62,2.19-1.42.49-2.82,1.09-3.15,2.83,0,.11-.2.3-.26.28-1-.29-1.58,0-1.6,1.11-1.14-.08-1.51.79-2,1.57-.1.17-.42.4-.54.36-1.35-.52-1.26,2-2.67,1.25-.42,1.13-1.7,1.29-2.33,2a6.62,6.62,0,0,1-2.33,2.19c-.54.22-.66,1-1.43,1.14a4.94,4.94,0,0,0-2.14,1.5c-.39.41-.53,1-1.25,1a.42.42,0,0,0-.24-.09Z" style="fill:#183848;"/><path d="M232.52,229.33c1.94-.05,3.08-1.47,4.38-2.61.22-.19.14-.59.53-.74,1.64-.62,2.68-2,4-3.09a20.54,20.54,0,0,0,3.11-2.59c1.34-1.69,3.22-2.87,4.25-4.88.57-1.11,1.85-1.85,2.79-2.74s2.21-1.52,2.89-2.69,1.83-1.74,2.52-2.7c1.62-2.23,3.77-3.93,5.49-6,1.53-1.88,1.84-4.1,2.37-6.28a51.6,51.6,0,0,0,1-10.34c0-1.31.69-2.59.81-3.94.08-.84.06-1.69.11-2.52,0-.45,0-.7.37-1,.12-.1.26-.36.21-.45-.8-1.42.19-2.77.21-4.15,0-.73-.63-1.3-.27-2,1.34.89,2.39,2.18,3.88,2.87,2.57,2.09,2.34,4.82,2,7.73-.28,2.46,0,5-.08,7.48-.06,2.34.53,4.66-.13,7.06a7.8,7.8,0,0,0,.2,3,4.53,4.53,0,0,1-.54,3.17c-.74,1.06-.86,2.77-2.57,3-.07,0-.15.11-.19.19-1.15,2.2-3.36,3.5-4.72,5.48-.93,1.37-2,2.63-3,3.9-.75.94-1.25,2.22-2.62,2.87-1,.45-1.5,1.89-2.13,2.95a8.36,8.36,0,0,1-2.52,2.55,16.49,16.49,0,0,0-2,2.15c-.87.91-1.85,1.69-2.72,2.54-1.32,1.27-3,2.24-4,3.87a1.84,1.84,0,0,1-2.33,1,37.7,37.7,0,0,0-5.13-.63c-.49-.06-1.16.25-1.3-.6,0-.06-.23-.17-.31-.14-1.44.57-2.44-.05-3.35-1.13C233.47,229.6,232.93,229.52,232.52,229.33Z" style="fill:#f2bd1e;"/><path d="M245.13,267.55c.73.18,1,.39,1,1.14-.1,1.81,0,3.63-.07,5.43a.69.69,0,0,0,.5.79,6.2,6.2,0,0,1,3.56,1.93c.79-.62,1.43.46,2.07.24,1.27-.43,1.3.37,1.16,1.11a3.82,3.82,0,0,1-3.73,2.68,12,12,0,0,0-4.08.05c-.4.06-.43.28-.41.55.16,1.81-.37,3.57-.48,5.37-.08,1.46.42,3-.31,4.48-.16.32.14,1,.29,1.46a2,2,0,0,1-.47,2.37c-1,.7-2,.11-2.87-.43a8.86,8.86,0,0,1-3.06-3.74c-.29-.6-1.59-.85-2.11-1.61-1.25-1.8-3.29-2.83-4.48-4.71-.53-.84-1.85-1-2.2-2.08-.61.63-1.55.22-2.12.54a2.94,2.94,0,0,1-3,.23.26.26,0,0,0-.13,0c-.71,1.8-2.58.15-3.63,1.24a2,2,0,0,1-2,.22c-1.17-.43-1.53-1.09-1.13-2.25a6.3,6.3,0,0,1,3.31-3.49c.63-.34,1.23-.74,1.84-1.13.78-.49,1.58-.65.34-1.87a18.67,18.67,0,0,1-2.78-3.82,6.07,6.07,0,0,0-2.72-2.6c-.81-.37-.62-.95-.2-1.52a3.51,3.51,0,0,1,4.88-.61c1.13.84,2.55.5,3.63,1.32s2.67.75,4,1.51a7.82,7.82,0,0,0,3.66.64c.64,0,.54-.79.93-1.07a2.56,2.56,0,0,1,1.84-.74c-.42-.91.41-1.31.87-1.44,1.77-.52,2.07-2.82,3.95-3.14.17-1.25,1.53-1.53,2-2.48.3-.55.52-1,1.12-.25.19.26.49.14.75,0s.57-.12.56.14c0,1.6,1.06,3,.84,4.65C246.06,267.31,245.79,267.54,245.13,267.55Z" style="fill:#f2bd1e;"/><path d="M109.31,32.91c.51-.56,1.14-1.14-.2-1.45-.82-.19-.69-1-.9-1.55-.49-1.23-1.77-2.08-1.6-3.72A8,8,0,0,0,106,24a3.8,3.8,0,0,1-.15-3c.2-.52-.33-1.51.16-2.17,1-1.33-.17-3.05.88-4.36.24-.3.27-.86.78-.82s0,.71.56.89c-.26-.9.45-1.79-.24-2.64-.09-.11-.15-.39.07-.48,1.46-.61,1.61-2.62,3.24-3,.24-.06.27-.16.22-.46-.1-.59,1.09-1.39,1.66-1.2s1.59.81,1.42-.72a.68.68,0,0,1,.16-.37,4.71,4.71,0,0,1,3-.65c.17.1.21.21.4,0,.39-.37.79-1.12,1.25,0,.1.24.51,0,.54-.15.17-1,.7-.7,1.44-.72,2.64-.05,5.16.72,7.76.91.14,0,.37,0,.39.06.64,1.64,2.55,1.17,3.56,2.16s1.6,2.4,3,3.1c.45.23,0,.56-.1.89s-.67,1.36.62,1c.78-.22.62.41.73.8.07.76-.77.43-1,.86-1.53,2.66-4.39,3.94-6.38,6.15a6.53,6.53,0,0,1-2.41,1.9c-.67.21-.28,1-1,.91s-1.16.36-1.64.77c-.86.73-1.6,2-2.43,2.24-1.57.39-2.54,1.54-3.86,2.18s-2.83,1.62-4.2,2.44A22.33,22.33,0,0,1,109.31,32.91Z" style="fill:#e86367;"/><path d="M381.78,37.74c.21,0,.56,0,.62-.12.85-1.57,2.08-1.12,3.24-.57a8.24,8.24,0,0,0,1.93.47.78.78,0,0,1,.71.67c-.22.07-.46.13-.4.44a.26.26,0,0,0,.16.18c.31,0,.33-.24.41-.44.69.19.69,1,1.37,1.37s-.93.32-.56,1.05c.17.19,1.38-1.17.81.58-.19.58.61,1.75.46,2.75s.67,1.85,1,2.77c.28.72,1,1.42.34,2.3-.05.07,0,.27.07.36,1.07,1.47.1,3.19.51,4.65.53,1.86-.55,3.72.31,5.5.06.13,0,.61-.39.43-.26-.1-.7-.48-.63,0s-.57,1,.11,1.32a.74.74,0,0,1,.38,1.12c-.95,1.91-1,4.1-2,6-.25.52,0,1.42-.39,2.18a13.53,13.53,0,0,0-1.19,2.33,11.68,11.68,0,0,0-.49,1.71,4.13,4.13,0,0,1-.87,2.46c-.82,1-.77,2.29-1,3.48-.12.59,0,1.35-1.07,1.14-.29-.06-.4.29-.58.49a33.8,33.8,0,0,0-2.75,3.37c-.78,1.13-1.91,2.07-3.57,1.42-.3-.12-.76.19-1.15.3a26.71,26.71,0,0,1-.89-2.71,11.06,11.06,0,0,1,0-3.54,1.65,1.65,0,0,0-.27-1.31c-.6-.8.17-1.22.48-1.76a.27.27,0,0,1,.22-.1c.76.06.76,0,1-.84a3.09,3.09,0,0,1,.78-1.64c.63-.64.26-1.77.45-2.69s1.62-.69,1.6-1.77c-.06-3.1,2-5.58,2.53-8.45a14.14,14.14,0,0,0,.28-4.89c0-.3-.31-.61-.12-.91.74-1.18.22-2.5.44-3.73.26-1.4-.47-2.56-.78-3.8-.45-1.77-1.12-3.47-.5-5.33,0-.08,0-.23,0-.25-1.74-.81-.25-2.09-.45-3.12,0-.16.12-.41,0-.5a1.89,1.89,0,0,1-.21-2.42ZM379.9,86.82c-.07-.44-.23-.58-.44-.67a1.23,1.23,0,0,0-.13.34c0,.24,0,.45.35.41A.68.68,0,0,0,379.9,86.82Zm-2.4-.52c-.05.07-.14.13-.15.2s0,.2.09.21.24,0,.2-.2A.84.84,0,0,0,377.5,86.31Zm6.4-28.38s-.05-.07-.08-.07-.06,0-.09.06.05.07.08.07S383.88,57.94,383.9,57.92Z" style="fill:#e86367;"/><path d="M58.43,232.4c.72,0,.86-.6,1.25-1a4.94,4.94,0,0,1,2.14-1.5c.77-.18.89-.92,1.43-1.14a6.62,6.62,0,0,0,2.33-2.19c.63-.72,1.91-.88,2.33-2,1.41.72,1.32-1.78,2.67-1.25.12,0,.44-.18.54-.36.46-.78.82-1.66,2-1.57,0-1.11.6-1.4,1.6-1.11.06,0,.24-.17.26-.28.33-1.74,1.73-2.34,3.15-2.83,1.09-.38,1.3-1.3,1.62-2.19,1.78.08,2.55-1.46,3.7-2.36.77-.6,1.26-1.53,2.36-1.72.84-.15.68-1.35,1.49-1.6l.13.64c-.09-.65,1.2.21.8-.71s.07-1,.76-1l.06.07-.09-.05c.08-.25.29-.38.47-.55.68-.67,1.88-.57,2.26-1.62.18,0,.51,0,.52-.07.24-1.36,1.8-1.3,2.43-2.3.36-.57,1.17-.84,1.79-1.25s1.51-.81,1.74-1.78,1.21-1,1.74-1.28c1.61-.72,2.23-2.74,4.14-2.94.1-1.07,1.67-.88,1.71-2a7.46,7.46,0,0,1,4.36.44,20.59,20.59,0,0,0,3.4.77c-2.22,1.83-4.35,3.8-6.71,5.43-1.71,1.18-3,2.84-4.73,3.94a53.45,53.45,0,0,0-5.94,4.79,6.79,6.79,0,0,1-2.8,1.39c-.77.17-.59.8-.9,1.15-.87,1-2,1.55-2.94,2.55a10.4,10.4,0,0,1-2.78,2.4c-1.44.73-2.25,2.29-3.75,2.78s-2.19,1.92-3.54,2.65c-.84.45-1.61,1.66-2.65,2.25-1.56.88-2.47,2.54-4,3.4-2.2,1.19-3.9,3-6,4.45-1.6,1.09-2.94,2.67-4.6,3.74-2.18,1.41-3.57,3.85-6.19,4.66-.59,1.74-2.64,1.87-3.62,3.28A3.62,3.62,0,0,1,50,246.09a1.36,1.36,0,0,0-.62.27c-.48.37-.88,1.14-1.58.65a2.51,2.51,0,0,1-.93-2.31c0-.32.06-.63.09-.95a19.11,19.11,0,0,0,.69-1.91c.2-.78.3-1.57,1.44-1.3.09,0,.31-.12.31-.18,0-1.38,1.27-1.41,2-1.94a6,6,0,0,0,1.91-2.52c1.23,0,1.9-1,2.77-1.56a18.18,18.18,0,0,0,2.18-2h0C58.2,232.52,58.28,232.54,58.43,232.4Zm-3,3.08-.08-.09s-.08.05-.09.08,0,.06.08.09Z" style="fill:#55b8ca;"/><path d="M207.78,94a12,12,0,0,1-2.7-.3.24.24,0,0,0-.13,0c-2,.59-3.58-.83-5.41-1.1-1.57-.23-3.28-.15-4.68-1s-2.44-.29-3.67-.1a.33.33,0,0,1-.13,0c-1.83-.6-3.76,0-5.65-.48a3.7,3.7,0,0,0-2.74.85c-.32.3-.42.38-.8.3a2,2,0,0,0-1.59.43c-.54.37-.92.95-1.87.64-.64-.21-.88,1-1.54,1.37a16.76,16.76,0,0,1-3,1.71c-1,.37-1.77,1.16-2.74,1.62a19.14,19.14,0,0,0-3.38,2.12c-2.59,2-5.8,3.12-7.89,5.78-.1.13-.12.45-.31.36-1.4-.63-1.72.85-2.58,1.28-1.58.8-2.82,2.1-4.53,2.77a8,8,0,0,0-2.88,1.82c-.94,1-2.39,1.15-3.51,1.88-.71.46-1.29.93-1.15,1.88.08.49-.24.64-.61.65a.92.92,0,0,0-1,.72c-.72-.16-.86-1.1-.9-1.36-.28-2-.31-4.09-.44-6.14a1.55,1.55,0,0,1,1-1.34c1.88-.89,2.84-2.78,4.53-3.87A96.1,96.1,0,0,0,156,98.61c2-1.64,4.38-2.75,6.51-4.21,1.91-1.3,3.86-2.56,5.88-3.68,1-.53,1.92-1.11,2.91-1.57A6.15,6.15,0,0,0,174,87a1.26,1.26,0,0,1,1.27-.61c3.64.34,7.29.5,10.91.87,1.95.2,4,.59,5.91.81,2.62.3,5.17,1.11,7.81,1.16a6.94,6.94,0,0,1,2.19.66c1.22.78,2.79.65,4,1.6A4,4,0,0,1,207.78,94Z" style="fill:#f2bd1e;"/><path d="M44.39,101.84c-.53-.4-1.46-.48-1.72-1.43,0-.17-.48-.36-.7-.32-1.1.18-1.46,0-.42-.83.36-.3.19-.67.2-1,0-.63-.32-1.31.62-1.7.47-.19,0-.82,0-1.24s.23-1,.25-1.46c0-.76,1.11-2.3-1.13-1.53-.42.14-1.06-.38-1.72,0-.21.13-1-.27-.91-.91a3.42,3.42,0,0,1,1.86-2.64,2.86,2.86,0,0,0,.89-.57c.55-.61.9-1.43,2-1.12.39.11.63-.5.77-.85A25.82,25.82,0,0,0,45.86,82c.31-1.57.82-3.09,1.15-4.66s1-2.74.86-4.3c-.08-.7,1.42-1.08,2.11-.91A4.62,4.62,0,0,1,53,73.9c1.13,1.7,2.94,2.74,4.15,4.37.35.47,1.25.56,1.86.78.43.15,1.19-.66,1.81-1s.85-1.13,1.33-1.66.58-.9,1.31-.6a1.77,1.77,0,0,1,1.17,1.6c-.17,1.39-.2,2.93-2,3.56-.53.18-1,1.35-1,2.05,0,.47.94,1,1.64,1.06.94.1,1.13.44,1,1.42s.74,1.72,1.52,2.16.79,1.22.6,1.9c-.26.9-2.08,1.69-3,1.6a43.13,43.13,0,0,0-7.61-.51c-1.06.08-2.24.51-3.4.66-.38,0-.68.43-.94.87a4.5,4.5,0,0,1-2,2.08A2.58,2.58,0,0,0,48,95.94c-.25,1-1.42,1.3-1.95,2.18C45.29,99.31,45.82,100.93,44.39,101.84Z" style="fill:#f2bd1e;"/><path d="M109.31,32.91a22.33,22.33,0,0,0,5-2.33c1.37-.82,2.75-1.73,4.2-2.44s2.28-1.79,3.86-2.18c.83-.2,1.57-1.51,2.43-2.24.48-.41,1-.89,1.64-.77s.29-.7,1-.91a6.53,6.53,0,0,0,2.41-1.9c2-2.21,4.85-3.49,6.38-6.15.25-.44,1.09-.1,1-.86a7.13,7.13,0,0,1,2.23-1.57c.76-.27,1-1.78,1.64-2.62,1-1.29-.3-2.52,0-3.79.12-.44-.38-.51-.77-.51a19.38,19.38,0,0,0-7,1.07A2.11,2.11,0,0,1,131,5.34c-.72-.69-.21-1.63.09-2.31.79-1.8,2.68-2.24,4.27-3,.1,0,.36,0,.38.06.59,1.56,1.68.34,2.37.25,1.63-.2,2.89.82,4.35.93,2.34.17,1.92,2.58,3.16,3.62.28.23.05.36-.18.45s-.27.52-.18.56c1.43.66.37,1.88.56,2.79s-.59,2-1.4,2.78a14.59,14.59,0,0,0-.93,1.17c-1.42,1.67-2.36,3.73-4.25,5a.86.86,0,0,0-.31,1,30.09,30.09,0,0,0-5.2,3.94,48.23,48.23,0,0,1-4.1,3.34c-1.23.79-2.26,1.85-3.55,2.55-.8.43-1.36,1.33-2.17,1.71a53.35,53.35,0,0,0-5.33,3,5.52,5.52,0,0,1-1.38.77,3.12,3.12,0,0,0-2.21,1.83c-1.26-.45-1.85,1-2.9,1.05-1.74.15-3.06,1.94-5,1.23a.71.71,0,0,0-.61.08,9.74,9.74,0,0,1-5.68.3c-1.3-.27-1.84-1.65-2.19-2.74a15.64,15.64,0,0,1-.79-2.7c-.16-1.28-.71-3,.35-3.74s-.11-1.7.7-2a3.51,3.51,0,0,0,1.78-1.92c.33-.63,3.22-1.28,3.77-1.09s.48.23.27.71a8.42,8.42,0,0,0-.2,2.22,3.47,3.47,0,0,1-2.55,3c-.3.12-.3.31-.09.51s.25.57-.09.77-.48.39,0,.72a1.34,1.34,0,0,1,.4,1c0,1.17.79,1.18,1.63,1.2s1.84-.13,2.78-.1A3.6,3.6,0,0,0,109.31,32.91Z" style="fill:#183848;"/><path d="M108.68,264.14c-.4.07-.89-.22-1.19.28-.67,1.11-1.89,1.65-2.71,2.51-1.21,1.26-2.69,2.1-4,3.22-2,1.72-4.11,3.28-6.11,5a1.57,1.57,0,0,0-.25.46c-1.51.7-2.75,1.94-4.46,2.26-1.73-.16-3.44.45-5.18.2,0-.69-.68-.63-1-1,0-.51.46-.64.73-.89a98.57,98.57,0,0,1,9.88-7.66,6.84,6.84,0,0,0,2.31-2.42.59.59,0,0,1,.43-.28c1.6,0,2.33-1.15,3.08-2.32a3.57,3.57,0,0,1,1.11-1c2.7-1.71,4.91-4,7.51-5.84,2.19-1.52,3.9-3.62,6.3-4.89a5.5,5.5,0,0,0,2.67-2.38c.28-.61,1.07-.57,1.58-1,1.49-1.13,2.85-2.44,4.29-3.61,2-1.6,4.07-3,6-4.49,1.3-1,2.36-2.32,3.71-3.21a12.06,12.06,0,0,0,2.56-2.27c.43-.5,1.07-.13,1.52-.46.44.62.09,1.25-.05,1.82-.48,1.95-1,3.88-1.6,5.8a2.44,2.44,0,0,1-.46.65c-2,2.11-4.77,3.24-6.57,5.54-.34.44-1.26-.43-1.15.63a.19.19,0,0,1-.06.24l0,0c-.75.75-2.25.56-2.49,2,0,.19-.39.41-.63.47a5.32,5.32,0,0,0-2.48,1.72c-2,2-4.52,3.27-6.44,5.3-.13.14-.43.12-.64.17-1.34.87-2.27,2.21-3.49,3.14C110.51,262.58,109.67,263.46,108.68,264.14Z" style="fill:#55b8ca;"/><path d="M334.66,203.05c-1.33-.07-2.32-.48-3.48-.21s-1.76-.75-2.24-1.7c-.24-.48-.44-1.17-1.08-.27-.21.29-.5.13-.66-.13-1.42-2.24-3-4.35-2.89-7.26.09-1.76-.25-3.54.91-5.11.58-.78.6-2.07,2.05-2.05.41,0,0-1,.43-1,1.25.18,1.67-1.1,2.74-1.34a7.89,7.89,0,0,1,3.47-.11,1.7,1.7,0,0,0,1.09-.22c1.76-.64,3,.7,4.44,1.18.89.31,2.42,1.32,2.45,2.25,0,1.18.83,1.79,1.16,2.67.44,1.18.76,2.79.4,3.43-.77,1.4.8,2.77-.39,4a4.86,4.86,0,0,0-1.47,2.39c0,.12-.18.31-.25.3-1.42-.23-1.68,1.37-2.63,1.7C337.28,202.09,335.83,202.54,334.66,203.05Z" style="fill:#55b8ca;"/><path d="M222.58,30.43c0-1.15.1-2.22,1.22-3,.51-.34,1-1.08.65-1.65-.24-.4-.67-1.12-1.5-.83-.38.13-.5-.32-.76-.48a3.45,3.45,0,0,0-2.93-.72c-1.43.48-1.11-.65-1-1.15a3.44,3.44,0,0,1,3.36-2.5,10.77,10.77,0,0,0,3-.06,37.47,37.47,0,0,1,4-.77c.68-.14.82-1,1.17-1.5a5.53,5.53,0,0,1,2.05-2.21c.07,0,.17-.15.15-.19-.69-1.8,1.82-2,1.75-3.58,0-.51.56-.58,1.15-.31a7.07,7.07,0,0,1,4,4.49c.25.76.82,1.2,1.65.59a3.21,3.21,0,0,1,2.15-.49,2.09,2.09,0,0,0,1.74-.42c.49-.43,1.38.17,1.94.49.37.21-.36.82-.36,1.08a3.77,3.77,0,0,1-1.28,2.5,4.86,4.86,0,0,1-3.49,2.08c-.25,0-.57.22-.42.34.66.51.35,1.56.59,1.76,1.19,1,1,2.8,2.36,3.71a1.29,1.29,0,0,1-.55,2.37c-.92.24-1.86,1.14-2.84-.13a7.22,7.22,0,0,0-2-.3,40.92,40.92,0,0,1-7-1.76c-.13,0-.32-.19-.35-.16-1.16,1.18-3,1.2-4.11,2.33-.8.83-1.71,1.54-2.49,2.38-.24.26-1.06.13-1.53,0s-.34-.65-.21-1.08A2.33,2.33,0,0,0,222.58,30.43Z" style="fill:#f2bd1e;"/><path d="M93.63,231.16c-.15.94-.74,1.73-.14,2.86.48.9.87,1.63,1.86,1.92.31.09.62.15.73.51-1.38.52-2,2-3.68,2.4-.74.17-1.79,1.42-2.5,2.37-.5.66-1.08,1.54-1.83,1.56-1.6,0-2,1.49-3,2.23-2.1,1.62-3.89,3.67-6.18,5A30.55,30.55,0,0,0,74,253.92c-2.62,2.41-5.74,4.12-8.34,6.56a24.24,24.24,0,0,1-5.09,3.9c-.54.29-.86.35-1.28-.13s-1.18-1.15-1.71-1.78c-1.37-1.64-1.18-2.09.66-3.31,1.32-.88,3-1.4,3.67-3.08a.68.68,0,0,1,.37-.39c2.1-.5,3.09-2.46,4.71-3.59.62-.44,1.27-.83,1.92-1.22.39-.23.92-.3.75-.94a.27.27,0,0,1,.28-.36c1.61.29,1.67-1.38,2.55-2,.19-.13.32-.38.52-.44,1.93-.6,3.15-2.2,4.68-3.36,1.23-.93,2.28-2,3.85-2.51.45-.13.7-1,1.23-1.35s1.39-.55,1.36-1.53c0-.16.37-.4.62-.49a10,10,0,0,0,4.11-3.33c.41-.5.91-.17,1.38-.24-.06-.39-.7-.94.11-1.07A6.51,6.51,0,0,0,93.63,231.16Z" style="fill:#55b8ca;"/><path d="M395.78,68.75a2.44,2.44,0,0,0,1.44-1.31c.69-1.46.29-3.39,1.93-4.44a.38.38,0,0,0,.12-.33c-.7-2.5,1.13-4.56,1.2-6.93,0-.82.91-.1,1.24-.65-1.18-1.08-1-2.35-.5-3.87s.26-1.6,1.9-1.26c1.15.24,2.33.54,2.82,1.84.12.3.42.28.68.35,1,.24,2,.53.48,1.78,1,.19,1.7.24,1.06,1.41s.5,2.07.54,3.22a5.55,5.55,0,0,1-.82,3c-.31.56-.72,1-.2,1.7a1.6,1.6,0,0,1,0,1.58c-.3.67-1.57,1.14-.47,2.12-1.39.38-.23,3.39-2.73,2.67-.1,0-.35.19-.39.33s.14.32.28.41a1.05,1.05,0,0,1-.1,1.86,2.87,2.87,0,0,0-1.26,1c-.1.17-.42.28-.22.51.33.38.87.88.28,1.19s-1.12,1.42-2.07.57c-.34-.3-.5,0-.61.22-.5,1.06-1.16.49-1.39,0-.3-.68-1-1-1.13-2-.54.66-.09,1.33-.59,1.93-.16-1.37-.32-2.57.37-3.7-1.28-.66-.82-2.32-1.8-3.14Zm7.62-18.58s-.06-.08-.09-.08-.06.05-.09.08l.13.08Z" style="fill:#e86367;"/><path d="M115,258.71c.22-.05.51,0,.64-.17,1.92-2,4.49-3.27,6.44-5.3a5.32,5.32,0,0,1,2.48-1.72c.24-.06.6-.28.63-.47.24-1.43,1.73-1.24,2.49-2,.72,2.59,1.49,5.16,2.14,7.77a36.58,36.58,0,0,1,1.1,6.67c.11,1.77.1,3.52.14,5.28a.9.9,0,0,1-.49.94c-.43.27-.64-.14-.9-.38-.84-.78-1.08-1.93-1.7-2.87a14.56,14.56,0,0,0-8.41-5.91A14.37,14.37,0,0,1,115,258.71Z" style="fill:#183848;"/><path d="M91.65,206c-.38,1-1.59.95-2.26,1.62-.18.18-.38.3-.47.55l0,0c-.69,0-1.12.18-.76,1s-.89.07-.8.71l-.13-.64c0-1,.48-1.95.47-3s1-1.36,2.09-.95C90.42,205.54,90.9,206.13,91.65,206Z" style="fill:#183848;"/><path d="M119.06,117.42c.1-2.15.3-4.25-1.92-5.59.31-.22,1.24,0,.46-.88s-1.81-1.14-2.41-2c-1.77-2.46-4.49-3.14-7.14-3.35-3-.25-5.61,1.36-7.94,3.31-1.77,1.48-3.25,3.05-3.59,5.44a20.51,20.51,0,0,0-.77,3.82c-.14.7-.23,1.36.75,1.52.1,0,.41.12.27.37-.41.76.17,1.45.11,2.19-.09,1.09,1.08,1.55,1.37,2.51.14.47.57-.51,1.07-.18-.36.65-.21,1.51.34,1.68.85.27,1.47,1,2,1.2,1.82.61,3.79,1.52,5.79.46.46-.24.83-.22,1.07.16.42.67.7.94,1.22.58s1.77.23,1.57-1.14c0,0,.75-.61,1.27-.36.23.11.43.43.69.11.69-.85,1.92-1.05,2.36-2.3a5.43,5.43,0,0,1,1.47-2c.37-.33,2.14-.43.68-1.65-.16-.14.14-.2.22-.19.62.06.5-.51.71-.8C119.43,119.44,119,118.42,119.06,117.42Z" style="fill:#183848;"/><path d="M306.26,28.65c.06.64-.1,1-.78.55Z" style="fill:#e86367;"/><path d="M127.61,249.09a.19.19,0,0,0,.06-.24l.12.18Z" style="fill:#183848;"/><polygon points="395.79 68.75 395.75 68.72 395.78 68.75 395.79 68.75" style="fill:#e86367;"/><polygon points="381.77 37.73 381.74 37.7 381.78 37.74 381.77 37.73" style="fill:#e86367;"/><path d="M271.46,53.36a4.69,4.69,0,0,1,3.06-1.06c1.06,0,1.49-.17,2-1,.34-.57.27,1,.87.22s1.28.84,1.7.19c.82-1.24,1,.15,1.43.28s.46.14.54-.2c.14-.55.76-.37.9-.3,1.44.64,2.95.18,4.4.22a3.37,3.37,0,0,1,2.85,1.15.51.51,0,0,0,.6.22c1.3-.62,2.25.43,3.31.77.62.2,1,.67,1.75.22.5-.29.56.92,1.24.87-.07.3,0,.69.32.62,1.42-.38,2.55.5,3.82.75a.4.4,0,0,0,.28-.16c-.1-.43,0-.76.48-.5.33.17.79.36.67.9a6.54,6.54,0,0,0-.29,1.16c0,.45.43,1.18.71.75.9-1.38,1.23,0,1.47.3a2.45,2.45,0,0,0,2.69,1c.47-.12,1.08.39,1.35.89.42.8.84,1.52,1.89,1.48,0,1,2.12.31,1.58,2.08-.18.59,1.54,1.81,2.32,1.7,1.51-.23,1.19.88,1.46,1.46s-.16,1.47,1,.72c.5-.31.72.1.42.65s-.09.74.54.59.52-.05.78.7.1,2.2,1.51,2.59a1.29,1.29,0,0,1,.94,1.58,4.44,4.44,0,0,0,1,2.53c.75,1.09.69,2.13-.45,2.8.51.2.52,1.38,1.49.61.1-.08.43.46.4.86-.09,1.19.52,2.26.71,3.34a19.41,19.41,0,0,1,.55,3.43,17.34,17.34,0,0,0,.48,4.63,6.65,6.65,0,0,1,.24,4.09,7.64,7.64,0,0,0-.17,3.91c.14.79-.51.58-.71.87.88.7,1,1.15-.06,2.38a2.75,2.75,0,0,0-.5,2.09c.82,1.34-.62,1.92-.82,2.87-.24,1.18-1.54,2.08-.9,3.5.19.42-.19.68-.5.48-.63-.41-.78.07-1,.41-.21-.29-.35-.7-.63-.84-1-.54-1.54-1.23-1.08-2.43A.85.85,0,0,0,318,109c-1.21-.82-.8-1.53,0-2.33a1.51,1.51,0,0,0,.41-1c0-1.38.77-2.53,1-3.84.18-.94-.85-3.16-1.78-3.33-.51-.09-1.09.21-1.08.6,0,1.2-1.05,2.18-.62,3.43.08.23.2.65-.2.62s-.79.23-.95-.28a18.63,18.63,0,0,1-1.18-4.56,2,2,0,0,0-2.76-1.77c-.54.24-1.11.61-.4,1.33a.87.87,0,0,1,.1,1.12c-.2.35-.34.86,0,1.15.9.7.39,1.55.52,2.42-.7-.21-.7-.73-.78-1.14a2.63,2.63,0,0,0-1.39-1.75,2.39,2.39,0,0,0-2.93,0c-.49.49.07,1.59.52,2.41.72,1.31,1.84,2.38,2.22,3.88a5.61,5.61,0,0,1-4-2.39,1.45,1.45,0,0,0-1.62-.86,3.52,3.52,0,0,0-2.41,1.39c-.26.34.07.8.39.9,1.07.33,1.43,1.4,2.21,2s1.13,1.46,2,1.79c.51.19,1.39.14,1.27.79s-1-.16-1.5.28c-.07.06-.33-.1-.51-.13a3.7,3.7,0,0,0-3.48,1.68c-.44.73-.28,1.07.56,1.18a32.63,32.63,0,0,1,3.55,1,3.73,3.73,0,0,0,2.44-.46c1-.53,1-.66,1.53.32.64,1.19,1.24,2.4,1.84,3.6s3.18,1.78,4.16.73c1.27-1.37,3.14-1.91,4.37-3.32a2.56,2.56,0,0,1-.37,1.71,3.74,3.74,0,0,0-.81,2.37.83.83,0,0,1-.72,1c-.53.11-1.11.39-.5,1.11a.73.73,0,0,1,.08.25c-1.41,0-.57,1.93-1.95,2.25-1,.22-1.39,1.47-1.86,2.4-.09.18,0,.46-.27.55-2,.77-2.8,3-4.55,3.88-1.91,1-3,2.83-4.77,3.92-.38.24-.81.68-1.37.28a.44.44,0,0,0-.61.12,4.62,4.62,0,0,1-3.78,1.54,13.68,13.68,0,0,0-2.36.8c-1.68.42-3.4.73-5.05,1.18s-3.63-.2-5.26.83a1,1,0,0,1-.79-.07c-1.2-.58-2.43-.2-3.65-.2-1.44,0-2.9-.3-4.33-.2-2.11.15-3.92-1.42-6.07-.92a1.72,1.72,0,0,1-1.33-.56c-1-1-2.21-.94-3.36-1.23-.32-.08-.72-.13-.77-.46-.12-.8-.84-.85-1.31-1-3.29-1.08-5.84-2.91-8.75-5.29a38.37,38.37,0,0,0-4.39-3.32c-.75-.45-1.52-.81-1.45-1.92,0-.62-.65-1.06-1-1.3-1.77-1.23-2.5-3.18-3.54-4.89a9,9,0,0,0-1-1.26,4.3,4.3,0,0,1-1.25-2.66,5.56,5.56,0,0,0-1.14-2.45c-1.31-2.11-1.06-4.68-2.36-6.72.63-1-.72-1.93,0-3,.22-.32-.52-1.18-.44-1.75.34-2.5-.45-5.1.74-7.53.22-.46-.68-.82-.29-1.52.73-1.34-.06-3.13,1.19-4.35-.66-1.86.84-3.24,1-4.87.11-.83.8-1,1-1.63.71-2.12,1.22-4.42,2.66-6.13,1-1.19,1.77-2.54,2.83-3.68.79-.85,1.43-1.83,2.14-2.75A4.89,4.89,0,0,1,251,65.53a6.2,6.2,0,0,0,2.34-3c.33-.8,1.13-.38,1.61-.82a31.26,31.26,0,0,1,4.43-3.82c.67-.42,1.32-1.68,2.53-1,.07,0,.29,0,.35-.14.79-1.2,2.21-1.46,3.33-2.16.88-.55,2-.78,2.87-1.37.07,0,.22-.08.25-.05.82,1,1.81-.08,2.68.24,0,.14.07.24.22.09Zm12,69.5c0,.14.15.26.26.13s0-.19-.17-.22-.12-.29-.33-.22a26,26,0,0,1,1.64-3.1,26.17,26.17,0,0,0,2.53-4,20.51,20.51,0,0,1,2.94-4.92c.56-.64.42-1.72,1.4-2l.07,0h-.09c-.07-1.9,1.45-3.13,2.18-4.66a18.19,18.19,0,0,1,2.1-3.72,29.5,29.5,0,0,0,2.56-4.51c1-1.85,1.86-3.78,2.9-5.59,1.29-2.25,2.05-4.71,3.22-7,1-1.86.95-4.13,2.52-5.7.28-.3.54-.83.83-.85,1.6-.08,1.55-1.77,2.5-2.54,1.15-.93.16-3.71-1.1-4.89-1-1-2.21-.3-3.28-.63a2.26,2.26,0,0,0-1.48,0c-1.26.43-1.72,1.39-2.29,2.35-1.68.09-3.31.52-5,.64a10.18,10.18,0,0,1-1.32.22,4.32,4.32,0,0,0-2.36.25,4.83,4.83,0,0,1-2.45.46c-2.46-.14-4.77.71-7.15,1a2.06,2.06,0,0,1-2.37-.83c-1.14-1.52-2.35-3-3.49-4.53s-2.91-2.35-4.26-3.65a2.13,2.13,0,0,0-2.61-.39,1.87,1.87,0,0,1-.95,0c-.77-.14-1,.17-1.15.94a24.62,24.62,0,0,1-2.4,7.28.45.45,0,0,0,0,.37c.39.7-.14,1.24-.36,1.79s-.68,1.64-1.52.34a1.13,1.13,0,0,0-.85-.36,7.48,7.48,0,0,1-3.69-.87c-.18-.12-.54-.28-.59-.23-.83,1-1.29,0-1.82-.34a1.52,1.52,0,0,0-2.26.75c-.4,1.52-1.1,3.15-.89,4.61.46,3.1-.44,6.15,0,9.21a1.1,1.1,0,0,1-.13.79c-1,1.09-.21,2.29-.2,3.41,0,2.3,1,4.4,1.54,6.6.15.61,0,1.42.3,1.84,1.28,1.61,1.26,3.69,2.19,5.45,1.21,2.3,2.1,4.73,4.22,6.43a26.44,26.44,0,0,1,1.91,2c1.85,1.83,3.46,3.93,5.76,5.24,3.26,1.86,6.67,3.42,10.06,5,.46.22.74,0,1.19-.14.82-.33.65-1.39,1.47-1.59Zm-20.81-64,0,0,0,0c.09.16.18.42,0,.46-.9.25-1.16,1-1.4,1.74-1.18.54-2.08,1.49-3.3,2.07-1.38.66-2.07,2.55-3.77,3.11-.3.1-.23.46-.34.7-.51,1.15-.79,2.58-2,3.09-1.84.76-2,2.73-3,4A29.19,29.19,0,0,0,246,79.62,18.42,18.42,0,0,0,244.08,85a1.24,1.24,0,0,1-.24.62c-1,1.18-.74,2.68-.83,4-.11,1.62-.1,3.29-.33,4.88a5.53,5.53,0,0,0,.42,3.09,3.56,3.56,0,0,1,.21.81c.45,2.42.23,5,1.39,7.27a9.23,9.23,0,0,1,.49,1.25c.59,1.78.33,3.95,2.36,5.05.11.06.28.2.27.29-.08.95.72,1.25,1.27,1.7a2.2,2.2,0,0,1,.57.73,14.39,14.39,0,0,0,3,4.4c.66.58,1.93,1.06,1.26,2.46-.12.25.19.37.44.21a.45.45,0,0,1,.69.16c1.17,1.58,3,2.47,4.28,3.82,2.15,2.24,4.93,3.51,7.32,5.35a4.47,4.47,0,0,0,2.85,1.06c1.08-.08,1.8.91,2.7,1,1.36.06,2.55.65,3.92.75,2.79.2,5.54,1,8.37.83a26.48,26.48,0,0,0,5.42-.56c1.87-.53,3.57-1.44,5.44-2a28.26,28.26,0,0,0,4.9-2.27c.34-.17.73-.42.64-.95,0-.24-.1-.45-.38-.5-.43-.07-.61.26-.89.49-.63.51-1.23,1.39-2.23.55-.34-.29-.54,0-.82.18-1,.69-2.23.41-3.33.41-.47,0-.88-.58-1.45,0-.29.32-.77.08-1.13-.17s-.55-.55-.83-.26c-1.2,1.22-2.6-.6-3.84.29-.25.18-.51-.16-.59-.54-.24-1.21-1-1.52-2-.94-.4.22-.8.67-1.19-.07-.13-.26-.47-.32-.82-.37-1.27-.18-2.35-.94-3.7-1.09-1.54-.18-2.77-1.55-4.37-1.89a.52.52,0,0,1-.4-.48c-.19-1.07-.52-1.26-1.55-.91-.32.11-.41,0-.45-.29-.09-.62-.42-.77-1-.49-.31.16-.32-.06-.44-.27a5.64,5.64,0,0,0-2.68-2c-.65-.32-1.83-.26-1.17-1.58a.27.27,0,0,0-.26-.38c-2.35,0-2.79-2.44-4.35-3.46-.11-.07,0-.45-.05-.64-.37-.94-.44-2.23-1.43-2.62a5.71,5.71,0,0,1-2.46-2.23c-.48-.61.51-2.23-1.24-1.88,0-.13-.11-.32-.05-.38.76-.88-.11-1.4-.43-2-.22-.43-.65-.79-.1-1.3s.16-.57-.26-.77a2.06,2.06,0,0,1-1.37-2.29,1.93,1.93,0,0,0-.72-1.82.72.72,0,0,1-.34-.68c.07-1.18.25-2.4-.85-3.32-.6-.5.32-1.09.06-1.58a7.23,7.23,0,0,1-.21-6.19c.15-.39.48-.83,0-1.36s.63-1.45-.31-2c.1-.06.19-.17.29-.17.83,0,.64-.62.54-1.08a1.57,1.57,0,0,1,.35-1.54c.79-1,.43-2.68,1.66-3.59,0,0,0-.18,0-.24-.5-.6,0-1.09.16-1.63s.65-1.38.47-1.89c-.74-2.13.69-3.3,1.8-4.63.19-.23.67-.33.36-.7-.45-.54,0-.86.23-1.18a4,4,0,0,0,.91-2.2,1.93,1.93,0,0,1,1.89-1.86c.11,0,.32-.06.33-.13.18-.83,1.29-1.2,1.08-2.21,1-.7,2.72-.74,2.65-2.71C263.22,59.58,263.22,59.58,262.66,58.86Zm51.54,8.82c-.2,0-.21.16-.17.28s-.09.34.16.22c.1,0,.14-.22.17-.35S314.26,67.72,314.2,67.68Zm-54.39,64-.06.08.08,0Z" style="fill:#183848;"/><path d="M196.66,198.55a27.32,27.32,0,0,1-2.65,4c-.83,1.07-1.68,2.26-2.46,3.43a14.88,14.88,0,0,1-2.11,2.62,33.09,33.09,0,0,0-3.1,3.66,6.68,6.68,0,0,1-5,1.91.52.52,0,0,1-.47-.37c-.45-1.13-1-2.26-.23-3.43a2.1,2.1,0,0,0,.27-2,10.44,10.44,0,0,1-.33-2.81,8.23,8.23,0,0,0,0-2.81c-.73,1.23-1.92,2.13-2.63,3.25-.86,1.36-2.36,1.84-3.15,3-1.75,2.62-4.61,3.79-7,5.58-.88.67-1.91,1.74-3.4,1.54-.51-.07-.8.66-1.32.94-1.89,1-3.88,1.82-5.83,2.67a2.52,2.52,0,0,1-3.12-.7c-.82-1-.2-1.92.31-2.71a14.59,14.59,0,0,0,2.44-7.33c.05-1,1-2,.18-3.16-1.52,1-3.6.83-5,2.32-.33.36-.78.13-1.17.22-2.34.51-4.67,1.11-7,1.68-3.7.91-7.48.47-11.15,1.26-1,.22-2.12-.86-2.42-1.88-.47-1.59.34-2.84,1-4.11a5.28,5.28,0,0,0,.87-1.84c.13-1.6,1.39-2.57,2-3.89a27,27,0,0,1,2.62-4.18c1.13-1.56,1.88-3.42,3.63-4.51,1.4-.87,2.15-2.47,3.53-3.41.29-.2,0-.79-.56-.79-2,0-3.89-.82-5.91-.91a25.64,25.64,0,0,0-5.58.26c-1.35.23-1.58-1.19-2-2.13s.33-.94.76-1.29a12.29,12.29,0,0,0,1.78-2c.74-.94,2.23-1.21,2.37-2.64,1.72-.07,2.11-1.82,3.29-2.62a60.91,60.91,0,0,1,7.44-4.83,33.69,33.69,0,0,1,5.68-2.53c1.41-.39,2.64-1.34,4.52-1.37-2.69-.93-4.87-2.29-7.35-2.91-.73-.18-1.44-.41-2.16-.61-1.15-.33-1.17-1-1-2,.36-1.67,1.69-2.29,3-2.91,1-.48,2-1,3.06-1.41a47.49,47.49,0,0,1,5.42-1.69,9.17,9.17,0,0,0,2.35-.85,2,2,0,0,1,.88,1.58,3.77,3.77,0,0,0,.69,1.75c1.62,2.48,2.62,5.33,4.23,7.77,1,1.54,2.36,3,3.35,4.54s2.16,2.68,2.86,4.3a5.69,5.69,0,0,0,1.82,2.23,6.74,6.74,0,0,1,2,2.26c.67,1.36,1.79,2.29,2.58,3.52a11.18,11.18,0,0,0,2.81,2.83c1.5,1.1,2.45,2.73,3.91,3.83.85.64,2.25,1.49,2.32,2,.26,1.83,2.74.82,2.77,2.54,2.53.52,3.83,2.89,6,4C195.83,197.8,196.16,198.32,196.66,198.55Z" style="fill:#55b8ca;"/><path d="M232.75,140a6.88,6.88,0,0,1,1,1.85c.4,1.39-.75,2.17-1.26,3.18a2.5,2.5,0,0,1-2,1.68c-.38,0-.32.35-.4.6s-.27.65-.42.66c-1.39,0-2,1.25-2.85,2-2,1.82-4.5,3-6.52,4.8-1.58,1.44-3.63,2.35-5.36,3.65-1.22.91-2.54,1.67-3.71,2.69a15.82,15.82,0,0,1-2.91,1.55c-.28.15-.67.17-.86.38-2,2.24-5,3.16-7.13,5.22a26.57,26.57,0,0,1-4.29,3.33c-1.53,1-2.5,2.59-4.25,3.19-.47.16-.47.76-.77,1.09-1,1.05-2.33,1.67-3.28,2.79-.4.48-.94.21-1.25-.29-.93-1.48-2.52-2-3.9-2.83-1.85-1.15-3.92-1.87-5.7-3.06a3.1,3.1,0,0,1-1.22-3.24c.6-.24,1.15-.39,1.27-1.28,0-.39.23-1.38.85-1.39,1.65,0,2-1.79,3.4-2.23A7.53,7.53,0,0,0,184,162a32.32,32.32,0,0,1,2.94-2.1,35.56,35.56,0,0,1,3.88-3c1-.6,2.31-1.14,2.81-2,1.12-1.85,3.06-2.6,4.58-3.76,1.91-1.45,3.93-2.85,5.93-4.22a33.41,33.41,0,0,0,3.5-2.86c.55-.5.69-1.63,1.84-1,0,0,.15-.09.22-.15,3-2.16,6.51-2.84,10-3.59,1.55-.33,3.22-.08,4.75-.39a16.82,16.82,0,0,1,6.54.24C231.67,139.34,232.35,139.32,232.75,140Z" style="fill:#55b8ca;"/><path d="M232.75,140c-.41-.66-1.09-.64-1.74-.77a16.82,16.82,0,0,0-6.54-.24c-1.53.3-3.2.05-4.75.39-3.48.75-7,1.44-10,3.59-.07.05-.18.17-.22.15-1.16-.59-1.29.54-1.84,1a33.41,33.41,0,0,1-3.5,2.86c-2,1.37-4,2.77-5.93,4.22-1.52,1.15-3.46,1.9-4.58,3.76-.5.83-1.83,1.36-2.81,2a35.56,35.56,0,0,0-3.88,3A32.32,32.32,0,0,0,184,162a7.53,7.53,0,0,1-2.77,2.28c-1.37.43-1.75,2.21-3.4,2.23-.62,0-.8,1-.85,1.39-.11.89-.66,1-1.27,1.28-1.27-.4-1.7-1.1-1.77-2.58,0-.81-.87-2-1.32-3-.22-.5-.43-1-.62-1.5-.06-.15-.12-.44-.06-.49,1.41-1,1.71-3,3.45-3.74,1.09-.49,1.6-1.85,2.68-2.45,1.71-.94,2.62-2.68,4-3.89.9-.76,2.08-1.4,2.79-2.15s1.9-1.34,2.69-2.17a18.61,18.61,0,0,1,1.54-1.31c2-1.72,4-3.47,5.93-5.26a23.41,23.41,0,0,0,2.32-2.33c1.05-1.29,2.71-1,4.08-1.32a51.37,51.37,0,0,1,5.14-.94c1-.17,2.34-.08,3.09-.52.93-.54,1.81-.23,2.67-.56a13.44,13.44,0,0,1,5.18-.45,13.68,13.68,0,0,0,3.14-.5c2.06-.43,4.11-.91,6.2-1.19a2.66,2.66,0,0,1,2.27,1A11.67,11.67,0,0,1,232.75,140Z" style="fill:#f2bd1e;"/><path d="M319.49,114.46c-1.23,1.41-3.1,2-4.37,3.32-1,1-3.51.57-4.16-.73s-1.2-2.42-1.84-3.6c-.52-1-.57-.84-1.53-.32a3.73,3.73,0,0,1-2.44.46,32.63,32.63,0,0,0-3.55-1c-.84-.11-1-.45-.56-1.18a3.7,3.7,0,0,1,3.48-1.68c.18,0,.44.19.51.13.47-.45,1.37.42,1.5-.28s-.76-.6-1.27-.79c-.88-.33-1.27-1.25-2-1.79s-1.14-1.65-2.21-2c-.32-.1-.64-.56-.39-.9a3.52,3.52,0,0,1,2.41-1.39,1.45,1.45,0,0,1,1.62.86,5.61,5.61,0,0,0,4,2.39c-.38-1.5-1.51-2.57-2.22-3.88-.45-.82-1-1.92-.52-2.41a2.39,2.39,0,0,1,2.93,0,2.63,2.63,0,0,1,1.39,1.75c.08.42.08.93.78,1.14-.12-.86.38-1.72-.52-2.42-.37-.28-.23-.79,0-1.15a.87.87,0,0,0-.1-1.12c-.71-.72-.14-1.09.4-1.33a2,2,0,0,1,2.76,1.77,18.63,18.63,0,0,0,1.18,4.56c.16.51.65.26.95.28s.28-.39.2-.62c-.44-1.25.66-2.23.62-3.43,0-.39.57-.69,1.08-.6.93.17,2,2.39,1.78,3.33-.24,1.31-1,2.47-1,3.84a1.51,1.51,0,0,1-.41,1c-.82.8-1.23,1.51,0,2.33a.85.85,0,0,1,.11.77c-.46,1.2,0,1.89,1.08,2.43.28.14.42.55.63.84C320.28,113.64,320,114.07,319.49,114.46Z" style="fill:#5ab7c6;"/><path d="M208.45,94.38c-.32,0-.59,0-.68-.4C208.14,93.87,208.32,94.09,208.45,94.38Z" style="fill:#f2bd1e;"/><path d="M335.87,33.29c-1.11,1.4.92,2.3,1,3.7a5,5,0,0,1,.17,1.2,1.09,1.09,0,0,0,.63,1.36c.54.21,1,.6.61,1.11s-1,1.35-1.78,1.17a14.16,14.16,0,0,1-2.8-1c-.65-.32-1.05-1.31-1.4-2.08a16.46,16.46,0,0,1-1.39-8.35c0-.33,0-.49.38-.57C333.23,29.43,335.84,31,335.87,33.29Zm-3.55,4.29s-.06-.07-.09-.07-.06,0-.09.07.05.08.08.08S332.28,37.62,332.32,37.59Z" style="fill:#e86367;"/><path d="M321,38.17c.15-1.93-.45-3.41-.69-4.94-.2-1.23.14-1.66,1.32-1.46a23.39,23.39,0,0,1,2.57.78.67.67,0,0,1,.51.71c0,.47,0,.91.64,1a.35.35,0,0,1,.24.54c-.75,1.08-.06,2.17.32,3s.25,1.85.69,2.72,0,1.63-1.1,1.59c-.87,0-1.9.26-2.48-.77,0-.07-.11-.18-.17-.18-.42,0-1,.39-1.22-.15A22.71,22.71,0,0,1,321,38.17Z" style="fill:#e86367;"/><path d="M345.85,33.69c.56.34-.29,1.8,1.3,1.52.22,0,.31.42.27.69-.16,1-1.48,1.33-2.41,1.42-2.08.19-2.74-1.16-3.64-2.52s-.86-3.2.37-3.54a3.22,3.22,0,0,1,3.18.74C345.34,32.4,346.34,32.57,345.85,33.69Z" style="fill:#e86367;"/><path d="M159.77,130.53l.08-.18s0,.06,0,.08a.62.62,0,0,1-.1.08Z" style="fill:#e86367;"/><path d="M58.43,232.4c-.15.14-.23.12-.24-.09A.42.42,0,0,1,58.43,232.4Z" style="fill:#fffffe;"/><path d="M359.26,76.11l-6.83.54c.08-.76,1-.23.94-.75-.73-1-1.82-.31-2.69-.89-.31-.21-1.12.23-1.29-.68,0-.13-.44-.1-.59.11-.74,1.06-1,.67-1.07-.34a.43.43,0,0,0-.41-.46c-1.43-.07-2.62-1.22-4.13-.88-.26,0-.41-.19-.36-.45,0-.1.15-.24.23-.25.3,0,.31.25.38.46.22-.38.26-.62-.3-.76-1.09-.28-2.14-.75-3.23-.93a1.38,1.38,0,0,1-1-.43A15.05,15.05,0,0,0,336.25,68c-.93-.73-2.18-1-2.9-2s-1.65-1.68-2.37-2.63c-.29-.38-.57-1.12-1.3-1.15l-.15.48c-.06,0-.15-.09-.17-.15a.29.29,0,0,1,.25-.38c.29-.41.31-.92-.22-.94-1.3-.05-1.62-1.1-2.17-1.91-.11-.16,0-.48-.36-.37-1,.3-1.08-.8-1-1,.21-.79-.35-1-.67-1.44-1-1.38-2.3-2.41-3.31-3.76-.56-.75-.32-2.19-1.54-2.27s-1-.82-1.23-1.42c-.17-.4.6-.51.32-.88-1.07-1.4-1.44-3.3-2.77-4.42a2.37,2.37,0,0,1-.91-2.09c.27-1.62-.64-2.79-1.24-4-.37-.77-.43-1.11.66-1.45-.91,0-1.58,0-.85-.85s.47-1.22-.45-1.6.93-1.25-.18-1.72a3.15,3.15,0,0,0-.63-.12c.33-.68,1.39-1.11.77-2s-.25-1.81-.09-2.72c-1.08-.42-2,.16-3,.39-.51.11-.93.42-1.49.52-1,.18-2.12-.25-2.95.58.06.64-.1,1-.78.55l-.27-.3c.34,1.15,0,2.62,1.54,3.21a.64.64,0,0,1-.05.33c-.7.11-.17.36-.13.63.13,1,.42,1.93.53,2.87.23,1.84.53,3.67.79,5.51.09.64.87.94.75,1.29-.49,1.36.75,2.16,1,3.3.26,1.31,1.59,2.36,2,3.78.18.62.71.46,1,.66.61.38-.78.71-.29,1.32,0,0,0,.09.06.12a9,9,0,0,1,2.45,4c.56,1.88,3,2.21,3.47,4.3a2.1,2.1,0,0,0,1.88,1.6c0,2.23,2.4,2.85,3.15,4.61a5.3,5.3,0,0,0,1.58,2c1.55,1.2,2.9,2.63,4.4,3.88,1.25,1,2.44,2.46,3.84,3,1.69.65,2.75,2.58,4.82,2.3.42,1,1.66.37,1.89.62a5.49,5.49,0,0,0,3.2,1.88c1.63.3,2.89,1.5,4.46,2,2.51.86,5.17,1.06,7.67,1.89l3.71-7.3-.1-.18.19.09Z" style="fill:#5ab7c6;"/><path d="M343.21,72.75c-.26,0-.41-.19-.36-.45,0-.1.15-.24.23-.25.3,0,.31.25.38.46Z" style="fill:#f2bd1e;"/><path d="M329.68,62.19l-.15.48c-.06,0-.15-.09-.17-.15a.29.29,0,0,1,.25-.38Z" style="fill:#f2bd1e;"/><path d="M358.94,76.76l-.1-.18.19.09Z" style="fill:#fffffe;"/><path d="M379.9,86.82a.68.68,0,0,1-.22.07c-.31,0-.37-.17-.35-.41a1.23,1.23,0,0,1,.13-.34C379.68,86.25,379.84,86.38,379.9,86.82Z" style="fill:#fffffe;"/><path d="M388.46,38.36c-.09.2-.1.47-.41.44a.26.26,0,0,1-.16-.18c-.06-.31.18-.37.4-.44Z" style="fill:#fffffe;"/><path d="M377.5,86.31a.84.84,0,0,1,.14.22c0,.16-.05.24-.2.2s-.1-.15-.09-.21S377.45,86.37,377.5,86.31Z" style="fill:#fffffe;"/><path d="M383.9,57.92s-.06.06-.09.06-.05,0-.08-.07.06-.06.09-.06S383.88,57.9,383.9,57.92Z" style="fill:#fffffe;"/><path d="M55.4,235.48l-.09.08s-.08-.06-.08-.09.06-.06.09-.08Z" style="fill:#fffffe;"/><path d="M88.92,208.18l.09.05-.06-.07Z" style="fill:#183848;"/><path d="M403.4,50.17l0,.09-.13-.08s.06-.08.09-.08S403.37,50.14,403.4,50.17Z" style="fill:#fffffe;"/><path d="M138.3,22.81a7.92,7.92,0,0,0,.58-4.18,30.1,30.1,0,0,0-5.21,3.94,48.24,48.24,0,0,1-4.1,3.34c-1.23.79-2.26,1.85-3.55,2.55-.8.43-1.36,1.33-2.17,1.71a53.32,53.32,0,0,0-5.33,3,5.52,5.52,0,0,1-1.38.77,3.12,3.12,0,0,0-2.21,1.83A17.79,17.79,0,0,0,119.31,37a17.4,17.4,0,0,1,2.07,0,33.48,33.48,0,0,0,3.63.25c1.19.09,2.33-1,3.66-.35.23.11.58-.19.61-.58.83-.24-.16-1,.41-1.33.68.37,1.44,1,2.22.07l-.21-.35h0l.16-.17-.16.17.21.35.18-.18a2.57,2.57,0,0,0,1-1l0,0A2.55,2.55,0,0,0,134.69,32c.13-.67.3-1,1-.82s.8-.21.69-.76c-.08-.39-.1-.42.31-.48a.53.53,0,0,0,.46-.53c-.25-.67.18-1,.6-1.3.12-.1.51-.27.14-.62s-.11-.6,0-1a7.16,7.16,0,0,1,.78-2.44C139,23.42,137.8,23.65,138.3,22.81Z" style="fill:#e86367;"/><path d="M283.26,122.53c-.82.19-.65,1.26-1.47,1.59-.45.18-.73.36-1.19.14-3.39-1.6-6.8-3.16-10.06-5-2.3-1.32-3.92-3.41-5.76-5.24a26.44,26.44,0,0,0-1.91-2c-2.12-1.7-3-4.14-4.22-6.43-.93-1.76-.91-3.83-2.19-5.45-.34-.42-.15-1.23-.3-1.84-.52-2.2-1.51-4.3-1.54-6.6,0-1.12-.76-2.32.2-3.41a1.1,1.1,0,0,0,.13-.79c-.47-3.06.43-6.11,0-9.21-.22-1.46.49-3.09.89-4.61a1.52,1.52,0,0,1,2.26-.75c.53.35,1,1.36,1.82.34,0-.05.41.11.59.23a7.48,7.48,0,0,0,3.69.87,1.13,1.13,0,0,1,.85.36c.84,1.3,1.25.33,1.52-.34s.75-1.09.36-1.79a.45.45,0,0,1,0-.37,24.62,24.62,0,0,0,2.4-7.28c.17-.77.37-1.08,1.15-.94a1.87,1.87,0,0,0,.95,0,2.13,2.13,0,0,1,2.61.39c1.35,1.29,3.17,2.19,4.26,3.65s2.34,3,3.49,4.53a2.06,2.06,0,0,0,2.37.83c2.38-.33,4.69-1.18,7.15-1a4.83,4.83,0,0,0,2.45-.46,4.32,4.32,0,0,1,2.36-.25,10.18,10.18,0,0,0,1.32-.22c1.68-.12,3.32-.55,5-.64a2.66,2.66,0,0,1,0,.65,14,14,0,0,0-.69,2.22c-.11.88,2.28,3.71,3.17,3.64s1.58.17,2.37.07c-1.57,1.57-1.57,3.84-2.52,5.7-1.17,2.28-1.93,4.74-3.22,7-1,1.81-1.91,3.73-2.9,5.59a29.5,29.5,0,0,1-2.56,4.51,18.19,18.19,0,0,0-2.1,3.72c-.72,1.53-2.25,2.76-2.18,4.66l0,0c-1,.28-.84,1.36-1.4,2a20.51,20.51,0,0,0-2.94,4.92,26.17,26.17,0,0,1-2.53,4,26,26,0,0,0-1.64,3.1Zm8.2-40.43a15.45,15.45,0,0,1-1-3,7.12,7.12,0,0,0-3-3.39c-1.06-.73-2.54-.15-3.8-.46-1.56-.39-2.15,2-3.84,1.34,0,0-.15.21-.23.32-1,1.21-2.4,2.15-2.45,4,0,1.32-.85,2.68-.09,3.92a11.75,11.75,0,0,1,1.1,2.15,3.83,3.83,0,0,0,2.09,2.14A9.05,9.05,0,0,0,285,90a5.81,5.81,0,0,0,3.24-.87,8.27,8.27,0,0,0,2.46-2.52A7.14,7.14,0,0,0,291.46,82.1Zm-20.32,7.6c.21-1.52-.59-2.79-1-4.18s-1.55-2.22-2.46-3.22c-1.09-1.2-2.74-.88-3.92-.86a7.09,7.09,0,0,0-5.72,2.73c-1.35,1.71-1.53,3.67-1.68,5.53-.13,1.61,1,3.16,2,4.48,1.3,1.8,5.61,2.66,7.73,2a9.37,9.37,0,0,0,3-2A5.24,5.24,0,0,0,271.14,89.7Zm9.09,4c-1-.26-1.18.12-.67,1.32.27.65,1,1.73.5,2.1-.73.56-1.37,1.61-2.38,1.53-.68-.06-1.79.29-2-.95-.2-1-1-1.19-1.82-1.24a1.92,1.92,0,0,0-1.9.82c-.34.73.26,1.39.74,2s1.59.88,2.22,1.5c1.25,1.24,4,1.74,5.23.63a11.84,11.84,0,0,0,3-3.91,4,4,0,0,0,0-2.74C282.69,93.75,281.53,93.72,280.23,93.74ZM259.87,74.33l-.08-.25s-.08.07-.08.1a1.35,1.35,0,0,0,.06.24Z" style="fill:#55b8ca;"/><path d="M261.27,61c.2,1-.91,1.38-1.08,2.21,0,.07-.22.13-.33.13A1.93,1.93,0,0,0,258,65.24a4,4,0,0,1-.91,2.2c-.26.32-.68.64-.23,1.18.32.38-.17.48-.36.7-1.11,1.33-2.54,2.5-1.8,4.63.18.52-.27,1.26-.47,1.89s-.66,1-.16,1.63c0,.06.08.22,0,.24-1.23.91-.87,2.56-1.66,3.59a1.57,1.57,0,0,0-.35,1.54c.11.46.3,1-.54,1.08-.1,0-.2.11-.29.17.94.56-.2,1.48.31,2s.17,1,0,1.36a7.23,7.23,0,0,0,.21,6.19c.26.49-.66,1.08-.06,1.58,1.1.92.92,2.14.85,3.32a.72.72,0,0,0,.34.68,1.93,1.93,0,0,1,.72,1.82,2.06,2.06,0,0,0,1.37,2.29c.42.2.67.39.26.77s-.11.87.1,1.3c.32.63,1.19,1.16.43,2-.06.06,0,.25.05.38,1.74-.35.76,1.28,1.24,1.88a5.71,5.71,0,0,0,2.46,2.23c1,.38,1.07,1.67,1.43,2.62.08.2-.06.57.05.64,1.55,1,2,3.44,4.35,3.46a.27.27,0,0,1,.26.38c-.66,1.32.51,1.26,1.17,1.58a5.64,5.64,0,0,1,2.68,2c.12.21.13.43.44.27.54-.27.88-.13,1,.49,0,.26.13.4.45.29,1-.35,1.36-.16,1.55.91a.52.52,0,0,0,.4.48c1.6.34,2.83,1.71,4.37,1.89,1.36.16,2.43.91,3.7,1.09.35,0,.68.12.82.37.39.74.79.29,1.19.07,1.05-.58,1.78-.27,2,.94.08.38.34.72.59.54,1.24-.88,2.63.93,3.84-.29.28-.29.58.09.83.26s.84.49,1.13.17c.56-.62,1,0,1.45,0,1.1,0,2.31.28,3.33-.41.27-.18.47-.47.82-.18,1,.84,1.59,0,2.23-.55.28-.23.46-.57.89-.49.27,0,.34.26.38.5.09.52-.31.78-.64.95a28.26,28.26,0,0,1-4.9,2.27c-1.87.52-3.57,1.43-5.44,2a26.48,26.48,0,0,1-5.42.56c-2.83.21-5.58-.62-8.37-.83-1.37-.1-2.56-.69-3.92-.75-.9,0-1.61-1-2.7-1a4.47,4.47,0,0,1-2.85-1.06c-2.39-1.85-5.16-3.12-7.32-5.35-1.3-1.35-3.11-2.24-4.28-3.82a.45.45,0,0,0-.69-.16c-.25.16-.55,0-.44-.21.67-1.39-.6-1.87-1.26-2.46a14.39,14.39,0,0,1-3-4.4,2.2,2.2,0,0,0-.57-.73c-.55-.45-1.35-.75-1.27-1.7,0-.09-.16-.23-.27-.29-2-1.11-1.77-3.28-2.36-5.05a9.23,9.23,0,0,0-.49-1.25c-1.16-2.29-.93-4.85-1.39-7.27a3.56,3.56,0,0,0-.21-.81,5.53,5.53,0,0,1-.42-3.09c.23-1.59.22-3.27.33-4.88.09-1.3-.15-2.81.83-4a1.24,1.24,0,0,0,.24-.62A18.42,18.42,0,0,1,246,79.62a29.19,29.19,0,0,1,2.87-5.54c1-1.31,1.18-3.28,3-4,1.24-.51,1.52-1.95,2-3.09.11-.24,0-.6.34-.7,1.7-.56,2.39-2.45,3.77-3.11,1.22-.58,2.12-1.53,3.3-2.07Z" style="fill:#e86367;"/><path d="M307.19,77.4c-.79.1-1.56-.13-2.37-.07s-3.28-2.76-3.17-3.64a14,14,0,0,1,.69-2.22,2.66,2.66,0,0,0,0-.65c.57-1,1-1.92,2.29-2.35a2.26,2.26,0,0,1,1.48,0c1.07.32,2.26-.33,3.28.63,1.26,1.18,2.24,4,1.1,4.89-1,.77-.9,2.46-2.5,2.54C307.73,76.57,307.47,77.11,307.19,77.4Z" style="fill:#e86367;"/><path d="M261.29,61.06c.24-.76.5-1.49,1.4-1.74.16,0,.07-.31,0-.46h0c.56.72.56.72,1.26-.52.07,2-1.62,2-2.65,2.71Z" style="fill:#e86367;"/><path d="M314.2,67.68c.05,0,.17.11.16.15s-.08.3-.17.35c-.25.12-.14-.14-.16-.22S314,67.69,314.2,67.68Z" style="fill:#e86367;"/><polygon points="262.67 58.86 262.63 58.83 262.66 58.86 262.67 58.86" style="fill:#e86367;"/><path d="M291.72,108.57h.09l-.07,0Z" style="fill:#55b8ca;"/><path d="M283.24,122.55c.21-.07.28.06.33.22l-.09.09-.22-.33Z" style="fill:#55b8ca;"/><path d="M283.56,122.77c.12,0,.29.09.17.22s-.22,0-.26-.13Z" style="fill:#55b8ca;"/><polygon points="259.81 131.7 259.83 131.8 259.75 131.78 259.81 131.7" style="fill:#e86367;"/><path d="M271.46,53.36l.16.15c-.15.14-.19,0-.22-.09Z" style="fill:#e86367;"/><path d="M332.32,37.59s-.07.08-.1.08-.06-.05-.08-.08.06-.07.09-.07S332.29,37.56,332.32,37.59Z" style="fill:#f2bd1e;"/><path d="M291.46,82.1a7.14,7.14,0,0,1-.76,4.49,8.27,8.27,0,0,1-2.46,2.52A5.81,5.81,0,0,1,285,90a9.05,9.05,0,0,1-4.79-.92,3.83,3.83,0,0,1-2.09-2.14,11.75,11.75,0,0,0-1.1-2.15c-.76-1.24.05-2.6.09-3.92.05-1.81,1.45-2.76,2.45-4,.09-.1.2-.33.23-.32,1.69.69,2.28-1.74,3.84-1.34,1.26.32,2.74-.27,3.8.46a7.12,7.12,0,0,1,3,3.39A15.45,15.45,0,0,0,291.46,82.1Zm-11.72,1.71a12,12,0,0,0,2.06,2.92c.23.07.29-.08.39-.24s.33-.2.54,0a3.15,3.15,0,0,0,2.87.42,4.57,4.57,0,0,0,2-4.18c-.07-.41-.12-.84-.59-1s-.72-.67-1-1.06a3.82,3.82,0,0,0-3.35-1A5,5,0,0,0,279.74,83.81Z" style="fill:#fffffe;"/><path d="M271.14,89.7a5.24,5.24,0,0,1-2,4.42,9.37,9.37,0,0,1-3,2c-2.12.69-6.43-.17-7.73-2-1-1.32-2.14-2.87-2-4.48.16-1.86.33-3.82,1.68-5.53a7.09,7.09,0,0,1,5.72-2.73c1.18,0,2.84-.33,3.92.86.91,1,2.06,1.74,2.46,3.22S271.35,88.17,271.14,89.7Zm-5.75-4.21c-3.25-.5-3.49,2.41-5.1,3.58-.63.46,0,.89.05,1.31.3,2.69,1.78,3.55,3.84,2.29.21-.13.33,0,.42.17a.63.63,0,0,0,.65.41,4.29,4.29,0,0,0,3.29-2.53,4,4,0,0,0-.24-4C267.46,85.63,266.11,85.78,265.39,85.49Z" style="fill:#fffffe;"/><path d="M280.23,93.74c1.29,0,2.45,0,2.83,1.09a4,4,0,0,1,0,2.74,11.84,11.84,0,0,1-3,3.91c-1.23,1.1-4,.61-5.23-.63-.63-.62-1.62-.72-2.22-1.5s-1.08-1.29-.74-2a1.92,1.92,0,0,1,1.9-.82c.8.05,1.62.27,1.82,1.24.26,1.24,1.36.89,2,.95,1,.09,1.65-1,2.38-1.53.48-.37-.23-1.45-.5-2.1C279.06,93.86,279.19,93.48,280.23,93.74Z" style="fill:#e86367;"/><path d="M259.87,74.33l-.1.09a1.35,1.35,0,0,1-.06-.24s0-.07.08-.1Z" style="fill:#183848;"/><path d="M279.74,83.81a5,5,0,0,1,2.92-4.15,3.82,3.82,0,0,1,3.35,1c.29.39.47.89,1,1.06s.52.57.59,1a4.57,4.57,0,0,1-2,4.18,3.15,3.15,0,0,1-2.87-.42c-.21-.19-.39-.24-.54,0s-.17.31-.39.24A12,12,0,0,1,279.74,83.81Z" style="fill:#183848;"/><path d="M265.39,85.49c.71.29,2.06.14,2.91,1.27a4,4,0,0,1,.24,4,4.29,4.29,0,0,1-3.29,2.53.63.63,0,0,1-.65-.41c-.09-.18-.21-.29-.42-.17-2.06,1.26-3.54.4-3.84-2.29,0-.42-.69-.85-.05-1.31C261.91,87.9,262.14,85,265.39,85.49Z" style="fill:#183848;"/></g></g></g></svg>